SplineFontDB: 3.2
FontName: linja_laso
FullName: linja laso
FamilyName: linja laso
Weight: Regular
Copyright: Copyright (c) 2026, mute ante
Version: 1.2
ItalicAngle: 0
UnderlinePosition: -74
UnderlineWidth: 36
Ascent: 704
Descent: 64
InvalidEm: 0
sfntRevision: 0x0000e666
LayerCount: 2
Layer: 0 0 "Back" 1
Layer: 1 0 "Fore" 0
XUID: [1021 412 1039766594 11549582]
StyleMap: 0x0040
FSType: 0
OS2Version: 4
OS2_WeightWidthSlopeOnly: 0
OS2_UseTypoMetrics: 1
CreationTime: 1759787008
ModificationTime: 1773445230
PfmFamily: 17
TTFWeight: 400
TTFWidth: 5
LineGap: 71
VLineGap: 0
Panose: 2 0 5 3 0 0 0 0 0 0
OS2TypoAscent: 832
OS2TypoAOffset: 0
OS2TypoDescent: -448
OS2TypoDOffset: 0
OS2TypoLinegap: 71
OS2WinAscent: 800
OS2WinAOffset: 0
OS2WinDescent: 352
OS2WinDOffset: 0
HheadAscent: 832
HheadAOffset: 0
HheadDescent: -448
HheadDOffset: 0
OS2SubXSize: 499
OS2SubYSize: 538
OS2SubXOff: 0
OS2SubYOff: 107
OS2SupXSize: 499
OS2SupYSize: 538
OS2SupXOff: 0
OS2SupYOff: 368
OS2StrikeYSize: 37
OS2StrikeYPos: 198
OS2Vendor: 'PfEd'
OS2CodePages: 00000001.00000000
OS2UnicodeRanges: 00000001.02000000.04000000.00000000
Lookup: 4 0 1 "LIGA basics" { "LIGA basics"  } ['liga' ('DFLT' <'dflt' > 'latn' <'dflt' > ) ]
Lookup: 4 0 1 "LIGA ni directions" { "LIGA ni directions-1"  } ['liga' ('DFLT' <'dflt' > 'latn' <'dflt' > ) ]
Lookup: 4 0 1 "LIGA alternates" { "LIGA alternates"  } ['liga' ('DFLT' <'dflt' > 'latn' <'dflt' > ) ]
Lookup: 1 0 0 "SS01 allow half spaces" { "SS01 allow half spaces"  } ['ss01' ('DFLT' <'dflt' > 'latn' <'dflt' > ) ]
Lookup: 5 0 0 "CALT colon te spacing" { "CALT colon te spacing"  } ['calt' ('DFLT' <'dflt' > 'latn' <'dflt' > ) ]
Lookup: 1 0 0 "SS20 colon te spacing" { "SS20 colon te spacing"  } ['ss20' ('DFLT' <'dflt' > 'latn' <'dflt' > ) ]
Lookup: 6 0 0 "CALT cartouches" { "CALT cartouches"  } ['calt' ('DFLT' <'dflt' > 'latn' <'dflt' > ) ]
Lookup: 2 0 0 "CCMP cartouches" { "CCMP cartouches"  } ['stch' ('DFLT' <'dflt' > 'latn' <'dflt' > ) ]

StartChar: .notdef
Encoding: 279 -1 0
GlifName: _notdef
Width: 768
VWidth: 704
GlyphClass: 1
Flags: W
HStem: 0 21G<64 704> 620 20G<64 704>
VStem: 64 640<0 640>
LayerCount: 2
Fore
SplineSet
64 0 m 1
 64 640 l 1
 704 640 l 1
 704 0 l 1
 64 0 l 1
EndSplineSet
EndChar

StartChar: t.a
Encoding: 101 989440 2
GlifName: t.a
Width: 768
GlyphClass: 1
Flags: W
HStem: -16 64<318.153 418.75> 224 64<318.153 419.386>
VStem: 215.999 64<86.1534 185.846> 335.999 64<352 656> 518.96 64<-16 68.7004>
LayerCount: 2
Fore
SplineSet
335.999023438 352 m 1
 335.999023438 656 l 1
 399.999023438 656 l 1
 399.999023438 352 l 1
 335.999023438 352 l 1
367.999023438 288 m 0
 408.3125 288 446.973632812 271.985351562 475.479492188 243.48046875 c 0
 543.411132812 175.548828125 582.959960938 80.0693359375 582.959960938 -16 c 1
 518.959960938 -16 l 1
 518.959960938 13.685546875 514.38671875 43.3017578125 505.721679688 71.68359375 c 1
 480.739257812 18.1884765625 427.040039062 -16 367.999023438 -16 c 0
 284.051757812 -16 215.999023438 52.052734375 215.999023438 136 c 0
 215.999023438 219.947265625 284.051757812 288 367.999023438 288 c 0
367.999023438 224 m 0
 319.3984375 224 279.999023438 184.600585938 279.999023438 136 c 0
 279.999023438 87.3984375 319.3984375 48 367.999023438 48 c 0
 416.600585938 48 455.999023438 87.3984375 455.999023438 136 c 0
 456 159.134765625 446.889648438 181.33984375 430.305664062 198.034179688 c 0
 413.72265625 214.728515625 391.338867188 224 367.999023438 224 c 0
EndSplineSet
MultipleSubs2: "CCMP cartouches" t.a cart.body
Ligature2: "LIGA basics" a
EndChar

StartChar: t.akesi
Encoding: 102 989441 3
GlifName: t.akesi
Width: 768
GlyphClass: 1
Flags: W
HStem: -16 64<336.591 431.408> 112 64<159.999 240 305.586 462.412 528 607.999> 240 64<159.999 240 303.999 463.999 528 607.999> 368 64<159.999 240 305.586 462.412 528 607.999> 496 64<336.591 431.408> 560 112<216.401 295.597 472.401 551.597>
VStem: 199.999 112<576.402 655.598> 240 63.999<79.5859 112 176 240 304 368 432 464.414> 455.999 112<576.402 655.598> 463.999 64.001<79.5859 112 176 240 304 368 432 464.414>
LayerCount: 2
Fore
SplineSet
305.585875991 432 m 1xf8
 462.412213869 432 l 1
 455.039338728 468.601787418 422.836835813 496 384 496 c 0
 345.162308431 496 312.958949758 468.601787418 305.585875991 432 c 1xf8
303.999023438 304 m 1xf140
 463.999023438 304 l 1
 463.999023438 368 l 1
 303.999023438 368 l 1
 303.999023438 304 l 1xf140
303.999023438 176 m 1
 463.999023438 176 l 1
 463.999023438 240 l 1
 303.999023438 240 l 1
 303.999023438 176 l 1
305.585932052 112 m 1
 312.959112996 75.3988235942 345.162406864 48 384 48 c 0
 422.836737381 48 455.039175494 75.3988235942 462.412157809 112 c 1
 305.585932052 112 l 1
199.999023438 616 m 0xf6
 199.999023438 646.927734375 225.0703125 672 255.999023438 672 c 0
 286.926757812 672 311.999023438 646.927734375 311.999023438 616 c 0
 311.999023438 585.071289062 286.926757812 560 255.999023438 560 c 0
 225.0703125 560 199.999023438 585.071289062 199.999023438 616 c 0xf6
455.999023438 616 m 0xf480
 455.999023438 646.927734375 481.071289062 672 511.999023438 672 c 0
 542.926757812 672 567.999023438 646.927734375 567.999023438 616 c 0
 567.999023438 585.071289062 542.926757812 560 511.999023438 560 c 0
 481.071289062 560 455.999023438 585.071289062 455.999023438 616 c 0xf480
159.999023438 112 m 1
 159.999023438 176 l 1
 240 176 l 1
 240 240 l 1
 159.999023438 240 l 1
 159.999023438 304 l 1
 240 304 l 1
 240 368 l 1
 159.999023438 368 l 1
 159.999023438 432 l 1
 240.870851894 432 l 1
 248.781980441 504.191482389 309.63354742 560 384 560 c 0
 458.365542241 560 519.217896092 504.191482389 527.129135547 432 c 1
 607.999023438 432 l 1
 607.999023438 368 l 1
 528 368 l 1
 528 304 l 1
 607.999023438 304 l 1
 607.999023438 240 l 1
 528 240 l 1
 528 176 l 1xf940
 607.999023438 176 l 1
 607.999023438 112 l 1
 527.129116627 112 l 1
 519.217799075 39.8092772393 458.36548296 -16 384 -16 c 0
 309.633606701 -16 248.782077457 39.8092772393 240.870870814 112 c 1
 159.999023438 112 l 1
EndSplineSet
LCarets2: 4 -58 -58 -58 -58
MultipleSubs2: "CCMP cartouches" t.akesi cart.body
Ligature2: "LIGA basics" a k e s i
EndChar

StartChar: t.ala
Encoding: 103 989442 4
GlifName: t.ala
Width: 768
GlyphClass: 1
Flags: W
HStem: -0 21G<89.2532 129.252 638.743 678.743> 620 20G<89.2524 129.252 638.743 678.744>
LayerCount: 2
Fore
SplineSet
109.251953125 640 m 1
 383.998046875 365.255859375 l 1
 658.743164062 640 l 1
 703.998046875 594.74609375 l 1
 429.252929688 320 l 1
 703.998046875 45.255859375 l 1
 658.743164062 -0 l 1
 383.998046875 274.74609375 l 1
 109.251953125 -0 l 1
 63.9990234375 45.255859375 l 1
 338.743164062 320 l 1
 63.9990234375 594.74609375 l 1
 109.251953125 640 l 1
EndSplineSet
LCarets2: 2 -130 -130
MultipleSubs2: "CCMP cartouches" t.ala cart.body
Ligature2: "LIGA basics" a l a
EndChar

StartChar: t.alasa
Encoding: 104 989443 5
GlifName: t.alasa
Width: 768
GlyphClass: 1
Flags: W
HStem: 288 64<32 128 192 382.046 444.56 623.999>
VStem: 128 64<72.1211 288 352 567.879> 382.046 64.3705<229.225 288 352 410.775>
LayerCount: 2
Fore
SplineSet
192 352 m 1
 382.046163336 352 l 1
 368.936800943 456.806918778 292.297522275 541.996218807 192 567.87890625 c 1
 192 352 l 1
192 288 m 1
 192 72.12109375 l 1
 292.2975293 98.0028952442 368.937618715 183.192931703 382.046386247 288 c 1
 192 288 l 1
32 288 m 1
 32 352 l 1
 128 352 l 1
 128 576 l 1
 128 592 l 1
 128 640 l 1
 293.813017958 640 430.340362443 513.61159984 446.416832977 352 c 1
 623.999023438 352 l 1
 514.745117188 450.745117188 l 1
 560 496 l 1
 736 320 l 1
 560 144 l 1
 514.743164062 189.25390625 l 1
 623.999023438 288 l 1
 446.416848684 288 l 1
 430.340451373 126.387621698 293.813071961 -1.42108547152e-14 128 -0 c 1
 128 48 l 1
 128 64 l 1
 128 288 l 1
 32 288 l 1
EndSplineSet
LCarets2: 4 -58 -58 -58 -58
MultipleSubs2: "CCMP cartouches" t.alasa cart.body
Ligature2: "LIGA basics" a l a s a
EndChar

StartChar: t.ale
Encoding: 105 989444 6
GlifName: t.ale
Width: 768
GlyphClass: 1
Flags: W
HStem: 128 63.9434<140.645 245.524 522.206 628.515> 288 64<32 96> 448.057 63.9434<139.485 245.795 522.206 628.515>
VStem: 32 64<236.588 287.887 288 352 352.057 403.355> 672 64<236.645 287.943 288 403.298>
CounterMasks: 1 e0
LayerCount: 2
Fore
SplineSet
191.943359375 512 m 0
 239.736328125 512 285.024414062 490.626953125 315.40625 453.734375 c 2
 384.0234375 370.279296875 l 1
 452.59375 453.677734375 l 2
 482.9765625 490.569335938 528.264648438 511.942382812 576.056640625 511.943359375 c 0
 664.391601562 511.943359375 736.000976562 440.333984375 736 352 c 2
 736 288 l 1
 672 288 l 1
 672 352 l 2
 672 405.01953125 629.01953125 448 576 448 c 0
 547.315429688 448 520.134765625 435.172851562 501.8984375 413.03125 c 2
 425.385742188 319.97265625 l 1
 501.8984375 226.912109375 l 2
 520.134765625 204.770507812 547.315429688 191.943359375 576 191.943359375 c 0
 629.01953125 191.943359375 672 234.923828125 672 287.943359375 c 1
 736 287.943359375 l 1
 736.000976562 199.608398438 664.391601562 128 576.056640625 128 c 0
 528.264648438 128 482.9765625 149.373046875 452.59375 186.265625 c 2
 384.0234375 269.6640625 l 1
 315.40625 186.208984375 l 2
 285.024414062 149.31640625 239.736328125 127.943359375 191.943359375 127.943359375 c 0
 103.609375 127.942382812 32 199.551757812 32 287.88671875 c 1
 96 287.88671875 l 1
 96 234.8671875 138.981445312 191.88671875 192 191.88671875 c 0
 220.684570312 191.88671875 247.866210938 204.713867188 266.1015625 226.85546875 c 2
 342.662109375 319.97265625 l 1
 266.1015625 413.087890625 l 2
 247.866210938 435.229492188 220.684570312 448.055664062 192 448.056640625 c 0
 138.981445312 448.056640625 96 405.075195312 96 352.056640625 c 1
 32 352.056640625 l 1
 32 440.390625 103.609375 512 191.943359375 512 c 0
32 352 m 1
 96 352 l 1
 96 288 l 1
 32 288 l 1
 32 352 l 1
EndSplineSet
LCarets2: 2 -58 -58
MultipleSubs2: "CCMP cartouches" t.ale cart.body
Ligature2: "LIGA basics" a l e
EndChar

StartChar: t.anpa
Encoding: 106 989445 7
GlifName: t.anpa
Width: 768
GlyphClass: 1
Flags: W
HStem: 80 112<344.402 423.598> 256 64<128 640>
VStem: 64 64<320 512> 328 112<96.4021 175.598> 640 64<320 512>
CounterMasks: 1 38
LayerCount: 2
Fore
SplineSet
328 136 m 0
 328 166.927734375 353.072265625 192 384 192 c 0
 414.927734375 192 440 166.927734375 440 136 c 0
 440 105.072265625 414.927734375 80 384 80 c 0
 353.072265625 80 328 105.072265625 328 136 c 0
64 512 m 1
 128 512 l 1
 128 320 l 1
 640 320 l 1
 640 512 l 1
 704 512 l 1
 704 256 l 1
 64 256 l 1
 64 512 l 1
EndSplineSet
LCarets2: 3 -58 -58 -58
MultipleSubs2: "CCMP cartouches" t.anpa cart.body
Ligature2: "LIGA basics" a n p a
EndChar

StartChar: t.ante
Encoding: 107 989446 8
GlifName: t.ante
Width: 768
GlyphClass: 1
Flags: W
LayerCount: 2
Fore
SplineSet
85.19921875 660.080078125 m 1
 384 446.650390625 l 1
 682.80078125 660.080078125 l 1
 720 608 l 1
 384 368 l 1
 48 608 l 1
 85.19921875 660.080078125 l 1
384 272 m 1
 720 32 l 1
 682.80078125 -20.080078125 l 1
 384 193.3515625 l 1
 85.19921875 -20.080078125 l 1
 48 32 l 1
 384 272 l 1
EndSplineSet
LCarets2: 3 0 0 0
MultipleSubs2: "CCMP cartouches" t.ante cart.body
Ligature2: "LIGA basics" a n t e
EndChar

StartChar: t.anu
Encoding: 108 989447 9
GlifName: t.anu
Width: 768
GlyphClass: 1
Flags: W
HStem: -0 21G<351.998 416> 620 20G<89.255 129.256 638.744 678.745>
VStem: 351.998 64.002<0 306.746>
LayerCount: 2
Fore
SplineSet
109.255859375 640 m 1
 384 365.255859375 l 1
 658.744140625 640 l 1
 704 594.74609375 l 1
 416 306.74609375 l 1
 416 -0 l 1
 351.998046875 -0 l 1
 351.998046875 306.74609375 l 1
 64 594.74609375 l 1
 109.255859375 640 l 1
EndSplineSet
LCarets2: 2 0 0
MultipleSubs2: "CCMP cartouches" t.anu cart.body
Ligature2: "LIGA basics" a n u
EndChar

StartChar: t.awen
Encoding: 109 989448 10
GlifName: t.awen
Width: 768
GlyphClass: 1
Flags: W
HStem: -0 64<64 204.66 563.34 704> 620 20G<328.216 439.784>
LayerCount: 2
Fore
SplineSet
332.66015625 640 m 1
 435.33984375 640 l 1
 563.33984375 64 l 1
 704 64 l 1
 704 -0 l 1
 512 -0 l 1
 384 576 l 1
 256 -0 l 1
 64 -0 l 1
 64 64 l 1
 204.66015625 64 l 1
 332.66015625 640 l 1
EndSplineSet
LCarets2: 3 -58 -58 -58
MultipleSubs2: "CCMP cartouches" t.awen cart.body
Ligature2: "LIGA basics" a w e n
EndChar

StartChar: t.e
Encoding: 110 989449 11
GlifName: t.e
Width: 768
GlyphClass: 1
Flags: W
LayerCount: 2
Fore
SplineSet
384.000976562 656 m 1
 720.000976562 320 l 1
 384 -16 l 1
 338.74609375 29.25390625 l 1
 629.489257812 320 l 1
 338.74609375 610.74609375 l 1
 384.000976562 656 l 1
96.0009765625 656 m 1
 432.000976562 320 l 1
 96 -16 l 1
 50.74609375 29.25390625 l 1
 341.489257812 320 l 1
 50.74609375 610.74609375 l 1
 96.0009765625 656 l 1
EndSplineSet
MultipleSubs2: "CCMP cartouches" t.e cart.body
Ligature2: "LIGA basics" e
EndChar

StartChar: t.en
Encoding: 111 989450 12
GlifName: t.en
Width: 768
GlyphClass: 1
Flags: W
HStem: 288 64<96 352 416 672>
VStem: 352 64<32 288 352 608>
LayerCount: 2
Fore
SplineSet
96 288 m 1
 96 352 l 1
 352 352 l 1
 352 608 l 1
 416 608 l 1
 416 352 l 1
 672 352 l 1
 672 288 l 1
 416 288 l 1
 416 32 l 1
 352 32 l 1
 352 288 l 1
 96 288 l 1
EndSplineSet
LCarets2: 1 -58
MultipleSubs2: "CCMP cartouches" t.en cart.body
Ligature2: "LIGA basics" e n
EndChar

StartChar: t.esun
Encoding: 112 989451 13
GlifName: t.esun
Width: 768
GlyphClass: 1
Flags: W
HStem: -16 64<155.504 261.525> 240 64<155.504 326.258> 336 64<442.165 611.317> 592 64<506.475 612.496>
VStem: 48 64<91.5044 196.496> 656 64<443.504 548.496>
LayerCount: 2
Fore
SplineSet
327.656944 226.687402502 m 1
 288.809368337 235.446919645 248.712462174 240 208 240 c 0
 154.98046875 240 112 197.01953125 112 144 c 0
 112 90.98046875 154.98046875 48 208 48 c 0
 252.041992188 48 290.43359375 77.9677734375 301.126953125 120.69140625 c 2
 327.656944 226.687402502 l 1
440.342963172 413.312226622 m 1
 479.190567788 404.55275291 519.287505399 399.999785565 560 400 c 0
 613.01953125 400 656 442.98046875 656 496 c 0
 656 549.01953125 613.01953125 592 560 592 c 0
 515.958984375 592 477.56640625 562.032226562 466.873046875 519.30859375 c 2
 440.342963172 413.312226622 l 1
404.792753815 271.277505406 m 1
 532.980370517 227.412590912 644.809952774 141.271099515 719.955078125 23.970703125 c 1
 666.06640625 -10.55078125 l 1
 599.831880893 92.8394922957 501.744725602 169.174453515 389.191305486 208.944613306 c 1
 363.212890625 105.15234375 l 2
 345.390625 33.9453125 281.403320312 -16 208 -16 c 0
 119.634765625 -16 48 55.634765625 48 144 c 0
 48 232.365234375 119.634765625 304 208 304 c 0
 254.014492089 304 299.325427856 298.795580097 343.200265622 288.788059382 c 1
 363.207162833 368.722161574 l 1
 235.019888294 412.587099869 123.190646101 498.728990438 48.044921875 616.029296875 c 1
 101.93359375 650.55078125 l 1
 168.168099531 547.160538261 266.255216419 470.825163313 378.80859472 431.054987985 c 1
 404.787109375 534.84765625 l 2
 422.609375 606.053710938 486.59765625 656 560 656 c 0
 648.366210938 656 720 584.365234375 720 496 c 0
 720 407.634765625 648.366210938 336 560 336 c 0
 513.985438156 336 468.674482921 341.204098286 424.799647226 351.211592417 c 1
 404.792753815 271.277505406 l 1
EndSplineSet
LCarets2: 3 -58 -58 -58
MultipleSubs2: "CCMP cartouches" t.esun cart.body
Ligature2: "LIGA basics" e s u n
EndChar

StartChar: t.ijo
Encoding: 113 989452 14
GlifName: t.ijo
Width: 768
GlyphClass: 1
Flags: W
HStem: -16 64<291.289 476.712> 592 64<291.289 476.712>
VStem: 48.001 64<227.289 412.711> 656.001 64<227.289 412.711>
LayerCount: 2
Fore
SplineSet
384.000976562 656 m 0
 569.444335938 656 720.000976562 505.443359375 720.000976562 320 c 0
 720.000976562 134.556640625 569.444335938 -16 384.000976562 -16 c 0
 198.556640625 -16 48.0009765625 134.556640625 48.0009765625 320 c 0
 48.0009765625 505.443359375 198.556640625 656 384.000976562 656 c 0
384.000976562 592 m 0
 233.879882812 592 112.000976562 470.12109375 112.000976562 320 c 0
 112.000976562 169.87890625 233.879882812 48 384.000976562 48 c 0
 534.12109375 48 656.000976562 169.87890625 656.000976562 320 c 0
 656.000976562 470.12109375 534.12109375 592 384.000976562 592 c 0
EndSplineSet
LCarets2: 2 -58 -58
MultipleSubs2: "CCMP cartouches" t.ijo cart.body
Ligature2: "LIGA basics" i j o
EndChar

StartChar: t.ike
Encoding: 114 989453 15
GlifName: t.ike
Width: 768
GlyphClass: 1
Flags: W
HStem: 448 64<296.229 471.775>
VStem: 64.002 63.999<192 279.562> 640.002 63.999<192 279.562>
LayerCount: 2
Fore
SplineSet
64.001953125 192 m 1
 64.001953125 368.612304688 207.388671875 512 384.001953125 512 c 0
 560.614257812 512 704.000976562 368.612304688 704.000976562 192 c 1
 640.001953125 192 l 1
 640.001953125 333.290039062 525.291992188 448 384.001953125 448 c 0
 242.7109375 448 128.000976562 333.290039062 128.000976562 192 c 1
 64.001953125 192 l 1
EndSplineSet
LCarets2: 2 -58 -58
MultipleSubs2: "CCMP cartouches" t.ike cart.body
Ligature2: "LIGA basics" i k e
EndChar

StartChar: t.ilo
Encoding: 115 989454 16
GlifName: t.ilo
Width: 768
GlyphClass: 1
Flags: W
HStem: 320 64<128 352 416 640> 576 64<128 352 416 640>
VStem: 64 64<384 576> 352 64<-16 320 384 576> 640 64<384 576>
CounterMasks: 1 38
LayerCount: 2
Fore
SplineSet
64 640 m 1
 704 640 l 1
 704 320 l 1
 416 320 l 1
 416 -16 l 1
 352 -16 l 1
 352 320 l 1
 64 320 l 1
 64 640 l 1
128 576 m 1
 128 384 l 1
 352 384 l 1
 352 576 l 1
 128 576 l 1
416 576 m 1
 416 384 l 1
 640 384 l 1
 640 576 l 1
 416 576 l 1
EndSplineSet
LCarets2: 2 -58 -58
MultipleSubs2: "CCMP cartouches" t.ilo cart.body
Ligature2: "LIGA basics" i l o
EndChar

StartChar: t.insa
Encoding: 116 989455 17
GlifName: t.insa
Width: 768
GlyphClass: 1
Flags: W
HStem: 160 64<128.003 640.001> 320 112<344.402 423.598>
VStem: 64.001 64.002<224 480> 328 112<336.402 415.598> 640.001 64<224 480>
LayerCount: 2
Fore
SplineSet
640.002929688 480 m 1
 704.000976562 480 l 1
 704.000976562 160 l 1
 64.0009765625 160 l 1
 64.0009765625 480 l 1
 128.002929688 480 l 1
 128.002929688 224 l 1
 640.000976562 224 l 1
 640.002929688 480 l 1
328 376 m 0
 328 406.927734375 353.072265625 432 384 432 c 0
 414.927734375 432 440 406.927734375 440 376 c 0
 440 345.072265625 414.927734375 320 384 320 c 0
 353.072265625 320 328 345.072265625 328 376 c 0
EndSplineSet
LCarets2: 3 -58 -58 -58
MultipleSubs2: "CCMP cartouches" t.insa cart.body
Ligature2: "LIGA basics" i n s a
EndChar

StartChar: t.jaki
Encoding: 117 989456 18
GlifName: t.jaki
Width: 768
VWidth: 998
GlyphClass: 1
Flags: W
HStem: -18.0166 59.9551<327.109 499.394> 37.4062 58.9736<625.029 710.628> 427.554 59.9414<109.341 197.051> 600.622 60.0518<282.948 493.826>
VStem: 187.58 59.9551<487.582 579.079>
LayerCount: 2
Fore
SplineSet
401.95703125 660.673828125 m 0xb8
 434.782226562 660.3046875 463.934570312 656.014648438 489.14453125 649.025390625 c 0
 522.758789062 639.706054688 549.400390625 625.758789062 568.684570312 608.580078125 c 0
 587.969726562 591.401367188 602.143554688 569.625976562 598.98046875 543.368164062 c 0
 597.395507812 530.21484375 591.078125 522.499023438 585.390625 516.373046875 c 0
 579.702148438 510.247070312 573.487304688 505.356445312 566.462890625 500.391601562 c 0
 552.4140625 490.4609375 534.979492188 480.553710938 514.760742188 469.504882812 c 0
 502.375 462.73828125 487.662109375 454.84765625 473.61328125 447.307617188 c 1
 586.6953125 422.993164062 680.13671875 396.875 680.13671875 396.875 c 2
 692.741210938 393.3203125 702.018554688 381.745117188 702.018554688 368.009765625 c 0
 702.018554688 358.484375 697.571289062 349.991210938 690.640625 344.493164062 c 2
 597.03125 270.252929688 l 1
 627.651367188 230.793945312 641.865234375 176.978515625 628.404296875 112.362304688 c 0
 627.256835938 106.854492188 625.703125 101.543945312 623.872070312 96.3798828125 c 1
 650.5859375 94.31640625 679.172851562 94.326171875 710.203125 97.1552734375 c 1
 715.651367188 37.40625 l 1x78
 668.180664062 33.0791015625 624.4765625 34.451171875 584.408203125 40.5439453125 c 1
 571.538085938 28.9765625 557.340820312 18.61328125 541.438476562 10.7060546875 c 0
 499.086914062 -10.3525390625 447.8984375 -19.982421875 396.044921875 -18.0166015625 c 0
 353.634765625 -16.4091796875 310.872070312 -6.412109375 272.390625 12.7802734375 c 1
 226.645507812 -23.501953125 l 1
 189.359375 23.505859375 l 1
 220.09765625 47.880859375 l 1
 188.947265625 76.0029296875 164.897460938 113.584960938 155.018554688 160.440429688 c 0
 141.927734375 222.529296875 164.700195312 279.708984375 201.827148438 325.654296875 c 0
 203.495117188 327.71875 205.55078125 329.543945312 207.275390625 331.575195312 c 1
 195.485351562 332.963867188 182.374023438 334.198242188 171.48046875 335.775390625 c 0
 143.383789062 339.842773438 118.760742188 344.506835938 97.6982421875 352.922851562 c 0
 76.6357421875 361.33984375 54.1748046875 376.920898438 50.306640625 403.7109375 c 0
 46.3681640625 430.984375 63.7607421875 458.928710938 85.828125 470.708984375 c 0
 107.895507812 482.48828125 133.521484375 486.168945312 163.1015625 487.495117188 c 0
 173.73828125 487.971679688 185.4453125 487.634765625 197.05078125 487.369140625 c 1
 196.278320312 491.8984375 195.173828125 496.951171875 194.51171875 501.27734375 c 0
 190.278320312 528.947265625 188.254882812 552.2421875 187.580078125 569.352539062 c 0
 187.244140625 577.908203125 187.224609375 584.819335938 187.53515625 590.627929688 c 0
 187.689453125 593.53125 187.853515625 596.01953125 188.458007812 599.375 c 0
 188.759765625 601.052734375 189.049804688 602.859375 190.33984375 606.2109375 c 0
 191.630859375 609.561523438 191.645507812 618.075195312 208.4921875 624.192382812 c 0
 282.348632812 651.012695312 347.25 661.290039062 401.95703125 660.673828125 c 0xb8
401.314453125 600.622070312 m 0
 359.028320312 601.087890625 307.299804688 593.530273438 247.53515625 573.86328125 c 0
 247.53515625 572.9375 247.497070312 572.704101562 247.53515625 571.71484375 c 0
 248.106445312 557.228515625 249.923828125 535.841796875 253.82421875 510.349609375 c 0
 255.094726562 502.048828125 256.978515625 492.7109375 258.71875 483.612304688 c 1
 295.580078125 479.8828125 334.673828125 474.067382812 374.052734375 467.12109375 c 0
 377.149414062 466.575195312 380.06640625 465.864257812 383.162109375 465.3046875 c 0
 420.782226562 486.857421875 457.30859375 506.48046875 485.9921875 522.153320312 c 0
 505.555664062 532.842773438 521.786132812 542.288085938 531.826171875 549.384765625 c 0
 534.58203125 551.333007812 535.415039062 552.249023438 537.096679688 553.673828125 c 0
 535.686523438 556.155273438 533.541992188 559.529296875 528.770507812 563.779296875 c 0
 518.306640625 573.100585938 499.491210938 583.891601562 473.118164062 591.203125 c 0
 453.338867188 596.6875 429.326171875 600.314453125 401.314453125 600.622070312 c 0
165.788085938 427.553710938 m 0
 140.763671875 426.432617188 121.782226562 421.881835938 114.084960938 417.7734375 c 0
 107.204778158 414.100282319 108.448432488 417.228460991 109.385585751 413.806683365 c 1
 109.609251215 413.904993705 111.52605574 412.012367979 119.9609375 408.641601562 c 0
 132.370117188 403.68359375 153.9296875 398.940429688 180.079101562 395.155273438 c 0
 191.748046875 393.465820312 206.926757812 392.000976562 220.237304688 390.482421875 c 1
 216.395507812 403.017578125 212.9609375 415.119140625 209.939453125 427.096679688 c 1
 193.91796875 427.901367188 178.962890625 428.14453125 165.788085938 427.553710938 c 0
273.349609375 421.32421875 m 1
 275.418945312 414.064453125 278.099609375 406.544921875 280.48046875 399.133789062 c 1
 288.640625 405.293945312 296.733398438 411.515625 305.165039062 417.330078125 c 1
 294.28125 418.879882812 283.852539062 420.075195312 273.349609375 421.32421875 c 1
393.629882812 402.064453125 m 1
 387.030273438 398.139648438 380.513671875 394.76953125 373.96484375 390.688476562 c 0
 365.5234375 385.430664062 357.341796875 379.868164062 349.124023438 374.352539062 c 1
 357.310546875 373.166015625 365.111328125 372.55078125 373.299804688 371.193359375 c 0
 437.737304688 360.509765625 501.732421875 344.4375 552.000976562 311.119140625 c 1
 606.2578125 354.1484375 l 1
 557.27734375 367.025390625 486.4375 384.418945312 393.629882812 402.064453125 c 1
312.5546875 318.619140625 m 1
 334.836914062 272.935546875 363.81640625 228.866210938 402.126953125 192.256835938 c 1
 501.612304688 271.154296875 l 1
 464.763671875 290.256835938 415.6328125 303.358398438 363.482421875 312.005859375 c 0
 346.6171875 314.801757812 329.622070312 316.478515625 312.5546875 318.619140625 c 1
256.4375 296.525390625 m 1
 253.89453125 293.646484375 250.842773438 290.845703125 248.494140625 287.940429688 c 0
 218.512695312 250.836914062 204.896484375 214.69921875 213.725585938 172.8203125 c 0
 221.845703125 134.306640625 241.469726562 106.7890625 268.123046875 85.9716796875 c 1
 354.897460938 154.79296875 l 1
 312.173828125 197.221679688 280.2734375 246.666992188 256.4375 296.525390625 c 1
550.893554688 233.661132812 m 1
 450.249023438 153.840820312 l 1
 482.216796875 132.633789062 519.071289062 115.8515625 562.217773438 105.704101562 c 1
 565.65234375 111.766601562 568.298828125 118.038085938 569.666015625 124.6015625 c 0
 580.484375 176.534179688 572.224609375 208.6328125 550.893554688 233.661132812 c 1
401.374023438 115.079101562 m 1
 326.034179688 55.322265625 l 1
 348.9453125 47.6240234375 373.5078125 42.8798828125 398.317382812 41.9384765625 c 0xb8
 436.822265625 40.4794921875 474.692382812 47.6279296875 504.793945312 60.4013671875 c 1
 471.194335938 72.2158203125 440.749023438 87.611328125 413.612304688 106.006835938 c 0
 409.360351562 108.889648438 405.469726562 112.067382812 401.374023438 115.079101562 c 1
EndSplineSet
LCarets2: 3 0 0 0
MultipleSubs2: "CCMP cartouches" t.jaki cart.body
Ligature2: "LIGA basics" j a k i
EndChar

StartChar: t.jan
Encoding: 118 989457 19
GlifName: t.jan
Width: 768
GlyphClass: 1
Flags: W
HStem: 96 64<302.734 465.266> 592 64<302.803 465.197>
VStem: 104 64<294.701 457.197> 600 64<294.701 457.197>
LayerCount: 2
Fore
SplineSet
384 656 m 0
 538.536132812 656 664 530.536132812 664 376 c 0
 664 295.164249584 629.670653336 222.28323472 574.808160561 171.153155964 c 1
 730.673828125 31.6953125 l 1
 688 -16 l 1
 522.111946515 132.42491609 l 1
 481.347225119 109.243549774 434.207998536 96 384 96 c 0
 333.791850054 96 286.65249057 109.24362965 245.887684688 132.425125811 c 1
 80 -16 l 1
 37.326171875 31.6953125 l 1
 193.191013655 171.153925571 l 1
 138.329002184 222.283966053 104 295.164655161 104 376 c 0
 104 530.536132812 229.463867188 656 384 656 c 0
384 592 m 0
 264.786132812 592 168 495.212890625 168 376 c 0
 168 256.786132812 264.786132812 160 384 160 c 0
 503.213867188 160 600 256.786132812 600 376 c 0
 600 495.212890625 503.213867188 592 384 592 c 0
EndSplineSet
LCarets2: 2 -58 -58
MultipleSubs2: "CCMP cartouches" t.jan cart.body
Ligature2: "LIGA basics" j a n
EndChar

StartChar: t.jelo
Encoding: 119 989458 20
GlifName: t.jelo
Width: 768
GlyphClass: 1
Flags: W
HStem: -16 64<256 512> 368 64<112 230.843 537.157 656> 496 176<353.21 414.79>
VStem: 112 176<369.21 430.79> 352 64<553.157 672> 480 176<369.21 430.79>
CounterMasks: 1 1c
LayerCount: 2
Fore
SplineSet
352 556.799388273 m 1
 352 672 l 1
 416 672 l 1
 416 556.799388273 l 1
 478.691962384 544.0734759 528.0734759 494.691962384 540.799388273 432 c 1
 656 432 l 1
 656 368 l 1
 540.799388273 368 l 1
 529.594547754 312.801329777 489.972993759 267.921388476 437.869539032 249.294988839 c 1
 640 -16 l 1
 128 -16 l 1
 330.129160323 249.295453811 l 1
 278.026346867 267.922135362 238.405359012 312.801789081 227.200611727 368 c 1
 112 368 l 1
 112 432 l 1
 227.200611727 432 l 1
 239.9265241 494.691962384 289.308037616 544.0734759 352 556.799388273 c 1
384 216 m 1
 256 48 l 1
 512 48 l 1
 384 216 l 1
384 496 m 0
 330.98046875 496 288 453.01953125 288 400 c 0
 288 346.98046875 330.98046875 304 384 304 c 0
 437.01953125 304 480 346.98046875 480 400 c 0
 480 453.01953125 437.01953125 496 384 496 c 0
EndSplineSet
LCarets2: 3 0 0 0
MultipleSubs2: "CCMP cartouches" t.jelo cart.body
Ligature2: "LIGA basics" j e l o
EndChar

StartChar: t.jo
Encoding: 120 989459 21
GlifName: t.jo
Width: 768
GlyphClass: 1
Flags: W
HStem: -0 64<312.131 455.87> 224 64<320 559.281> 352 64<335.7 431.008> 576 64<336.991 431.008>
VStem: 144 64<168.131 314.059> 240 64<447.736 543.008> 464 64<448.992 543.008>
LayerCount: 2
Fore
SplineSet
384 576 m 0
 339.846679688 576 304 540.153320312 304 496 c 0
 304 451.846679688 339.846679688 416 384 416 c 0
 428.15234375 416 464 451.846679688 464 496 c 0
 464 540.153320312 428.15234375 576 384 576 c 0
320 224 m 1
 320 288 l 1
 553.328125 288 l 1
 600 288 l 1
 619.150390625 288 l 1
 622.328125 272.43359375 623.999023438 256.499023438 624 240 c 0
 624 107.540039062 516.458984375 -0 384 -0 c 0
 251.540039062 -0 144 107.540039062 144 240 c 0
 144 323.451981498 186.639080541 396.965568193 251.330186693 439.955697899 c 1
 244.035140592 457.18526767 240 476.12512867 240 496 c 0
 240 575.475585938 304.5234375 640 384 640 c 0
 463.475585938 640 528 575.475585938 528 496 c 0
 528 416.524414062 463.475585938 352 384 352 c 0
 347.506472302 352 314.165665377 365.60434428 288.776592745 388.013735689 c 1
 240.124313942 356.706618565 208 302.134796729 208 240 c 0
 208 142.862304688 286.862304688 64 384 64 c 0
 475.743649139 64 551.186629802 134.348465307 559.281077761 224 c 1
 320 224 l 1
EndSplineSet
LCarets2: 1 0
MultipleSubs2: "CCMP cartouches" t.jo cart.body
Ligature2: "LIGA basics" j o
EndChar

StartChar: t.kala
Encoding: 121 989460 22
GlifName: t.kala
Width: 768
GlyphClass: 1
Flags: W
HStem: 96 64<425.363 605.273> 480 64<425.363 605.273>
VStem: 29.0088 64.7129<96 163.817 476.183 544> 672.001 64<227.008 412.991>
LayerCount: 2
Fore
SplineSet
29.0087890625 544 m 1
 29.0087890625 544 94.01953125 543.080078125 93.7216796875 544 c 1
 103.600585938 482.216796875 126.20703125 423.640625 158.295898438 372.7578125 c 1
 253.48046875 478.026367188 391.04296875 544 544.000976562 544 c 0
 649.96875 544 736.000976562 457.967773438 736.000976562 352 c 2
 736.000976562 288 l 2
 736.000976562 182.032226562 649.96875 96 544.000976562 96 c 0
 391.04296875 96 253.48046875 161.97265625 158.295898438 267.2421875 c 1
 126.20703125 216.359375 103.600585938 157.782226562 93.7216796875 96 c 1
 93.7216796875 96 29.322265625 97.03125 29.0087890625 96 c 1
 40.4697265625 177.978515625 71.388671875 254.888671875 116.467773438 320 c 1
 71.388671875 385.110351562 40.4697265625 462.021484375 29.0087890625 544 c 1
544.000976562 480 m 0
 405.134765625 480 280.795898438 418.044921875 197.129882812 320 c 1
 280.795898438 221.955078125 405.134765625 160 544.000976562 160 c 0
 614.645507812 160 672.000976562 217.354492188 672.000976562 288 c 2
 672.000976562 352 l 2
 672.000976562 422.64453125 614.646484375 480 544.000976562 480 c 0
EndSplineSet
LCarets2: 3 0 0 0
MultipleSubs2: "CCMP cartouches" t.kala cart.body
Ligature2: "LIGA basics" k a l a
EndChar

StartChar: t.kalama
Encoding: 122 989461 23
GlifName: t.kalama
Width: 768
GlyphClass: 1
Flags: W
HStem: 32 64<305.158 462.845> 288 64<162.299 605.705> 448 21G<352.002 416.002> 620 20G<352.002 416.002>
VStem: 352.002 64<448 640>
LayerCount: 2
Fore
SplineSet
96.0009765625 352 m 1
 672.001953125 352 l 1
 672.001953125 320 l 2
 672.001953125 160.94140625 543.059570312 32 384.000976562 32 c 0
 224.943359375 32 96.0009765625 160.94140625 96.0009765625 320 c 2
 96.0009765625 352 l 1
162.298828125 288 m 1
 178.206054688 177.791015625 272.651367188 96 384.000976562 96 c 0
 495.352539062 95.9990234375 589.797851562 177.791015625 605.705078125 288 c 1
 162.298828125 288 l 1
352.001953125 448 m 1
 352.001953125 640 l 1
 416.001953125 640 l 1
 416.001953125 448 l 1
 352.001953125 448 l 1
473.6015625 428.799804688 m 1
 588.801757812 582.399414062 l 1
 640.001953125 544 l 1
 524.801757812 390.400390625 l 1
 473.6015625 428.799804688 l 1
294.401367188 428.799804688 m 1
 243.202148438 390.400390625 l 1
 128.001953125 544 l 1
 179.202148438 582.400390625 l 1
 294.401367188 428.799804688 l 1
EndSplineSet
LCarets2: 5 0 0 0 0 0
MultipleSubs2: "CCMP cartouches" t.kalama cart.body
Ligature2: "LIGA basics" k a l a m a
EndChar

StartChar: t.kama
Encoding: 123 989462 24
GlifName: t.kama
Width: 768
GlyphClass: 1
Flags: W
HStem: -0 21G<245.144 292.445 470.668 522.858> 620 20G<360.217 465.542>
LayerCount: 2
Fore
SplineSet
364.661132812 640 m 1
 455.524414062 640 l 1
 720.000976562 112 l 1
 480.000976562 -0 l 1
 452.936523438 57.99609375 l 1
 633.309570312 142.169921875 l 1
 416.000976562 576 l 1
 288.000976562 -0 l 1
 48.0009765625 112 l 1
 75.0654296875 169.99609375 l 1
 242.819335938 91.7109375 l 1
 364.661132812 640 l 1
EndSplineSet
LCarets2: 3 0 0 0
MultipleSubs2: "CCMP cartouches" t.kama cart.body
Ligature2: "LIGA basics" k a m a
EndChar

StartChar: t.kasi
Encoding: 124 989463 25
GlifName: t.kasi
Width: 768
GlyphClass: 1
Flags: W
HStem: -0.0253906 21G<352.001 416.001> 256.001 67.5371<264.402 350.233 417.769 503.6> 576.025 64.002<96.001 183.806 584.196 672.001>
VStem: 32.001 64<488.415 576.003> 352.001 64<0.000976562 256.001 323.561 405.266> 672.001 64<488.438 576.025>
LayerCount: 2
Fore
SplineSet
672.000976562 640.02734375 m 2
 736.000976562 640.001953125 l 1
 736.000976562 576 l 2
 735.986328125 399.278320312 592.72265625 256.025390625 416.000976562 256.025390625 c 1
 416.000976562 -0.025390625 l 1
 352.000976562 0.0009765625 l 1
 352.000976562 256.000976562 l 1
 175.280273438 256.000976562 32.0166015625 399.25390625 32.0009765625 575.975585938 c 2
 32.0009765625 639.977539062 l 1
 96.0009765625 640.00390625 l 2
 222.659179688 640.00390625 332.129882812 566.418945312 383.995117188 459.66796875 c 1
 435.856445312 566.431640625 545.333984375 640.02734375 672.000976562 640.02734375 c 2
672.000976562 576.025390625 m 1
 530.616210938 576.025390625 417.768554688 464.9453125 417.768554688 323.560546875 c 1
 559.154296875 323.560546875 672.000976562 434.640625 672.000976562 576.025390625 c 1
96.0009765625 576.002929688 m 1
 96.0009765625 434.6171875 208.848632812 323.537109375 350.233398438 323.538085938 c 1
 350.233398438 464.922851562 237.38671875 576.002929688 96.0009765625 576.002929688 c 1
EndSplineSet
LCarets2: 3 -58 -58 -58
MultipleSubs2: "CCMP cartouches" t.kasi cart.body
Ligature2: "LIGA basics" k a s i
EndChar

StartChar: t.ken
Encoding: 125 989464 26
GlifName: t.ken
Width: 768
GlyphClass: 1
Flags: W
HStem: 0 21G<144 207.999 560 624> 288 64.001<207.999 364.37> 620 20G<144 207.999 560 624>
VStem: 144 63.999<0 288 352.001 640> 560 64<0 92.3702 547.63 640>
LayerCount: 2
Fore
SplineSet
144 640 m 1
 207.999023438 640 l 1
 207.999023438 352.000976562 l 1
 272 352.000976562 l 2
 431.057617188 352.000976562 560 480.942382812 560 640 c 1
 624 640 l 1
 624 502.357421875 543.999023438 368 384 320 c 1
 543.999023438 272 624 137.643554688 624 0 c 1
 560 0 l 1
 560 159.05859375 431.057617188 288 272 288 c 2
 207.999023438 288 l 1
 207.999023438 0 l 1
 144 0 l 1
 144 640 l 1
EndSplineSet
LCarets2: 2 -58 -58
MultipleSubs2: "CCMP cartouches" t.ken cart.body
Ligature2: "LIGA basics" k e n
EndChar

StartChar: t.kepeken
Encoding: 126 989465 27
GlifName: t.kepeken
Width: 768
GlyphClass: 1
Flags: W
HStem: 0.000976562 21G<175.999 240 560 624> 256 61.7317<330.633 368 432 469.366> 384.001 64<175.999 368 432 624> 608.001 64<175.999 368 432 624>
VStem: 111.999 64<448.001 608.001> 368 64<315.182 384.001 448.001 608.001> 560 64<0.000976562 165.366> 624 63.999<448.001 608.001>
LayerCount: 2
Fore
SplineSet
175.999023438 608.000976562 m 1xfc
 175.999023438 448.000976562 l 1
 368 448.000976562 l 1
 368 608.000976562 l 1
 175.999023438 608.000976562 l 1xfc
432 608.000976562 m 1
 432 448.000976562 l 1
 624 448.000976562 l 1
 624 608.000976562 l 1xfd
 432 608.000976562 l 1
63.9990234375 160.000976562 m 1
 116.4296875 196.702148438 l 1
 176.487127429 110.906329342 l 1
 183.456278839 216.981779108 264.264317317 302.893984628 368 317.731703037 c 1
 368 384.000976562 l 1
 111.999023438 384.000976562 l 1
 111.999023438 672.000976562 l 1
 687.999023438 672.000976562 l 1
 687.999023438 384.000976562 l 1xfd
 432 384.000976562 l 1
 432 317.731426708 l 1
 540.55287005 302.20374167 623.999518574 208.847437224 623.999999998 96.0009765625 c 2
 624 96 l 1
 624 0.0009765625 l 1
 560 0.0009765625 l 1
 560 96 l 2xfe
 559.999023438 184.365234375 488.365234375 256 399.999023438 256 c 0
 311.633789062 256 240 184.365234375 240 96 c 2
 240 0.0009765625 l 1
 176 0.0009765625 l 1
 175.999023438 0.00237163890733 l 1
 63.9990234375 160.000976562 l 1
EndSplineSet
LCarets2: 6 0 0 0 0 0 0
MultipleSubs2: "CCMP cartouches" t.kepeken cart.body
Ligature2: "LIGA basics" k e p e k e n
EndChar

StartChar: t.kili
Encoding: 127 989466 28
GlifName: t.kili
Width: 768
GlyphClass: 1
Flags: W
HStem: -16 64<291.245 476.752> 464 64<178.702 304.533 461.918 589.01>
VStem: 47.998 64.001<228.016 397.012> 655.998 64<228.016 397.013>
LayerCount: 2
Fore
SplineSet
303.52734375 663.529296875 m 1
 353.256835938 613.80078125 383.32421875 540.323242188 399.999023438 472.000976562 c 1
 434.211914062 500.7265625 482.7109375 527.879882812 527.998046875 528 c 0
 634.037109375 528 719.998046875 442.0390625 719.998046875 336 c 2
 719.998046875 320 l 2
 719.998046875 134.432617188 569.56640625 -16 383.998046875 -16 c 0
 198.430664062 -16 47.998046875 134.432617188 47.998046875 320 c 2
 47.998046875 336 l 2
 47.998046875 442.0390625 133.959960938 528 239.998046875 528 c 0
 272.365234375 527.9140625 308.2109375 511.189453125 335.998046875 496.000976562 c 1
 319.95703125 538.727539062 290.543945312 586.002929688 258.272460938 618.2734375 c 1
 303.52734375 663.529296875 l 1
239.998046875 464 m 0
 169.305664062 464 111.999023438 406.692382812 111.999023438 336 c 2
 111.999023438 320 l 2
 111.999023438 169.779296875 233.77734375 48 383.998046875 48 c 0
 534.219726562 48 655.998046875 169.779296875 655.998046875 320 c 2
 655.998046875 336 l 2
 655.998046875 406.692382812 598.690429688 464.000976562 527.998046875 464 c 0
 483.931640625 464.000976562 423.999023438 440.000976562 407.998046875 384.000976562 c 1
 359.998046875 384.000976562 l 1
 343.998046875 440.000976562 284.065429688 464 239.998046875 464 c 0
EndSplineSet
LCarets2: 3 0 0 0
MultipleSubs2: "CCMP cartouches" t.kili cart.body
Ligature2: "LIGA basics" k i l i
EndChar

StartChar: t.kiwen
Encoding: 128 989467 29
GlifName: t.kiwen
Width: 768
GlyphClass: 1
Flags: W
HStem: 0 21G<367.846 400.154> 544 64<224 544>
LayerCount: 2
Fore
SplineSet
192 608 m 1
 576 608 l 1
 720 416 l 1
 384 0 l 1
 48 416 l 1
 192 608 l 1
224 544 m 1
 129.09375 417.455078125 l 1
 384 101.857421875 l 1
 638.90625 417.455078125 l 1
 544 544 l 1
 224 544 l 1
EndSplineSet
LCarets2: 4 0 0 0 0
MultipleSubs2: "CCMP cartouches" t.kiwen cart.body
Ligature2: "LIGA basics" k i w e n
EndChar

StartChar: t.ko
Encoding: 129 989468 30
GlifName: t.ko
Width: 768
VWidth: 998
GlyphClass: 1
Flags: W
HStem: -30.001 60<209.433 318.688 449.313 558.564> 458.001 60<135.237 226.489 541.503 632.753> 610.001 60<329.501 438.497>
VStem: 34.002 60<311.125 416.76> 105.998 60<73.8171 182.333> 226.064 59.9336<512.634 566.621> 482.002 59.9258<512.634 566.621> 602.002 59.9922<73.4352 182.485> 673.997 59.9922<311.126 416.76>
LayerCount: 2
Fore
SplineSet
384 670.000976562 m 0
 470.680664062 670.000976562 541.572265625 599.243164062 541.927734375 512.633789062 c 1
 554.33203125 515.8125 567.0078125 518.000976562 579.98828125 518.000976562 c 0
 664.684570312 518.000976562 733.989257812 448.696289062 733.989257812 364 c 0
 733.989257812 297.682617188 691.262695312 241.3359375 632.1640625 219.772460938 c 1
 651.034179688 193.399414062 661.994140625 161.561523438 661.994140625 128.000976562 c 0
 661.994140625 41.0947265625 590.897460938 -30.0009765625 503.9921875 -30.0009765625 c 0
 456.879882812 -29.9921875 413.467773438 -8.712890625 384 25.8349609375 c 1
 354.530273438 -8.7158203125 311.118164062 -30.0009765625 264 -30.0009765625 c 0
 177.09375 -30.0009765625 105.998046875 41.0947265625 105.998046875 128.000976562 c 0
 105.997070312 161.559570312 116.951171875 193.399414062 135.8203125 219.772460938 c 1
 76.72265625 241.3359375 34.001953125 297.682617188 34.001953125 364 c 0
 34.001953125 448.696289062 103.299804688 518.000976562 187.99609375 518.000976562 c 0
 200.9765625 518.000976562 213.66015625 515.8125 226.064453125 512.633789062 c 1
 226.41796875 599.243164062 297.311523438 670.000976562 384 670.000976562 c 0
384 610.000976562 m 0
 329.520507812 610.000976562 285.998046875 566.478515625 285.998046875 511.999023438 c 0
 285.998046875 498.077148438 288.966796875 484.3203125 294.701171875 471.634765625 c 0
 296.401367188 467.872070312 297.345703125 463.680664062 297.345703125 459.28515625 c 0
 297.345703125 442.7265625 283.90234375 429.282226562 267.342773438 429.282226562 c 0
 260.049804688 429.282226562 253.360351562 431.890625 248.158203125 436.223632812 c 0
 231.26171875 450.297851562 209.985351562 458.000976562 187.99609375 458.000976562 c 0
 135.725585938 458.000976562 94.001953125 416.26953125 94.001953125 364 c 0
 94.001953125 311.729492188 135.725585938 269.999023438 187.99609375 269.999023438 c 0
 192.032226562 269.999023438 196.06640625 270.262695312 200.072265625 270.78125 c 0
 201.337890625 270.944335938 202.62890625 271.045898438 203.939453125 271.045898438 c 0
 220.498046875 271.045898438 233.942382812 257.6015625 233.942382812 241.04296875 c 0
 233.942382812 229.564453125 227.482421875 219.583007812 218.002929688 214.538085938 c 0
 185.950195312 197.501953125 165.997070312 164.299804688 165.998046875 128.000976562 c 0
 165.998046875 73.521484375 209.520507812 29.9990234375 264 29.9990234375 c 0
 305.077148438 29.9990234375 341.595703125 55.41796875 355.875 93.9404296875 c 0
 360.115234375 105.366210938 371.098632812 113.517578125 383.993164062 113.517578125 c 0
 396.88671875 113.517578125 407.891601562 105.366210938 412.131835938 93.9404296875 c 0
 426.41015625 55.419921875 462.924804688 29.9990234375 504.006835938 29.9990234375 c 0
 558.483398438 30.0029296875 602.001953125 73.5234375 602.001953125 128.000976562 c 0
 602.001953125 164.299804688 582.048828125 197.501953125 549.99609375 214.538085938 c 0
 540.516601562 219.583007812 534.057617188 229.546875 534.057617188 241.025390625 c 0
 534.057617188 257.584960938 547.500976562 271.028320312 564.060546875 271.028320312 c 0
 565.370117188 271.028320312 566.661132812 270.944335938 567.926757812 270.78125 c 0
 571.930664062 270.263671875 575.965820312 269.999023438 580.00390625 269.999023438 c 0
 632.270507812 270.002929688 673.997070312 311.731445312 673.997070312 364 c 0
 673.997070312 416.26953125 632.266601562 458.000976562 579.99609375 458.000976562 c 0
 558.006835938 458.000976562 536.729492188 450.297851562 519.833984375 436.223632812 c 0
 514.6328125 431.896484375 507.9453125 429.307617188 500.657226562 429.307617188 c 0
 484.098632812 429.307617188 470.654296875 442.751953125 470.654296875 459.310546875 c 0
 470.654296875 463.702148438 471.599609375 467.874023438 473.297851562 471.634765625 c 0
 479.032226562 484.3203125 482.000976562 498.078125 482.001953125 511.999023438 c 0
 482.001953125 566.478515625 438.478515625 610.000976562 384 610.000976562 c 0
EndSplineSet
LCarets2: 1 -58
MultipleSubs2: "CCMP cartouches" t.ko cart.body
Ligature2: "LIGA basics" k o
EndChar

StartChar: t.kon
Encoding: 130 989469 31
GlifName: t.kon
Width: 768
GlyphClass: 1
Flags: W
HStem: -16 64<160 245.883 448 533.883> 592 64<234.117 320 522.117 608>
VStem: 120 64<432.053 542.969> 296 64<97.0316 207.948> 408 64<432.053 542.969> 584 64<97.0322 207.948>
LayerCount: 2
Fore
SplineSet
288 656 m 2
 320 656 l 1
 320 592 l 1
 288 592 l 2
 230.5625 592 184 545.4375 184 488 c 0
 184 466.553710938 190.629882812 445.631835938 202.982421875 428.099609375 c 2
 329.3359375 248.759765625 l 2
 349.2890625 220.440429688 360 186.643554688 360 152 c 0
 360 59.216796875 284.784179688 -16 192 -16 c 2
 160 -16 l 1
 160 48 l 1
 192 48 l 2
 249.4375 48.0009765625 296 94.5625 296 152 c 0
 296 173.447265625 289.370117188 194.369140625 277.017578125 211.901367188 c 2
 150.6640625 391.241210938 l 2
 130.7109375 419.560546875 120 453.357421875 120 488 c 0
 120 580.784179688 195.215820312 656 288 656 c 2
576 656 m 2
 608 656 l 1
 608 592 l 1
 576 592 l 2
 518.5625 592 472 545.438476562 472 488.000976562 c 0
 472 466.553710938 478.629882812 445.631835938 490.982421875 428.099609375 c 2
 617.3359375 248.760742188 l 2
 637.2890625 220.440429688 648 186.64453125 648 152.000976562 c 0
 648 59.216796875 572.784179688 -15.9990234375 480 -15.9990234375 c 2
 448 -15.9990234375 l 1
 448 48.0009765625 l 1
 480 48.0009765625 l 2
 537.4375 48.0009765625 584 94.5634765625 584 152.000976562 c 0
 584 173.447265625 577.370117188 194.370117188 565.017578125 211.901367188 c 2
 438.6640625 391.241210938 l 2
 418.7109375 419.560546875 408 453.357421875 408 488.000976562 c 0
 408 580.784179688 483.215820312 656 576 656 c 2
EndSplineSet
LCarets2: 2 -58 -58
MultipleSubs2: "CCMP cartouches" t.kon cart.body
Ligature2: "LIGA basics" k o n
EndChar

StartChar: t.kule
Encoding: 131 989470 32
GlifName: t.kule
Width: 768
GlyphClass: 1
Flags: W
HStem: 0 64.001<152 616> 256.001 64<64 176 280 488 592 704>
LayerCount: 2
Fore
SplineSet
519.999797952 256.000976562 m 1
 248.000202048 256.000976562 l 1
 152 64.0009765625 l 1
 616 64.0009765625 l 1
 519.999797952 256.000976562 l 1
487.999730603 320.000976562 m 1
 384 528 l 1
 280.000269397 320.000976562 l 1
 487.999730603 320.000976562 l 1
64 256.000976562 m 1
 64 320.000976562 l 1
 208.000488281 320.000976562 l 1
 384 672 l 1
 559.999511719 320.000976562 l 1
 704 320.000976562 l 1
 704 256.000976562 l 1
 591.999511719 256.000976562 l 1
 720 0 l 1
 48 0 l 1
 176.000488281 256.000976562 l 1
 64 256.000976562 l 1
EndSplineSet
LCarets2: 3 0 0 0
MultipleSubs2: "CCMP cartouches" t.kule cart.body
Ligature2: "LIGA basics" k u l e
EndChar

StartChar: t.kulupu
Encoding: 132 989471 33
GlifName: t.kulupu
Width: 768
GlyphClass: 1
Flags: W
HStem: 0 64.001<150.172 249.829 518.172 617.829> 240 64.001<150.172 249.829 518.172 617.829> 336 64.001<334.172 433.828> 576 64.001<334.172 433.828>
VStem: 48 64<102.172 201.829> 232 64<438.172 537.829> 288 64<102.172 201.829> 416 64<102.172 201.829> 472 64<438.172 537.829> 656 64<102.172 201.829>
LayerCount: 2
Fore
SplineSet
200 304.000976562 m 0xfa40
 283.891601562 304.000976562 352 235.891601562 352 152 c 0
 352 68.109375 283.891601562 0 200 0 c 0
 116.109375 0 48 68.109375 48 152 c 0
 48 235.891601562 116.109375 304.000976562 200 304.000976562 c 0xfa40
200 240 m 0
 151.431640625 240 112 200.569335938 112 152 c 0
 112 103.431640625 151.431640625 64.0009765625 200 64.0009765625 c 0
 248.568359375 64.0009765625 288 103.431640625 288 152 c 0
 288 200.569335938 248.568359375 240 200 240 c 0
568 304.000976562 m 0
 651.891601562 304.000976562 720 235.891601562 720 152 c 0
 720 68.109375 651.891601562 0 568 0 c 0
 484.109375 0 416 68.109375 416 152 c 0xf940
 416 235.891601562 484.109375 304.000976562 568 304.000976562 c 0
568 240 m 0
 519.431640625 240 480 200.569335938 480 152 c 0
 480 103.431640625 519.431640625 64.0009765625 568 64.0009765625 c 0
 616.568359375 64.0009765625 656 103.431640625 656 152 c 0
 656 200.569335938 616.568359375 240 568 240 c 0
384 640.000976562 m 0
 467.890625 640.000976562 536 571.891601562 536 488 c 0
 536 404.109375 467.890625 336 384 336 c 0
 300.109375 336 232 404.109375 232 488 c 0xfcc0
 232 571.891601562 300.109375 640.000976562 384 640.000976562 c 0
384 576 m 0
 335.431640625 576 296 536.569335938 296 488 c 0
 296 439.431640625 335.431640625 400.000976562 384 400.000976562 c 0
 432.568359375 400.000976562 472 439.431640625 472 488 c 0
 472 536.569335938 432.568359375 576 384 576 c 0
EndSplineSet
LCarets2: 5 -58 -58 -58 -58 -58
MultipleSubs2: "CCMP cartouches" t.kulupu cart.body
Ligature2: "LIGA basics" k u l u p u
EndChar

StartChar: t.kute
Encoding: 133 989472 34
GlifName: t.kute
Width: 768
GlyphClass: 1
Flags: W
HStem: -18.2246 63.1602<255.055 303.069> 428.001 20G<384 448> 592 64<310.291 455.869>
VStem: 384 64<368.128 448.001> 560 64<307.042 487.869>
LayerCount: 2
Fore
SplineSet
384 656 m 0
 516.459960938 656 624 548.459960938 624 416 c 0
 624 197.491210938 463.95703125 15.9599609375 255.0546875 -18.224609375 c 1
 255.0546875 -18.224609375 245.075195312 44.9453125 244.71875 44.935546875 c 1
 423.235351562 74.1474609375 560 229.274414062 560 416 c 0
 560 513.137695312 481.13671875 592 384 592 c 0
 313.395507812 592 252.541015625 550.490234375 224.51171875 490.427734375 c 1
 166.515625 517.4921875 l 1
 204.737304688 599.395507812 287.721679688 656 384 656 c 0
384 448.000976562 m 1
 448 448.000976562 l 1
 448 343.170898438 387.009765625 252.676757812 298.390625 210.071289062 c 0
 298.388671875 210.071289062 270.474609375 267.638671875 270.658203125 267.750976562 c 0
 337.794921875 300.02734375 384 368.583984375 384 448.000976562 c 1
EndSplineSet
LCarets2: 3 0 0 0
MultipleSubs2: "CCMP cartouches" t.kute cart.body
Ligature2: "LIGA basics" k u t e
EndChar

StartChar: t.la
Encoding: 134 989473 35
GlifName: t.la
Width: 768
GlyphClass: 1
Flags: W
VStem: 448 64<219.251 420.75>
LayerCount: 2
Fore
SplineSet
311.87890625 657.111328125 m 1
 431.302734375 591.971679688 512 465.501953125 512 320 c 0
 512 174.498046875 431.302734375 48.029296875 311.87890625 -17.111328125 c 1
 311.87890625 -17.111328125 280.896484375 38.875 281.232421875 39.07421875 c 0
 380.751953125 93.357421875 448 198.749023438 448 320 c 0
 448 441.251953125 380.751953125 546.642578125 281.232421875 600.92578125 c 1
 311.87890625 657.111328125 l 1
EndSplineSet
LCarets2: 1 0
MultipleSubs2: "CCMP cartouches" t.la cart.body
Ligature2: "LIGA basics" l a
EndChar

StartChar: t.lape
Encoding: 135 989474 36
GlifName: t.lape
Width: 768
GlyphClass: 1
Flags: W
HStem: 160 64<507.267 612.478> 288.001 64<48.001 407.579> 416 64<507.267 612.478>
VStem: 656.001 64.001<267.524 372.476>
LayerCount: 2
Fore
SplineSet
560.000976562 416 m 0
 507.017578125 416 464.000976562 372.983398438 464.000976562 320 c 0
 464.000976562 267.016601562 507.017578125 224 560.000976562 224 c 0
 612.985351562 224 656.000976562 267.016601562 656.000976562 320 c 0
 656.000976562 372.983398438 612.985351562 416 560.000976562 416 c 0
48.0009765625 288.000976562 m 1
 48.0009765625 352.000976562 l 1
 403.207594966 352.000976562 l 1
 418.049721665 424.995419893 482.653077425 480 560.000976562 480 c 0
 648.307617188 480 720.001953125 408.306640625 720.001953125 320 c 0
 720.001953125 231.693359375 648.307617188 160 560.000976562 160 c 0
 482.652387556 160 418.048569267 215.005561287 403.207197845 288.000976562 c 1
 48.0009765625 288.000976562 l 1
EndSplineSet
LCarets2: 3 0 0 0
MultipleSubs2: "CCMP cartouches" t.lape cart.body
Ligature2: "LIGA basics" l a p e
EndChar

StartChar: t.laso
Encoding: 136 989475 37
GlifName: t.laso
Width: 768
GlyphClass: 1
Flags: W
HStem: -0 64<239.999 527.999> 320 64<277.264 351.999 415.999 490.734> 576 64<159.999 234.734 533.264 607.999>
VStem: 95.999 64<501.265 576> 351.999 64<284.444 320 384 458.735> 607.999 64<501.265 576>
LayerCount: 2
Fore
SplineSet
383.999023438 224 m 1
 239.999023438 64 l 1
 527.999023438 64 l 1
 383.999023438 224 l 1
95.9990234375 640 m 1
 159.999023438 640 l 2
 253.254882812 639.880859375 351.999023438 584 384 480 c 1
 415.999023438 584 514.743164062 639.87890625 607.999023438 640 c 2
 671.999023438 640 l 1
 671.999023438 576 l 2
 671.999023438 434.615234375 557.383789062 320 415.999023438 320 c 1
 415.999023438 284.444444444 l 1
 671.999023438 -0 l 1
 95.9990234375 -0 l 1
 351.999023438 284.444444445 l 1
 351.999023438 320 l 1
 210.614257812 320 95.9990234375 434.615234375 95.9990234375 576 c 2
 95.9990234375 640 l 1
159.999023438 576 m 1
 159.999023438 469.9609375 245.9609375 384 351.999023438 384 c 1
 351.999023438 490.038085938 266.038085938 576 159.999023438 576 c 1
607.999023438 576 m 1
 501.9609375 576 415.999023438 490.038085938 415.999023438 384 c 1
 522.038085938 384 607.999023438 469.9609375 607.999023438 576 c 1
EndSplineSet
LCarets2: 3 0 0 0
MultipleSubs2: "CCMP cartouches" t.laso cart.body
Ligature2: "LIGA basics" l a s o
EndChar

StartChar: t.lawa
Encoding: 137 989476 38
GlifName: t.lawa
Width: 768
GlyphClass: 1
Flags: W
HStem: 32 64<244.601 395.397> 384 64<153.722 486.276 573.991 719.999> 544 64<242.968 397.512>
VStem: 63.999 64<213.295 378.159> 511.999 64<213.295 288 288.046 384>
LayerCount: 2
Fore
SplineSet
319.999023438 608 m 0
 427.407226562 608 519.34765625 541.864257812 557.317382812 448 c 1
 719.999023438 448 l 1
 719.999023438 384 l 1
 573.991210938 384 l 1
 575.323242188 373.431640625 575.999023438 362.926757812 575.999023438 352 c 2
 575.999023438 288 l 2
 575.999023438 146.709960938 461.2890625 32 319.999023438 32 c 0
 178.708984375 32 64 146.709960938 63.9990234375 288 c 2
 63.9990234375 352 l 2
 64 493.290039062 178.708984375 608 319.999023438 608 c 0
319.999023438 544 m 0
 248.908203125 544 186.911132812 505.484375 153.721679688 448 c 1
 486.276367188 448 l 1
 453.087890625 505.484375 391.090820312 544 319.999023438 544 c 0
130.684570312 384 m 1
 128.916015625 373.536132812 127.999023438 362.963867188 127.999023438 352 c 2
 127.999023438 288 l 2
 127.999023438 182.032226562 214.03125 96 319.999023438 96 c 0
 425.966796875 96 511.999023438 182.032226562 511.999023438 288 c 2
 511.999023438 288 512.00390625 351.822265625 511.999023438 352 c 0
 511.999023438 362.963867188 511.08203125 373.536132812 509.313476562 384 c 1
 130.684570312 384 l 1
EndSplineSet
LCarets2: 3 0 0 0
MultipleSubs2: "CCMP cartouches" t.lawa cart.body
Ligature2: "LIGA basics" l a w a
EndChar

StartChar: t.len
Encoding: 138 989477 39
GlifName: t.len
Width: 768
GlyphClass: 1
Flags: W
HStem: 208 64<191.999 351.999 415.999 575.999> 544 64<191.999 575.999>
VStem: 127.999 64<16 208 272 544> 351.999 64<16 208> 575.999 64<16 208 272 544>
CounterMasks: 1 38
LayerCount: 2
Fore
SplineSet
127.999023438 608 m 1
 639.999023438 608 l 1
 639.999023438 16 l 1
 575.999023438 16 l 1
 575.999023438 208 l 1
 415.999023438 208 l 1
 415.999023438 16 l 1
 351.999023438 16 l 1
 351.999023438 208 l 1
 191.999023438 208 l 1
 191.999023438 16 l 1
 127.999023438 16 l 1
 127.999023438 608 l 1
191.999023438 544 m 1
 191.999023438 272 l 1
 575.999023438 272 l 1
 575.999023438 544 l 1
 191.999023438 544 l 1
EndSplineSet
LCarets2: 2 0 0
MultipleSubs2: "CCMP cartouches" t.len cart.body
Ligature2: "LIGA basics" l e n
EndChar

StartChar: t.lete
Encoding: 139 989478 40
GlifName: t.lete
Width: 768
GlyphClass: 1
Flags: W
HStem: 288.001 64<64 328.573 439.425 704>
LayerCount: 2
Fore
SplineSet
571.711914062 58.873046875 m 1
 516.286132812 26.873046875 l 1
 383.999305346 256.000388253 l 1
 251.711914062 26.8720703125 l 1
 196.286132812 58.8720703125 l 1
 328.573863757 288.000976562 l 1
 64 288.000976562 l 1
 64 352.000976562 l 1
 328.573299939 352.000976562 l 1
 196.286132812 581.12890625 l 1
 251.711914062 613.12890625 l 1
 383.999305346 384.00058831 l 1
 516.286132812 613.127929688 l 1
 571.711914062 581.127929688 l 1
 439.425310754 352.000976562 l 1
 704 352.000976562 l 1
 704 288.000976562 l 1
 439.424746936 288.000976562 l 1
 571.711914062 58.873046875 l 1
EndSplineSet
LCarets2: 3 -58 -58 -58
MultipleSubs2: "CCMP cartouches" t.lete cart.body
Ligature2: "LIGA basics" l e t e
EndChar

StartChar: t.li
Encoding: 140 989479 41
GlifName: t.li
Width: 768
GlyphClass: 1
Flags: W
LayerCount: 2
Fore
SplineSet
192.000976562 656 m 1
 640.000976562 320 l 1
 192.000976562 -16 l 1
 153.600585938 35.19921875 l 1
 533.334960938 320 l 1
 153.599609375 604.80078125 l 1
 192.000976562 656 l 1
EndSplineSet
LCarets2: 1 -58
MultipleSubs2: "CCMP cartouches" t.li cart.body
Ligature2: "LIGA basics" l i
EndChar

StartChar: t.lili
Encoding: 141 989480 42
GlifName: t.lili
Width: 768
GlyphClass: 1
Flags: W
HStem: 208 227.5
LayerCount: 2
Fore
SplineSet
309.249023438 435.5 m 1
 383.999023438 312 l 1
 458.749023438 435.5 l 1
 511.999023438 400 l 1
 383.999023438 208 l 1
 255.999023438 400 l 1
 309.249023438 435.5 l 1
EndSplineSet
LCarets2: 3 0 0 0
MultipleSubs2: "CCMP cartouches" t.lili cart.body
Ligature2: "LIGA basics" l i l i
EndChar

StartChar: t.linja
Encoding: 142 989481 43
GlifName: t.linja
Width: 768
GlyphClass: 1
Flags: W
HStem: 168 64<161.03 272.3> 408 64<495.698 606.968>
VStem: 47.999 64<282.117 432> 655.999 64<208 357.883>
LayerCount: 2
Fore
SplineSet
423.168945312 411.828125 m 2
 455.088867188 449.96484375 502.265625 472 551.999023438 472 c 0
 644.783203125 472 719.999023438 396.784179688 719.999023438 304 c 2
 719.999023438 208 l 1
 655.999023438 208 l 1
 655.999023438 304 l 2
 655.999023438 361.4375 609.436523438 407.999023438 551.999023438 408 c 0
 520.5 408 490.69921875 393.724609375 470.958007812 369.1796875 c 2
 344.829101562 228.171875 l 2
 312.909179688 190.034179688 265.731445312 168 215.999023438 168 c 0
 123.21484375 168 47.9990234375 243.215820312 47.9990234375 336 c 2
 47.9990234375 432 l 1
 111.999023438 432 l 1
 111.999023438 336 l 2
 111.999023438 278.5625 158.561523438 232 215.999023438 232 c 0
 247.498046875 232 277.298828125 246.275390625 297.040039062 270.8203125 c 2
 423.168945312 411.828125 l 2
EndSplineSet
LCarets2: 4 -58 -58 -58 -58
MultipleSubs2: "CCMP cartouches" t.linja cart.body
Ligature2: "LIGA basics" l i n j a
EndChar

StartChar: t.lipu
Encoding: 143 989482 44
GlifName: t.lipu
Width: 768
GlyphClass: 1
Flags: W
HStem: 0 64<192 575.998> 576 64<192 575.998>
VStem: 127.998 64.002<64 576> 575.998 64<64 576>
LayerCount: 2
Fore
SplineSet
127.998046875 640 m 1
 639.998046875 640 l 1
 639.998046875 0 l 1
 127.998046875 0 l 1
 127.998046875 640 l 1
192 576 m 1
 192 64 l 1
 575.998046875 64 l 1
 575.998046875 576 l 1
 192 576 l 1
EndSplineSet
LCarets2: 3 -58 -58 -58
MultipleSubs2: "CCMP cartouches" t.lipu cart.body
Ligature2: "LIGA basics" l i p u
EndChar

StartChar: t.loje
Encoding: 144 989483 45
GlifName: t.loje
Width: 768
GlyphClass: 1
Flags: W
HStem: 0 64<240 528> 352 64<302.638 465.362> 576 64<169.338 598.662>
LayerCount: 2
Fore
SplineSet
384 320 m 1
 672 0 l 1
 96 0 l 1
 384 320 l 1
384 224 m 1
 240 64 l 1
 528 64 l 1
 384 224 l 1
96 640 m 1
 672 640 l 1
 672 480.942382812 543.057617188 352 384 352 c 0
 224.94140625 352 96 480.942382812 96 640 c 1
169.337890625 576 m 1
 197.641601562 481.067382812 284.938476562 416 384 416 c 0
 483.061523438 416 570.358398438 481.067382812 598.662109375 576 c 1
 169.337890625 576 l 1
EndSplineSet
LCarets2: 3 -58 -58 -58
MultipleSubs2: "CCMP cartouches" t.loje cart.body
Ligature2: "LIGA basics" l o j e
EndChar

StartChar: t.lon
Encoding: 145 989484 46
GlifName: t.lon
Width: 768
GlyphClass: 1
Flags: W
HStem: 192 64<64 704> 336.001 111.999<344.403 423.599>
VStem: 328.001 112<352.403 431.598>
LayerCount: 2
Fore
SplineSet
64 192 m 1
 64 256 l 1
 704 256 l 1
 704 192 l 1
 64 192 l 1
328.000976562 392.000976562 m 0
 328.000976562 422.928710938 353.072265625 448 384.000976562 448 c 0
 414.928710938 448 440.000976562 422.928710938 440.000976562 392.000976562 c 0
 440.000976562 361.072265625 414.928710938 336.000976562 384.000976562 336.000976562 c 0
 353.072265625 336.000976562 328.000976562 361.072265625 328.000976562 392.000976562 c 0
EndSplineSet
LCarets2: 2 -58 -58
MultipleSubs2: "CCMP cartouches" t.lon cart.body
Ligature2: "LIGA basics" l o n
EndChar

StartChar: t.luka
Encoding: 146 989485 47
GlifName: t.luka
Width: 768
GlyphClass: 1
Flags: W
HStem: -0.000976562 21G<226.25 304 624 688> 592 63.999<396.04 531.96>
VStem: 240 64<112.969 498.579> 624 64<-0.000976562 498.579>
LayerCount: 2
Fore
SplineSet
464 655.999023438 m 0
 587.62890625 655.999023438 688 555.627929688 688 431.999023438 c 2
 688 -0.0009765625 l 1
 624 -0.0009765625 l 1
 624 431.999023438 l 2
 624 520.305664062 552.306640625 592 464 592 c 0
 375.693359375 591.999023438 304 520.305664062 304 431.999023438 c 2
 304 -0.0009765625 l 1
 240 -0.0009765625 l 1
 64 256 l 1
 116.73828125 292.2578125 l 1
 240 112.96875 l 1
 240 431.999023438 l 2
 240 555.627929688 340.37109375 655.999023438 464 655.999023438 c 0
EndSplineSet
LCarets2: 3 -58 -58 -58
MultipleSubs2: "CCMP cartouches" t.luka cart.body
Ligature2: "LIGA basics" l u k a
EndChar

StartChar: t.lukin
Encoding: 147 989486 48
GlifName: t.lukin
Width: 768
GlyphClass: 1
Flags: W
HStem: 128 64<287.321 480.679> 240 160<336.147 431.853> 448 64<287.321 480.679>
VStem: 304 160<272.147 367.853>
CounterMasks: 1 e0
LayerCount: 2
Fore
SplineSet
384 512 m 0
 449.331054688 512 514.569335938 493.928710938 570.58984375 460.31640625 c 0
 626.610351562 426.704101562 673.256835938 377.64453125 704 320 c 1
 673.256835938 262.35546875 626.610351562 213.295898438 570.58984375 179.68359375 c 0
 514.569335938 146.071289062 449.331054688 128 384 128 c 0
 318.669921875 128 253.430664062 146.069335938 197.41015625 179.681640625 c 0
 141.389648438 213.293945312 94.744140625 262.35546875 64 320 c 1
 94.744140625 377.64453125 141.389648438 426.706054688 197.41015625 460.318359375 c 0
 253.430664062 493.930664062 318.669921875 512 384 512 c 0
384 448 m 0
 330.198242188 448 276.47265625 433.118164062 230.337890625 405.4375 c 0
 194.30859375 383.819335938 162.987304688 354.443359375 138.935546875 320 c 1
 162.987304688 285.556640625 194.30859375 256.1796875 230.337890625 234.5625 c 0
 276.47265625 206.881835938 330.198242188 192 384 192 c 0
 437.801757812 192 491.52734375 206.881835938 537.662109375 234.5625 c 0
 573.69140625 256.1796875 605.012695312 285.556640625 629.064453125 320 c 1
 605.012695312 354.443359375 573.69140625 383.819335938 537.662109375 405.4375 c 0
 491.52734375 433.118164062 437.801757812 448 384 448 c 0
384 400 m 0
 428.153320312 400 464 364.153320312 464 320 c 0
 464 275.846679688 428.153320312 240 384 240 c 0
 339.846679688 240 304 275.846679688 304 320 c 0
 304 364.153320312 339.846679688 400 384 400 c 0
EndSplineSet
LCarets2: 4 -58 -58 -58 -58
MultipleSubs2: "CCMP cartouches" t.lukin cart.body
Ligature2: "LIGA basics" l u k i n
EndChar

StartChar: t.lupa
Encoding: 148 989487 49
GlifName: t.lupa
Width: 768
GlyphClass: 1
Flags: W
HStem: -16 64<308.602 459.398> 620 20G<128 192 576 640>
VStem: 128 64<165.295 640> 576 64<165.295 640>
LayerCount: 2
Fore
SplineSet
384 -16 m 0
 242.709960938 -16 128 98.7099609375 128 240 c 2
 128 640 l 1
 192 640 l 1
 192 240 l 2
 192 134.032226562 278.032226562 48 384 48 c 0
 489.967773438 48 576 134.032226562 576 240 c 2
 576 640 l 1
 640 640 l 1
 640 240 l 2
 640 98.7099609375 525.290039062 -16 384 -16 c 0
EndSplineSet
LCarets2: 3 -58 -58 -58
MultipleSubs2: "CCMP cartouches" t.lupa cart.body
Ligature2: "LIGA basics" l u p a
EndChar

StartChar: t.ma
Encoding: 149 989488 50
GlifName: t.ma
Width: 768
GlyphClass: 1
Flags: W
HStem: -15.999 65.8663<292.06 352 416 475.941> 288.001 64<113.867 352 416 654.135> 590.135 65.8663<292.06 352 416 475.941>
VStem: 48.001 65.8661<228.061 288.001 352.001 411.941> 352 64<49.8672 288.001 352.001 590.135> 654.135 65.8662<228.061 288.001 352.001 411.941>
LayerCount: 2
Fore
SplineSet
352 288.000976562 m 1
 113.86712087 288.000976562 l 1
 128.492764939 163.433000301 227.432157683 64.4933202566 352 49.867235531 c 1
 352 288.000976562 l 1
352 352.000976562 m 1
 352 590.134717594 l 1
 227.432157683 575.508632868 128.492764939 476.568952823 113.86712087 352.000976562 c 1
 352 352.000976562 l 1
416 288.000976562 m 1
 416 49.8670275677 l 1
 540.56806796 64.4923823719 639.508997238 163.432409888 654.134818119 288.000976562 c 1
 416 288.000976562 l 1
416 352.000976562 m 1
 654.134818119 352.000976562 l 1
 639.508997238 476.569543236 540.56806796 575.509570753 416 590.134925557 c 1
 416 352.000976562 l 1
384.000976562 656.000976562 m 0
 569.444335938 656.000976562 720.000976562 505.444335938 720.000976562 320.000976562 c 0
 720.000976562 134.557617188 569.444335938 -15.9990234375 384.000976562 -15.9990234375 c 0
 198.556640625 -15.9990234375 48.0009765625 134.557617188 48.0009765625 320.000976562 c 0
 48.0009765625 505.444335938 198.556640625 656.000976562 384.000976562 656.000976562 c 0
EndSplineSet
LCarets2: 1 -58
MultipleSubs2: "CCMP cartouches" t.ma cart.body
Ligature2: "LIGA basics" m a
EndChar

StartChar: t.mama
Encoding: 150 989489 51
GlifName: t.mama
Width: 768
GlyphClass: 1
Flags: W
HStem: -32 64<344.969 423.029> 144 64<344.41 423.589> 592 64<277.264 490.734>
VStem: 95.999 64<325.639 475.431> 263.999 64.001<48.9698 127.659> 439.999 64<48.9698 127.659> 607.999 64<325.639 475.431>
LayerCount: 2
Fore
SplineSet
383.999023438 144 m 0
 353.092773438 144 328 118.907226562 328 88 c 0
 328 57.0927734375 353.091796875 32 383.999023438 32 c 0
 414.90625 32 439.999023438 57.0927734375 439.999023438 88 c 0
 439.999023438 118.907226562 414.90625 144 383.999023438 144 c 0
351.999023438 656 m 2
 415.999023438 656 l 2
 557.384765625 656 671.999023438 541.384765625 671.999023438 400 c 0
 671.999023438 282.399452078 592.703146272 183.319468859 484.661230714 153.312325959 c 1
 496.891320012 134.512121624 503.999023438 112.079526852 503.999023438 88 c 0
 503.999023438 21.7705078125 450.229492188 -32 383.999023438 -32 c 0
 317.76953125 -32 263.999023438 21.7705078125 263.999023438 88 c 0
 263.999023438 112.079543269 271.106865646 134.512152212 283.337087645 153.312364413 c 1
 175.295781785 183.319553504 95.9990234375 282.399502312 95.9990234375 400 c 0
 96 541.384765625 210.614257812 656 351.999023438 656 c 2
351.999023438 592 m 2
 245.9609375 592 159.999023438 506.0390625 159.999023438 400 c 0
 159.999023438 293.9609375 245.9609375 208 351.999023438 208 c 2
 383.999023438 208 l 1
 415.999023438 208 l 2
 522.038085938 208 607.999023438 293.9609375 607.999023438 400 c 0
 607.999023438 506.0390625 522.038085938 592 415.999023438 592 c 2
 351.999023438 592 l 2
EndSplineSet
LCarets2: 3 0 0 0
MultipleSubs2: "CCMP cartouches" t.mama cart.body
Ligature2: "LIGA basics" m a m a
EndChar

StartChar: t.mani
Encoding: 151 989490 52
GlifName: t.mani
Width: 768
GlyphClass: 1
Flags: W
HStem: 0 64<302.803 465.197> 496 64<302.77 465.231> 620 20G<63.998 128.001 640.001 704.001>
VStem: 63.998 64.0029<551.439 640> 104 64<198.803 360.629> 600 64<198.803 360.629> 640.001 64<551.439 640>
LayerCount: 2
Fore
SplineSet
384 496 m 0xec
 264.787109375 496 168 399.213867188 168 280 c 0
 168.000976562 160.786132812 264.787109375 64 384 64 c 0
 503.213867188 64 600 160.786132812 600 280 c 0
 600 399.213867188 503.213867188 496 384 496 c 0xec
640.000976562 640 m 1xf2
 704.000976562 640 l 1xf2
 704.000976562 558.101070092 673.190635701 483.291692944 622.510845241 426.660765646 c 1
 648.817761945 383.996884744 664 333.75744306 664 280 c 0
 664 125.463867188 538.536132812 0 384 0 c 0
 229.463867188 0 104 125.463867188 104 280 c 0xec
 104 333.756943701 119.181955997 383.995951384 145.488421658 426.659576715 c 1
 94.8087084226 483.290645891 63.998046875 558.100496952 63.998046875 640 c 1
 63.998046875 640 128.000976562 639.92578125 128.000976562 640 c 1
 128.000976562 578.508054993 149.729075143 521.990424465 185.919442778 477.821458248 c 1
 236.612655381 528.580561262 306.666099276 560 384 560 c 0
 461.334180736 560 531.387851921 528.580333733 582.081107875 477.820906878 c 1
 618.271901132 521.989954117 640.000976562 578.50779912 640.000976562 640 c 1xf2
EndSplineSet
LCarets2: 3 -58 -58 -58
MultipleSubs2: "CCMP cartouches" t.mani cart.body
Ligature2: "LIGA basics" m a n i
EndChar

StartChar: t.meli
Encoding: 152 989491 53
GlifName: t.meli
Width: 768
GlyphClass: 1
Flags: W
HStem: 80 64<240.002 352.001 416.001 528.001> 226.273 61.7271<314.661 352.001 416.001 453.342> 608 64<316.041 451.962>
VStem: 160.002 64<378.024 515.96> 352.001 64<-32 80 144 228.966> 544.002 64<378.024 515.96>
LayerCount: 2
Fore
SplineSet
384.001953125 672 m 0
 507.630859375 672 608.001953125 571.62890625 608.001953125 448 c 0
 608.001953125 335.234454336 524.495227649 241.818939553 416.000976562 226.272655517 c 1
 416.000976562 144 l 1
 528.000976562 144 l 1
 528.000976562 80 l 1
 416.000976562 80 l 1
 416.000976562 -32 l 1
 352.000976562 -32 l 1
 352.000976562 80 l 1
 240.001953125 80 l 1
 240.001953125 144 l 1
 352.000976562 144 l 1
 352.000976562 226.272935392 l 1
 243.507676404 241.820060673 160.001953125 335.23513101 160.001953125 448 c 0
 160.001953125 571.62890625 260.373046875 672 384.001953125 672 c 0
384.001953125 608 m 0
 295.6953125 608 224.001953125 536.306640625 224.001953125 448 c 0
 224.001953125 359.693359375 295.6953125 288 384.001953125 288 c 0
 472.307617188 288 544.001953125 359.693359375 544.001953125 448 c 0
 544.001953125 536.306640625 472.307617188 608 384.001953125 608 c 0
EndSplineSet
LCarets2: 3 -58 -58 -58
MultipleSubs2: "CCMP cartouches" t.meli cart.body
Ligature2: "LIGA basics" m e l i
EndChar

StartChar: t.mi
Encoding: 153 989492 54
GlifName: t.mi
Width: 768
GlyphClass: 1
Flags: W
HStem: 319.995 64.001<328.082 438.988> 591.996 63.999<329.048 438.987>
VStem: 216.059 63.9775<438.636 541.878> 488.036 63.9658<433.027 542.964>
LayerCount: 2
Fore
SplineSet
216.05859375 480.21875 m 2
 215.998046875 487.995117188 l 2
 215.998046875 580.779296875 291.213867188 655.995117188 383.998046875 655.995117188 c 0
 476.786132812 655.995117188 552.001953125 580.779296875 552.001953125 487.995117188 c 0
 552.001953125 395.211914062 476.786132812 319.995117188 384.001953125 319.995117188 c 0
 351.822265625 319.995117188 320.319335938 329.237304688 293.240234375 346.623046875 c 1
 315.157226562 229.651367188 363.8046875 117.6328125 435.234375 22.4052734375 c 1
 384.033203125 -15.994140625 l 1
 277.473632812 126.068359375 217.754882812 302.653320312 216.05859375 480.21875 c 2
384.036132812 591.99609375 m 0
 326.598632812 591.99609375 280.036132812 545.432617188 280.036132812 487.995117188 c 0
 280.036132812 430.557617188 326.598632812 383.99609375 384.036132812 383.99609375 c 0
 441.473632812 383.99609375 488.036132812 430.557617188 488.036132812 487.995117188 c 0
 488.036132812 545.43359375 441.473632812 591.99609375 384.036132812 591.99609375 c 0
EndSplineSet
LCarets2: 1 0
MultipleSubs2: "CCMP cartouches" t.mi cart.body
Ligature2: "LIGA basics" m i
EndChar

StartChar: t.mije
Encoding: 154 989493 55
GlifName: t.mije
Width: 768
GlyphClass: 1
Flags: W
HStem: -15.999 64<204.041 339.961> 368.001 64<204.041 341.557> 576.001 64<384.002 594.748>
VStem: 48.001 64<140.041 275.961> 432.001 64<140.041 277.557> 640.002 63.999<320.001 530.747>
LayerCount: 2
Fore
SplineSet
272.000976562 368.000976562 m 0
 183.6953125 368.000976562 112.000976562 296.307617188 112.000976562 208.000976562 c 0
 112.000976562 119.694335938 183.6953125 48.0009765625 272.000976562 48.0009765625 c 0
 360.307617188 48.0009765625 432.000976562 119.694335938 432.000976562 208.000976562 c 0
 432.000976562 296.307617188 360.307617188 368.000976562 272.000976562 368.000976562 c 0
384.001953125 640.000976562 m 1
 704.000976562 640.000976562 l 1
 704.000976562 608.000976562 l 1
 704.000976562 576.000976562 l 1
 704.000976562 320.000976562 l 1
 640.001953125 320.000976562 l 1
 640.001953125 530.747070312 l 1
 451.375748921 342.12171352 l 1
 479.396324891 304.721553328 496.000976562 258.285065218 496.000976562 208.000976562 c 0
 496.000976562 84.3720703125 395.629882812 -15.9990234375 272.000976562 -15.9990234375 c 0
 148.372070312 -15.9990234375 48.0009765625 84.3720703125 48.0009765625 208.000976562 c 0
 48.0009765625 331.629882812 148.372070312 432.000976562 272.000976562 432.000976562 c 0
 322.285348512 432.000976562 368.722076561 415.396137794 406.12234564 387.375275328 c 1
 594.748046875 576.000976562 l 1
 384.001953125 576.000976562 l 1
 384.001953125 640.000976562 l 1
EndSplineSet
LCarets2: 3 -58 -58 -58
MultipleSubs2: "CCMP cartouches" t.mije cart.body
Ligature2: "LIGA basics" m i j e
EndChar

StartChar: t.moku
Encoding: 155 989494 56
GlifName: t.moku
Width: 768
GlyphClass: 1
Flags: W
HStem: 0 21G<178 256.001 576 640.001> 272 64<348.012 483.988> 384 64<347.322 484.679> 576 64<259.201 572.8>
VStem: 192 64<111.602 178.611> 576 64.001<0.000976562 178.612>
LayerCount: 2
Fore
SplineSet
80 160 m 1
 132.4296875 196.701171875 l 1
 192 111.601986864 l 1
 192 112 l 2
 192.000000002 235.712441834 292.288411458 336 416 336 c 0
 539.711588542 336 639.999472227 235.712441834 639.999999998 112.000976562 c 2
 640.000976562 0.0009765625 l 1
 576 0.0009765625 l 1
 576 112 l 2
 575.999023438 200.365234375 504.365234375 272 416 272 c 0
 327.635091146 272 256.000527778 200.365762152 256.000000003 112.000976562 c 2
 256.000976562 0 l 1
 192 0 l 1
 80 160 l 1
259.201171875 576 m 1
 274.026367188 502.96875 338.59375 448 416 448 c 0
 493.407226562 448 557.974609375 502.96875 572.799804688 576 c 1
 259.201171875 576 l 1
192 640 m 1
 640 640 l 1
 640 608 l 2
 640 484.288085938 539.711914062 384 416 384 c 0
 292.288085938 384 192 484.288085938 192 608 c 2
 192 640 l 1
EndSplineSet
LCarets2: 3 -58 -58 -58
MultipleSubs2: "CCMP cartouches" t.moku cart.body
Ligature2: "LIGA basics" m o k u
EndChar

StartChar: t.moli
Encoding: 156 989495 57
GlifName: t.moli
Width: 768
GlyphClass: 1
Flags: W
HStem: -16 64<291.289 476.712> 592 64<291.289 476.712>
VStem: 48 64.001<227.289 412.711> 656.001 63.999<227.289 412.711>
LayerCount: 2
Fore
SplineSet
384 656 m 0
 569.444335938 656 720 505.443359375 720 320 c 0
 720 134.556640625 569.444335938 -16 384 -16 c 0
 198.556640625 -16 48 134.556640625 48 320 c 0
 48 505.443359375 198.556640625 656 384 656 c 0
384 592 m 0
 233.879882812 592 112.000976562 470.12109375 112.000976562 320 c 0
 112.000976562 169.87890625 233.879882812 48 384 48 c 0
 534.12109375 48 656.000976562 169.87890625 656.000976562 320 c 0
 656.000976562 470.12109375 534.12109375 592 384 592 c 0
189.25390625 432 m 1
 256 360 l 1
 322.745117188 432 l 1
 368.000976562 386.74609375 l 1
 296.000976562 320 l 1
 368.000976562 253.25390625 l 1
 322.745117188 208 l 1
 256 280 l 1
 189.25390625 208 l 1
 144 253.25390625 l 1
 216 320 l 1
 144 386.74609375 l 1
 189.25390625 432 l 1
445.25390625 432 m 1
 512 360 l 1
 578.745117188 432 l 1
 624 386.74609375 l 1
 552 320 l 1
 624 253.25390625 l 1
 578.745117188 208 l 1
 512 280 l 1
 445.25390625 208 l 1
 400 253.25390625 l 1
 472 320 l 1
 400 386.74609375 l 1
 445.25390625 432 l 1
EndSplineSet
LCarets2: 3 -58 -58 -58
MultipleSubs2: "CCMP cartouches" t.moli cart.body
Ligature2: "LIGA basics" m o l i
EndChar

StartChar: t.monsi
Encoding: 157 989496 58
GlifName: t.monsi
Width: 768
GlyphClass: 1
Flags: W
HStem: -0 64<384.001 576.001> 264 112<184.403 263.599> 575.998 64.002<384.001 576.001>
VStem: 168.001 112<280.402 359.598> 320.001 64<64 575.998>
LayerCount: 2
Fore
SplineSet
576.000976562 63.998046875 m 1
 576.000976562 -0 l 1
 320.000976562 -0 l 1
 320.000976562 640 l 1
 576.000976562 640 l 1
 576.000976562 575.998046875 l 1
 384.000976562 575.998046875 l 1
 384.000976562 64 l 1
 576.000976562 63.998046875 l 1
224.000976562 376 m 0
 254.928710938 376 280.000976562 350.928710938 280.000976562 320 c 0
 280.000976562 289.072265625 254.928710938 264 224.000976562 264 c 0
 193.072265625 264 168.000976562 289.072265625 168.000976562 320 c 0
 168.000976562 350.928710938 193.072265625 376 224.000976562 376 c 0
EndSplineSet
LCarets2: 4 -58 -58 -58 -58
MultipleSubs2: "CCMP cartouches" t.monsi cart.body
Ligature2: "LIGA basics" m o n s i
EndChar

StartChar: t.mu
Encoding: 158 989497 59
GlifName: t.mu
Width: 768
GlyphClass: 1
Flags: W
HStem: -16 64<305.858 462.145> 88 112<344.403 423.599> 448 64<319.951 448.05> 592 64<139.308 228.695 539.308 628.695>
VStem: 48.001 64<474.843 564.694> 120.001 64<169.857 326.683> 256.001 64<504.815 564.694> 328.001 112<104.402 183.598> 448.001 64<504.815 564.694> 584.001 64<169.857 326.683> 656.001 64<474.843 564.694>
LayerCount: 2
Fore
SplineSet
328.000976562 144 m 0
 328.000976562 174.927734375 353.073242188 200 384.000976562 200 c 0
 414.928710938 200 440.000976562 174.927734375 440.000976562 144 c 0
 440.000976562 113.072265625 414.928710938 88 384.000976562 88 c 0
 353.073242188 88 328.000976562 113.072265625 328.000976562 144 c 0
184.000976562 656 m 0
 259.061523438 656 320.000976562 595.060546875 320.000976562 520 c 0
 320.000976562 514.499023438 319.678710938 509.213867188 319.041992188 503.8828125 c 1
 339.859375 509.16796875 361.55078125 512 384.000976562 512 c 0
 406.451171875 512 428.142578125 509.166992188 448.958007812 503.8828125 c 1
 448.323242188 509.209960938 448.000976562 514.502929688 448.000976562 520 c 0
 448.000976562 595.060546875 508.94140625 656 584.000976562 656 c 0
 659.061523438 656 720.000976562 595.060546875 720.000976562 520 c 0
 720.000976562 453.4765625 672.020507812 398.04296875 608.879882812 386.294921875 c 1
 633.583007812 346.125976562 648.000976562 298.573242188 648.000976562 248 c 0
 648.000976562 102.294921875 529.70703125 -16 384.000976562 -16 c 0
 238.295898438 -16 120.000976562 102.294921875 120.000976562 248 c 0
 120.000976562 298.57421875 134.419921875 346.125976562 159.122070312 386.294921875 c 1
 95.982421875 398.04296875 48.0009765625 453.4765625 48.0009765625 520 c 0
 48.0009765625 595.060546875 108.94140625 656 184.000976562 656 c 0
184.000976562 592 m 0
 144.263671875 592 112.000976562 559.73828125 112.000976562 520 c 0
 112.000976562 480.262695312 144.263671875 448 184.000976562 448 c 0
 223.739257812 448 256.000976562 480.262695312 256.000976562 520 c 0
 256.000976562 559.73828125 223.739257812 592 184.000976562 592 c 0
584.000976562 592 m 0
 544.263671875 592 512.000976562 559.73828125 512.000976562 520 c 0
 512.000976562 480.262695312 544.263671875 448 584.000976562 448 c 0
 623.739257812 448 656.000976562 480.262695312 656.000976562 520 c 0
 656.000976562 559.73828125 623.739257812 592 584.000976562 592 c 0
384.000976562 448 m 0
 273.618164062 448 184.000976562 358.3828125 184.000976562 248 c 0
 184.000976562 137.6171875 273.618164062 48 384.000976562 48 c 0
 494.384765625 48 584.000976562 137.6171875 584.000976562 248 c 0
 584.000976562 358.3828125 494.384765625 448 384.000976562 448 c 0
EndSplineSet
LCarets2: 1 -58
MultipleSubs2: "CCMP cartouches" t.mu cart.body
Ligature2: "LIGA basics" m u
EndChar

StartChar: t.mun
Encoding: 159 989498 60
GlifName: t.mun
Width: 768
GlyphClass: 1
Flags: W
HStem: -16 64<259.178 444.754> 592 64<259.177 444.754>
VStem: 352 64.001<244.39 395.61> 624.001 63.999<227.247 412.753>
LayerCount: 2
Fore
SplineSet
159.333984375 128.001953125 m 2
 160 128 l 2
 266.0390625 128 352 213.961914062 352 320 c 0
 352 426.038085938 266.0390625 512 160 512 c 0
 159.778320312 512 159.557617188 511.999023438 159.333984375 511.998046875 c 0
 123.48046875 511.874023438 88.376953125 501.712890625 58 482.666015625 c 1
 77.255859375 517.467773438 102.536132812 548.57421875 132.666015625 574.537109375 c 0
 193.65625 627.091796875 271.490234375 656 352 656 c 0
 537.568359375 656 688 505.567382812 688 320 c 0
 688 134.432617188 537.568359375 -16 352 -16 c 0
 271.4921875 -15.9970703125 193.66015625 12.9130859375 132.672851562 65.46875 c 0
 102.541015625 91.4296875 77.2578125 122.534179688 58 157.333984375 c 1
 88.376953125 138.287109375 123.48046875 128.126953125 159.333984375 128.001953125 c 2
352 592 m 0
 311.14453125 592 270.8125 582.796875 234.000976562 565.072265625 c 1
 342.064453125 532.442382812 416.000976562 432.881835938 416.000976562 320 c 0
 416.000976562 207.1171875 342.064453125 107.557617188 234.000976562 74.927734375 c 1
 270.8125 57.203125 311.14453125 48 352 48 c 0
 502.221679688 48 624.000976562 169.778320312 624.000976562 320 c 0
 624.000976562 470.221679688 502.221679688 592 352 592 c 0
EndSplineSet
LCarets2: 2 0 0
MultipleSubs2: "CCMP cartouches" t.mun cart.body
Ligature2: "LIGA basics" m u n
EndChar

StartChar: t.musi
Encoding: 160 989499 61
GlifName: t.musi
Width: 768
GlyphClass: 1
Flags: W
HStem: -16 64<313.174 454.842> 592 64<139.307 228.694 539.307 628.694>
VStem: 48 64<474.282 564.694> 152 64.001<147.042 392.858> 256 64<474.282 564.694> 448 64.001<474.282 564.694> 552 64.001<146.691 392.858> 656.001 64<474.282 564.694>
LayerCount: 2
Fore
SplineSet
184 592 m 0
 144.262695312 592 112 559.73828125 112 520 c 0
 112 480.26171875 144.262695312 448 184 448 c 0
 223.73828125 448 256 480.26171875 256 520 c 0
 256 559.73828125 223.73828125 592 184 592 c 0
584.000976562 656 m 0
 659.061523438 656 720 595.060546875 720.000976562 520 c 0
 720.000976562 455.959911739 675.64226251 402.198772954 616.000976562 387.792725804 c 1
 616.000976562 215.524414062 l 2
 615.742493135 87.6977700367 511.885380882 -16 384 -16 c 0
 255.956054688 -16 152 87.955078125 152 216 c 2
 152.000976562 387.79256555 l 1
 92.3597538827 402.198374255 48 455.959674275 48 520 c 0
 48 595.060546875 108.940429688 656 184 656 c 0
 259.060546875 656 320 595.060546875 320 520 c 0
 320 455.960261269 275.641770164 402.19935981 216.000976562 387.792961691 c 1
 216.000976562 215.524414062 l 2
 216.257544597 123.021046931 291.436900077 48 384 48 c 0
 476.721679688 48 552 123.278320312 552 216 c 2
 552.000976562 387.792712043 l 1
 492.359453156 402.198738718 448 455.959891348 448 520 c 0
 448 595.060546875 508.940429688 656 584.000976562 656 c 0
584.000976562 592 m 0
 544.262695312 592 512.000976562 559.73828125 512.000976562 520 c 0
 512.000976562 480.26171875 544.262695312 448 584.000976562 448 c 0
 623.73828125 448 656.000976562 480.26171875 656.000976562 520 c 0
 656.000976562 559.73828125 623.73828125 592 584.000976562 592 c 0
EndSplineSet
LCarets2: 3 0 0 0
MultipleSubs2: "CCMP cartouches" t.musi cart.body
Ligature2: "LIGA basics" m u s i
EndChar

StartChar: t.mute
Encoding: 161 989500 62
GlifName: t.mute
Width: 768
GlyphClass: 1
Flags: W
HStem: -0 21G<128 192 352 416 576 640> 620 20G<128 192 352 416 576 640>
VStem: 128 64<0 640> 352 64<0 640> 576 64<0 640>
CounterMasks: 1 38
LayerCount: 2
Fore
SplineSet
128 -0 m 1
 128 640 l 1
 192 640 l 1
 192 -0 l 1
 128 -0 l 1
352 -0 m 1
 352 640 l 1
 416 640 l 1
 416 -0 l 1
 352 -0 l 1
576 -0 m 1
 576 640 l 1
 640 640 l 1
 640 -0 l 1
 576 -0 l 1
EndSplineSet
LCarets2: 3 -58 -58 -58
MultipleSubs2: "CCMP cartouches" t.mute cart.body
Ligature2: "LIGA basics" m u t e
EndChar

StartChar: t.nanpa
Encoding: 162 989501 63
GlifName: t.nanpa
Width: 768
GlyphClass: 1
Flags: W
HStem: 144 64<48.001 224.001 288.001 480.001 544.001 720.001> 400 64<48.001 224.001 288.001 480.001 544.001 720.001>
VStem: 224.001 64<-16 144 208 400 464 656> 480.001 64<-16 144 208 400 464 656>
LayerCount: 2
Fore
SplineSet
480.000976562 400 m 1
 288.000976562 400 l 1
 288.000976562 208 l 1
 480.000976562 208 l 1
 480.000976562 400 l 1
544.000976562 464 m 1
 720.000976562 464 l 1
 720.000976562 400 l 1
 544.000976562 400 l 1
 544.000976562 208 l 1
 720.000976562 208 l 1
 720.000976562 144 l 1
 544.000976562 144 l 1
 544.000976562 -16 l 1
 480.000976562 -16 l 1
 480.000976562 144 l 1
 288.000976562 144 l 1
 288.000976562 -16 l 1
 224.000976562 -16 l 1
 224.000976562 144 l 1
 48.0009765625 144 l 1
 48.0009765625 208 l 1
 224.000976562 208 l 1
 224.000976562 400 l 1
 48.0009765625 400 l 1
 48.0009765625 464 l 1
 224.000976562 464 l 1
 224.000976562 656 l 1
 288.000976562 656 l 1
 288.000976562 464 l 1
 480.000976562 464 l 1
 480.000976562 656 l 1
 544.000976562 656 l 1
 544.000976562 464 l 1
EndSplineSet
LCarets2: 4 -58 -58 -58 -58
MultipleSubs2: "CCMP cartouches" t.nanpa cart.body
Ligature2: "LIGA basics" n a n p a
EndChar

StartChar: t.nasa
Encoding: 163 989502 64
GlifName: t.nasa
Width: 768
GlyphClass: 1
Flags: W
HStem: 56 64<377.857 534.144> 200 64<416.97 495.031> 448 64<322.728 445.272> 592 64<291.289 476.711>
VStem: 48 64.001<213.146 412.711> 192 64.001<242.182 380.991> 336 64.001<280.97 370.048> 512.001 63.999<280.97 381.272> 656.001 63.999<241.857 412.711>
LayerCount: 2
Fore
SplineSet
371.147460938 404.853515625 m 1
 416.403320312 359.59765625 l 1
 406.266601562 349.4609375 400.000976562 335.453125 400.000976562 320 c 0
 400.000976562 289.092773438 425.09375 264 456 264 c 0
 486.907226562 264 512.000976562 289.092773438 512.000976562 320 c 0
 512.000976562 390.645507812 454.645507812 448 384 448 c 0
 313.35546875 448 256.000976562 390.64453125 256.000976562 320 c 1
 192 320 l 1
 192 320 256.000976562 319.999023438 256.000976562 320 c 1
 256.000976562 209.6171875 345.6171875 120 456 120 c 0
 566.3828125 120 656.000976562 209.6171875 656.000976562 320 c 0
 656.000976562 470.12109375 534.12109375 592 384 592 c 0
 233.879882812 592 112.000976562 470.12109375 112.000976562 320 c 0
 112.000976562 206.314453125 166.967773438 105.608398438 252.077148438 42.9609375 c 1
 224.137695312 -15.712890625 l 1
 117.522460938 57.921875 48 180.744140625 48 320 c 0
 48 505.443359375 198.556640625 656 384 656 c 0
 569.443359375 656 720 505.443359375 720 320 c 0
 720 174.294921875 601.706054688 56 456 56 c 0
 310.294921875 56 192 174.294921875 192 320 c 0
 192 425.967773438 278.033203125 512 384 512 c 0
 489.967773438 512 576 425.967773438 576 320 c 0
 576 253.770507812 522.23046875 200 456 200 c 0
 389.770507812 200 336 253.770507812 336 320 c 0
 336 353.114257812 349.42578125 383.131835938 371.147460938 404.853515625 c 1
EndSplineSet
LCarets2: 3 -58 -58 -58
MultipleSubs2: "CCMP cartouches" t.nasa cart.body
Ligature2: "LIGA basics" n a s a
EndChar

StartChar: t.nasin
Encoding: 164 989503 65
GlifName: t.nasin
Width: 768
GlyphClass: 1
Flags: W
HStem: 0 21G<351.999 415.999> 620 20G<351.999 415.999>
VStem: 351.999 64<0 370.744 461.256 640>
LayerCount: 2
Fore
SplineSet
640 237.254882812 m 1
 594.74609375 192 l 1
 415.999023438 370.746388449 l 1
 415.999023438 0 l 1
 351.999023438 0 l 1
 351.999023438 370.744140626 l 1
 173.254882812 192 l 1
 128 237.254882812 l 1
 338.745117188 448 l 1
 351.999023438 461.25390625 l 1
 351.999023438 640 l 1
 415.999023438 640 l 1
 415.999023438 461.255859374 l 1
 429.254882812 448 l 1
 640 237.254882812 l 1
EndSplineSet
LCarets2: 4 0 0 0 0
MultipleSubs2: "CCMP cartouches" t.nasin cart.body
Ligature2: "LIGA basics" n a s i n
EndChar

StartChar: t.nena
Encoding: 165 989504 66
GlifName: t.nena
Width: 768
GlyphClass: 1
Flags: W
HStem: 0 21G<128 192 576 640> 592 64<308.602 459.398>
VStem: 128 64<0 474.705> 576 64<0 474.705>
LayerCount: 2
Fore
SplineSet
384 656 m 0
 525.290039062 656 640 541.291015625 640 400 c 2
 640 0 l 1
 576 0 l 1
 576 400 l 2
 576 505.967773438 489.967773438 592 384 592 c 0
 278.032226562 592 192 505.967773438 192 400 c 2
 192 0 l 1
 128 0 l 1
 128 400 l 2
 128 541.291015625 242.709960938 656 384 656 c 0
EndSplineSet
LCarets2: 3 -58 -58 -58
MultipleSubs2: "CCMP cartouches" t.nena cart.body
Ligature2: "LIGA basics" n e n a
EndChar

StartChar: t.ni
Encoding: 166 989505 67
GlifName: t.ni
Width: 768
GlyphClass: 1
Flags: W
HStem: 620 20G<351.999 415.998>
VStem: 351.999 63.999<106.51 640>
LayerCount: 2
Fore
SplineSet
351.999023438 640 m 1
 415.998046875 640 l 1
 415.998046875 106.509765625 l 1
 594.744140625 285.25390625 l 1
 639.999023438 240 l 1
 429.252929688 29.255859375 l 1
 383.998046875 -16 l 1
 338.7421875 29.255859375 l 1
 127.998046875 240 l 1
 173.251953125 285.255859375 l 1
 351.999023438 106.509765625 l 1
 351.999023438 640 l 1
EndSplineSet
LCarets2: 2 0 0
Ligature2: "LIGA alternates" t.ni zero one
MultipleSubs2: "CCMP cartouches" t.ni cart.body
Ligature2: "LIGA basics" n i
EndChar

StartChar: t.nimi
Encoding: 167 989506 68
GlifName: t.nimi
Width: 768
GlyphClass: 1
Flags: W
HStem: 192 64<101.661 666.34> 384 64<101.661 666.34>
VStem: 32.001 64<261.66 378.339> 672.001 64<261.66 378.339>
LayerCount: 2
Fore
SplineSet
128.000976562 448 m 2
 640.000976562 448 l 2
 693.184570312 448 736.000976562 405.18359375 736.000976562 352 c 2
 736.000976562 288 l 2
 736.000976562 234.815429688 693.184570312 192 640.000976562 192 c 2
 128.000976562 192 l 2
 74.81640625 192 32.0009765625 234.815429688 32.0009765625 288 c 2
 32.0009765625 352 l 2
 32.0009765625 405.18359375 74.81640625 448 128.000976562 448 c 2
128.000976562 384 m 2
 110.272460938 384 96.0009765625 369.727539062 96.0009765625 352 c 2
 96.0009765625 288 l 2
 96.0009765625 270.271484375 110.272460938 256 128.000976562 256 c 2
 640.000976562 256 l 2
 657.728515625 256 672.000976562 270.271484375 672.000976562 288 c 2
 672.000976562 352 l 2
 672.000976562 369.727539062 657.728515625 384 640.000976562 384 c 2
 128.000976562 384 l 2
EndSplineSet
LCarets2: 3 -58 -58 -58
MultipleSubs2: "CCMP cartouches" t.nimi cart.body
Ligature2: "LIGA basics" n i m i
EndChar

StartChar: t.noka
Encoding: 168 989507 69
GlifName: t.noka
Width: 768
GlyphClass: 1
Flags: W
HStem: 0 64<95.874 96.001 160.001 563.295> 256 64<384.001 563.295> 620 20G<96.001 160.001 320.001 384.001>
VStem: 96.001 64<64 640> 320.001 64<320 640> 608.001 64<107.524 212.476>
LayerCount: 2
Fore
SplineSet
320.000976562 256 m 1
 320.000976562 640 l 1
 384.000976562 640 l 1
 384.000976562 320 l 1
 512.000976562 320 l 2
 600.307617188 320 672.000976562 248.306640625 672.000976562 160 c 0
 672.000976562 71.693359375 600.307617188 -0 512.000976562 0 c 2
 95.8740234375 0 l 1
 95.8740234375 64 l 1
 96.0009765625 64 l 1
 96.0009765625 640 l 1
 160.000976562 640 l 1
 160.000976562 64 l 1
 512.000976562 64 l 2
 564.985351562 64 608.000976562 107.016601562 608.000976562 160 c 0
 608.000976562 212.983398438 564.985351562 256 512.000976562 256 c 2
 384.000976562 256 l 1
 320.000976562 256 l 1
EndSplineSet
LCarets2: 3 -58 -58 -58
MultipleSubs2: "CCMP cartouches" t.noka cart.body
Ligature2: "LIGA basics" n o k a
EndChar

StartChar: t.o
Encoding: 169 989508 70
GlifName: t.o
Width: 768
GlyphClass: 1
Flags: W
HStem: -16 64<334.173 433.829> 224 64<334.173 433.829>
VStem: 232.001 64<86.1716 185.828> 352.001 64<352 656> 472.001 64<86.1716 185.828>
CounterMasks: 1 38
LayerCount: 2
Fore
SplineSet
352.000976562 352 m 1
 352.000976562 656 l 1
 416.000976562 656 l 1
 416.000976562 352 l 1
 352.000976562 352 l 1
384.000976562 288 m 0
 467.891601562 288 536.000976562 219.890625 536.000976562 136 c 0
 536.000976562 52.109375 467.891601562 -16 384.000976562 -16 c 0
 300.110351562 -16 232.000976562 52.109375 232.000976562 136 c 0
 232.000976562 219.890625 300.110351562 288 384.000976562 288 c 0
384.000976562 224 m 0
 335.432617188 224 296.000976562 184.568359375 296.000976562 136 c 0
 296.000976562 87.431640625 335.432617188 48 384.000976562 48 c 0
 432.569335938 48 472.000976562 87.431640625 472.000976562 136 c 0
 472.000976562 184.568359375 432.569335938 224 384.000976562 224 c 0
EndSplineSet
MultipleSubs2: "CCMP cartouches" t.o cart.body
Ligature2: "LIGA basics" o
EndChar

StartChar: t.olin
Encoding: 170 989509 71
GlifName: t.olin
Width: 768
GlyphClass: 1
Flags: W
HStem: 256 64<266.968 343.2 423.048 501.034> 608 64<266.968 343.2 423.048 501.034>
VStem: 192.001 64<172.136 244.842 524.136 596.842> 512.001 64<172.136 244.842 524.136 596.842>
LayerCount: 2
Fore
SplineSet
304.000976562 672 m 0
 344.000976562 672 376.000976562 648 384.000976562 624 c 1
 392.000976562 648 424.000976562 672 464.000976562 672 c 0
 525.857421875 671.999023438 576.000976562 621.85546875 576.000976562 560 c 0
 576.000976562 529.383789062 563.466796875 500.1015625 541.315429688 478.966796875 c 2
 384.000976562 320 l 1
 226.686523438 478.966796875 l 2
 204.53515625 500.1015625 192.000976562 529.383789062 192.000976562 560 c 0
 192.000976562 621.85546875 242.145507812 672 304.000976562 672 c 0
464.000976562 608 m 0
 432.000976562 608 416.000976562 592 384.000976562 536 c 1
 352.000976562 592 330.465820312 608 304.000976562 608 c 0
 272.000976562 608 256.000976562 586.509765625 256.000976562 560 c 0
 256.000976562 546.466796875 261.712890625 533.5625 271.731445312 524.46484375 c 2
 384.000976562 411.0625 l 1
 496.270507812 524.46484375 l 2
 506.2890625 533.5625 512.000976562 546.466796875 512.000976562 560 c 0
 512.000976562 586.509765625 496.000976562 608 464.000976562 608 c 0
304.000976562 320 m 0
 344.000976562 320 376.000976562 296 384.000976562 272 c 1
 392.000976562 296 424.000976562 320 464.000976562 320 c 0
 525.856445312 320 576.000976562 269.85546875 576.000976562 208 c 0
 576.000976562 177.383789062 563.466796875 148.1015625 541.315429688 126.966796875 c 2
 384.000976562 -32 l 1
 226.686523438 126.966796875 l 2
 204.53515625 148.1015625 192.000976562 177.383789062 192.000976562 208 c 0
 192.000976562 269.85546875 242.145507812 320 304.000976562 320 c 0
464.000976562 256 m 0
 432.000976562 256 416.000976562 240 384.000976562 184 c 1
 352.000976562 240 330.465820312 256 304.000976562 256 c 0
 272.000976562 256 256.000976562 234.509765625 256.000976562 208 c 0
 256.000976562 194.466796875 261.712890625 181.563476562 271.731445312 172.46484375 c 2
 384.000976562 59.0625 l 1
 496.270507812 172.46484375 l 2
 506.2890625 181.563476562 512.000976562 194.466796875 512.000976562 208 c 0
 512.000976562 234.509765625 496.000976562 256 464.000976562 256 c 0
EndSplineSet
MultipleSubs2: "CCMP cartouches" t.olin cart.body
LCarets2: 3 -56 -56 -56
Ligature2: "LIGA basics" o l i n
EndChar

StartChar: t.ona
Encoding: 171 989510 72
GlifName: t.ona
Width: 768
GlyphClass: 1
Flags: W
HStem: 152.034 63.9854<502.642 605.885> 424.02 63.958<497.033 606.971>
VStem: 384.002 64<264.061 374.967> 656.002 64<265.03 374.967>
LayerCount: 2
Fore
SplineSet
544.224609375 152.034179688 m 2
 366.659179688 153.73046875 190.075195312 213.44921875 48.01171875 320.008789062 c 1
 86.412109375 371.209960938 l 1
 181.639648438 299.780273438 293.657226562 251.1328125 410.62890625 229.215820312 c 1
 393.244140625 256.294921875 384.001953125 287.797851562 384.001953125 319.977539062 c 0
 384.001953125 412.76171875 459.217773438 487.977539062 552.001953125 487.977539062 c 0
 644.786132812 487.977539062 720.001953125 412.76171875 720.001953125 319.977539062 c 0
 720.001953125 227.197265625 644.786132812 151.981445312 552.001953125 151.981445312 c 2
 544.224609375 152.034179688 l 2
656.001953125 320.018554688 m 0
 656.001953125 377.45703125 609.439453125 424.01953125 552.001953125 424.01953125 c 0
 494.564453125 424.01953125 448.001953125 377.45703125 448.001953125 320.018554688 c 0
 448.001953125 262.581054688 494.564453125 216.01953125 552.001953125 216.01953125 c 0
 609.439453125 216.01953125 656.001953125 262.581054688 656.001953125 320.018554688 c 0
EndSplineSet
LCarets2: 2 0 0
MultipleSubs2: "CCMP cartouches" t.ona cart.body
Ligature2: "LIGA basics" o n a
EndChar

StartChar: t.open
Encoding: 172 989511 73
GlifName: t.open
Width: 768
GlyphClass: 1
Flags: W
HStem: -0 64<192.001 576.001> 160 64<192.001 576.001> 620 20G<128.001 192.001 576.001 640.001>
VStem: 128.001 64<64 160 224 640> 576.001 64<64 160 224 640>
LayerCount: 2
Fore
SplineSet
128.000976562 640 m 1
 192.000976562 640 l 1
 192.000976562 224 l 1
 576.000976562 224 l 1
 576.000976562 640 l 1
 640.000976562 640 l 1
 640.000976562 -0 l 1
 128.000976562 -0 l 1
 128.000976562 640 l 1
192.000976562 160 m 1
 192.000976562 64 l 1
 576.000976562 64 l 1
 576.000976562 160 l 1
 192.000976562 160 l 1
EndSplineSet
LCarets2: 3 -58 -58 -58
MultipleSubs2: "CCMP cartouches" t.open cart.body
Ligature2: "LIGA basics" o p e n
EndChar

StartChar: t.pakala
Encoding: 173 989512 74
GlifName: t.pakala
Width: 768
GlyphClass: 1
Flags: W
HStem: -0 64<176.002 352.001 420.326 592.001> 288 64<332.254 435.746> 576 64<176.002 347.674 416 592.001>
VStem: 112.001 64.001<64 576> 592.001 63.999<64 576>
CounterMasks: 1 e0
LayerCount: 2
Fore
SplineSet
112.000976562 640 m 1
 656 640 l 1
 656 -0 l 1
 112.000976562 -0 l 1
 112.000976562 640 l 1
176.001953125 576 m 1
 176.001953125 64 l 1
 352.000976562 64 l 1
 435.74609375 288 l 1
 240 288 l 1
 347.673828125 576 l 1
 176.001953125 576 l 1
416 576 m 1
 332.25390625 352 l 1
 528 352 l 1
 420.326171875 64 l 1
 592.000976562 64 l 1
 592.000976562 576 l 1
 416 576 l 1
EndSplineSet
LCarets2: 5 -58 -58 -58 -58 -58
MultipleSubs2: "CCMP cartouches" t.pakala cart.body
Ligature2: "LIGA basics" p a k a l a
EndChar

StartChar: t.pali
Encoding: 174 989513 75
GlifName: t.pali
Width: 768
GlyphClass: 1
Flags: W
HStem: -0 21G<178 256.001 576.001 640.001> 288 64<357.329 474.669> 592 64<356.652 475.351>
VStem: 192 64.001<111.603 197.365> 232.002 64<412.29 531.349> 536.002 63.999<412.29 531.349> 576.001 64<0 197.366>
LayerCount: 2
Fore
SplineSet
416.001953125 656 m 0xe8
 517.553710938 656 600.000976562 573.551757812 600.000976562 472 c 0xec
 600.000976562 411.212276506 570.460005155 357.270069376 524.963381573 323.758488399 c 1
 593.588482304 285.478826 640.000617526 212.160051828 640.00097656 128.000976562 c 2
 640.000976562 128 l 1
 640.000976562 0 l 1
 576.000976562 0 l 1
 576.000976562 128 l 2
 576.000976562 216.364909814 504.366737152 287.999473778 416.001950244 287.999999999 c 2
 415.994432928 288.00000001 l 2
 327.632205744 287.996463643 256.000976562 216.363053294 256.000976562 128 c 2
 256.000976562 -0 l 1
 192 -0 l 1
 80.0009765625 160 l 1
 132.430664062 196.701171875 l 1
 192 111.602639938 l 1
 192 128 l 2xf2
 192.000976562 212.159760537 238.413509682 285.479158648 307.039246456 323.758864865 c 1
 261.542703294 357.270473363 232.001953125 411.212504133 232.001953125 472 c 0
 232.001953125 573.551757812 314.44921875 656 416.001953125 656 c 0xe8
416.001953125 592 m 0
 349.771484375 592 296.001953125 538.229492188 296.001953125 472 c 0
 296.001953125 405.770676501 349.77121047 352.00027391 416.001447052 352 c 2
 416.003078291 351.999999998 l 2
 482.232054312 351.999999998 536.001953125 405.77088286 536.001953125 472 c 0
 536.001953125 538.229492188 482.231445312 592 416.001953125 592 c 0
EndSplineSet
LCarets2: 3 -58 -58 -58
MultipleSubs2: "CCMP cartouches" t.pali cart.body
Ligature2: "LIGA basics" p a l i
EndChar

StartChar: t.palisa
Encoding: 175 989514 76
GlifName: t.palisa
Width: 768
GlyphClass: 1
Flags: W
HStem: -32 64<341.894 426.108> 608 64<341.894 426.108>
VStem: 256.001 64<54.8617 585.138> 448.001 64<54.8617 585.138>
LayerCount: 2
Fore
SplineSet
384.000976562 672 m 0
 454.913085938 672 512.000976562 614.912109375 512.000976562 544 c 2
 512.000976562 96 l 2
 512.000976562 25.087890625 454.913085938 -32 384.000976562 -32 c 0
 313.088867188 -32 256.000976562 25.087890625 256.000976562 96 c 2
 256.000976562 544 l 2
 256.000976562 614.912109375 313.088867188 672 384.000976562 672 c 0
384.000976562 608 m 0
 348.544921875 608 320.000976562 579.456054688 320.000976562 544 c 2
 320.000976562 96 l 2
 320.000976562 60.5439453125 348.544921875 32 384.000976562 32 c 0
 419.45703125 32 448.000976562 60.5439453125 448.000976562 96 c 2
 448.000976562 544 l 2
 448.000976562 579.456054688 419.45703125 608 384.000976562 608 c 0
EndSplineSet
LCarets2: 5 -58 -58 -58 -58 -58
MultipleSubs2: "CCMP cartouches" t.palisa cart.body
Ligature2: "LIGA basics" p a l i s a
EndChar

StartChar: t.pan
Encoding: 176 989515 77
GlifName: t.pan
Width: 768
GlyphClass: 1
Flags: W
LayerCount: 2
Fore
SplineSet
240 224 m 1
 384 64 l 1
 528 224 l 1
 576 176 l 1
 384 -16 l 1
 192 176 l 1
 240 224 l 1
240 656 m 1
 384 496 l 1
 528 656 l 1
 576 608 l 1
 384 416 l 1
 192 608 l 1
 240 656 l 1
240 440 m 1
 384 280 l 1
 528 440 l 1
 576 392 l 1
 384 200 l 1
 192 392 l 1
 240 440 l 1
EndSplineSet
LCarets2: 2 -58 -58
MultipleSubs2: "CCMP cartouches" t.pan cart.body
Ligature2: "LIGA basics" p a n
EndChar

StartChar: t.pana
Encoding: 177 989516 78
GlifName: t.pana
Width: 768
GlyphClass: 1
Flags: W
HStem: -0.000976562 21G<178.001 256.002 576.001 640.002> 368 64<348.012 483.99>
VStem: 192.001 64.001<111.601 207.998 208 274.611> 384.001 64<496 656> 576.001 64.001<0 207.999 208 274.611>
LayerCount: 2
Fore
SplineSet
416.000976562 432 m 0
 539.712890625 432 640.000976562 331.711914062 640.000976562 208 c 1
 576.000976562 208 l 1
 576 296.365234375 504.366210938 368 416.000976562 368 c 0
 327.635742188 368 256.000976562 296.365234375 256.000976562 208 c 1
 192.000976562 208 l 1
 192.000976562 331.711914062 292.2890625 432 416.000976562 432 c 0
576.000976562 -0 m 1
 576.000976562 207.999023438 l 1
 640.001953125 207.999023438 l 1
 640.001953125 -0 l 1
 576.000976562 -0 l 1
80.0009765625 160 m 1
 132.430664062 196.701171875 l 1
 192.000976562 111.601244858 l 1
 192.000976562 207.998046875 l 1
 256.001953125 207.998046875 l 1
 256.001953125 -0.0009765625 l 1
 192.000976562 -0.0009765625 l 1
 80.0009765625 160 l 1
384.000976562 496 m 1
 384.000976562 656 l 1
 448.000976562 656 l 1
 448.000976562 496 l 1
 384.000976562 496 l 1
505.776367188 480.864257812 m 1
 584.220703125 620.315429688 l 1
 640.000976562 588.9375 l 1
 561.557617188 449.486328125 l 1
 505.776367188 480.864257812 l 1
326.225585938 480.864257812 m 1
 270.4453125 449.486328125 l 1
 192.001953125 588.9375 l 1
 247.782226562 620.315429688 l 1
 326.225585938 480.864257812 l 1
EndSplineSet
LCarets2: 3 -58 -58 -58
MultipleSubs2: "CCMP cartouches" t.pana cart.body
Ligature2: "LIGA basics" p a n a
EndChar

StartChar: t.pi
Encoding: 178 989517 79
GlifName: t.pi
Width: 768
GlyphClass: 1
Flags: W
HStem: 64 64<192.001 640.001>
VStem: 128 64.001<128 576>
LayerCount: 2
Fore
SplineSet
128.000976562 576 m 1
 192.000976562 576 l 1
 192.000976562 128 l 1
 640.000976562 128 l 1
 640.000976562 64 l 1
 128 64 l 1
 128.000976562 576 l 1
EndSplineSet
LCarets2: 1 -58
MultipleSubs2: "CCMP cartouches" t.pi cart.body
Ligature2: "LIGA basics" p i
EndChar

StartChar: t.pilin
Encoding: 179 989518 80
GlifName: t.pilin
Width: 768
GlyphClass: 1
Flags: W
HStem: -0 21G<366.651 401.351> 448 21G<376.001 392.001> 576 64<172.629 286.656 481.346 595.374>
VStem: 48.001 64<395.145 515.372> 656.001 64<395.145 515.372>
LayerCount: 2
Fore
SplineSet
232.000976562 640 m 0
 295.146484375 640 350.86328125 608.192382812 384.000976562 559.724609375 c 1
 417.138671875 608.192382812 472.85546875 640 536.000976562 640 c 0
 637.622070312 640 720.000976562 557.620117188 720.000976562 456 c 0
 720.000976562 411.700195312 704.018554688 368.887695312 674.989257812 335.42578125 c 2
 384.000976562 -0 l 1
 93.0126953125 335.42578125 l 2
 63.9833984375 368.887695312 48.0009765625 411.700195312 48.0009765625 456 c 0
 48.0009765625 557.620117188 130.380859375 640 232.000976562 640 c 0
232.000976562 576 m 0
 165.727539062 576 112.000976562 522.2734375 112.000976562 456 c 0
 112.001953125 427.108398438 122.424804688 399.188476562 141.356445312 377.365234375 c 2
 384.000976562 102.39453125 l 1
 626.645507812 377.365234375 l 2
 645.577148438 399.188476562 656.000976562 427.108398438 656.000976562 456 c 0
 656.000976562 522.2734375 602.275390625 576 536.000976562 576 c 0
 469.805664062 576 400.000976562 496 384.000976562 448 c 1
 368.000976562 496 298.196289062 576 232.000976562 576 c 0
EndSplineSet
LCarets2: 4 -58 -58 -58 -58
MultipleSubs2: "CCMP cartouches" t.pilin cart.body
Ligature2: "LIGA basics" p i l i n
EndChar

StartChar: t.pimeja
Encoding: 180 989519 81
GlifName: t.pimeja
Width: 768
GlyphClass: 1
Flags: W
HStem: -0 64<152.002 194.746 285.256 482.748 573.258 616.002>
LayerCount: 2
Fore
SplineSet
384.001953125 672 m 1
 720.001953125 -0 l 1
 48.001953125 -0 l 1
 384.001953125 672 l 1
384.001953125 528 m 1
 292.419921875 344.8359375 l 1
 384.001953125 253.255859375 l 1
 475.583984375 344.837890625 l 1
 384.001953125 528 l 1
505.75390625 284.498046875 m 1
 429.255859375 208 l 1
 573.2578125 64 l 1
 616.001953125 64 l 1
 505.75390625 284.498046875 l 1
262.25 284.49609375 m 1
 152.001953125 64 l 1
 194.74609375 64 l 1
 338.74609375 208 l 1
 262.25 284.49609375 l 1
384.001953125 162.74609375 m 1
 285.255859375 64 l 1
 482.748046875 64 l 1
 384.001953125 162.74609375 l 1
EndSplineSet
LCarets2: 5 -58 -58 -58 -58 -58
MultipleSubs2: "CCMP cartouches" t.pimeja cart.body
Ligature2: "LIGA basics" p i m e j a
EndChar

StartChar: t.pini
Encoding: 181 989520 82
GlifName: t.pini
Width: 768
GlyphClass: 1
Flags: W
HStem: -0 64<192.002 352.002 416.002 576.002> 576 64<192.002 352.002 416.002 576.002>
VStem: 352.002 64<64 576>
LayerCount: 2
Fore
SplineSet
192.001953125 -0 m 1
 192.001953125 64 l 1
 352.001953125 64 l 1
 352.001953125 576 l 1
 192.001953125 576 l 1
 192.001953125 640 l 1
 576.001953125 640 l 1
 576.001953125 576 l 1
 416.001953125 576 l 1
 416.001953125 64 l 1
 576.001953125 64 l 1
 576.001953125 -0 l 1
 192.001953125 -0 l 1
EndSplineSet
LCarets2: 3 0 0 0
MultipleSubs2: "CCMP cartouches" t.pini cart.body
Ligature2: "LIGA basics" p i n i
EndChar

StartChar: t.pipi
Encoding: 182 989521 83
GlifName: t.pipi
Width: 768
GlyphClass: 1
Flags: W
HStem: 64 64<192.002 352.002 416.002 576.002> 224 64<192.002 352.002 416.002 576.002> 384 64<192.002 352.002 416.002 576.002> 559.999 112<216.404 295.6 472.404 551.6>
VStem: 200.002 112<576.401 655.597> 352.002 64<-32 64 128 224 288 384 448 544> 456.002 112<576.401 655.597>
CounterMasks: 1 0e
LayerCount: 2
Fore
SplineSet
200.001953125 615.999023438 m 0
 200.001953125 646.927734375 225.07421875 671.999023438 256.001953125 671.999023438 c 0
 286.9296875 671.999023438 312.001953125 646.927734375 312.001953125 615.999023438 c 0
 312.001953125 585.071289062 286.9296875 559.999023438 256.001953125 559.999023438 c 0
 225.07421875 559.999023438 200.001953125 585.071289062 200.001953125 615.999023438 c 0
456.001953125 615.999023438 m 0
 456.001953125 646.927734375 481.07421875 671.999023438 512.001953125 671.999023438 c 0
 542.9296875 671.999023438 568.001953125 646.927734375 568.001953125 615.999023438 c 0
 568.001953125 585.071289062 542.9296875 559.999023438 512.001953125 559.999023438 c 0
 481.07421875 559.999023438 456.001953125 585.071289062 456.001953125 615.999023438 c 0
192.001953125 64 m 1
 192.001953125 128 l 1
 352.001953125 128 l 1
 352.001953125 224 l 1
 192.001953125 224 l 1
 192.001953125 288 l 1
 352.001953125 288 l 1
 352.001953125 384 l 1
 192.001953125 384 l 1
 192.001953125 448 l 1
 352.001953125 448 l 1
 352.001953125 544 l 1
 416.001953125 544 l 1
 416.001953125 448 l 1
 576.001953125 448 l 1
 576.001953125 384 l 1
 416.001953125 384 l 1
 416.001953125 288 l 1
 576.001953125 288 l 1
 576.001953125 224 l 1
 416.001953125 224 l 1
 416.001953125 128 l 1
 576.001953125 128 l 1
 576.001953125 64 l 1
 416.001953125 64 l 1
 416.001953125 -32 l 1
 352.001953125 -32 l 1
 352.001953125 64 l 1
 192.001953125 64 l 1
EndSplineSet
LCarets2: 3 -58 -58 -58
MultipleSubs2: "CCMP cartouches" t.pipi cart.body
Ligature2: "LIGA basics" p i p i
EndChar

StartChar: t.poka
Encoding: 183 989522 84
GlifName: t.poka
Width: 768
GlyphClass: 1
Flags: W
HStem: 175.999 64<128.003 480.001> 263.999 112<608.402 687.598>
VStem: 64 64.0029<239.999 463.999> 480.001 63.999<239.999 463.999> 592 112<280.401 359.597>
LayerCount: 2
Fore
SplineSet
480.001953125 463.999023438 m 1
 544 463.999023438 l 1
 544 175.999023438 l 1
 64 175.999023438 l 1
 64 463.999023438 l 1
 128.002929688 463.999023438 l 1
 128.002929688 239.999023438 l 1
 480.000976562 239.999023438 l 1
 480.001953125 463.999023438 l 1
592 319.999023438 m 0
 592 350.926757812 617.072265625 375.999023438 648 375.999023438 c 0
 678.927734375 375.999023438 704 350.926757812 704 319.999023438 c 0
 704 289.071289062 678.927734375 263.999023438 648 263.999023438 c 0
 617.072265625 263.999023438 592 289.071289062 592 319.999023438 c 0
EndSplineSet
LCarets2: 3 -58 -58 -58
MultipleSubs2: "CCMP cartouches" t.poka cart.body
Ligature2: "LIGA basics" p o k a
EndChar

StartChar: t.poki
Encoding: 184 989523 85
GlifName: t.poki
Width: 768
GlyphClass: 1
Flags: W
HStem: -0.000976562 64<192.004 576.002> 619.999 20G<128.001 192.004 576.004 640.001>
VStem: 128.001 64.0029<63.999 639.999> 576.002 63.999<63.999 639.999>
LayerCount: 2
Fore
SplineSet
576.00390625 639.999023438 m 1
 640.000976562 639.999023438 l 1
 640.000976562 -0.0009765625 l 1
 128.000976562 -0.0009765625 l 1
 128.000976562 639.999023438 l 1
 192.00390625 639.999023438 l 1
 192.00390625 63.9990234375 l 1
 576.001953125 63.9990234375 l 1
 576.00390625 639.999023438 l 1
EndSplineSet
LCarets2: 3 -58 -58 -58
MultipleSubs2: "CCMP cartouches" t.poki cart.body
Ligature2: "LIGA basics" p o k i
EndChar

StartChar: t.pona
Encoding: 185 989524 86
GlifName: t.pona
Width: 768
GlyphClass: 1
Flags: W
HStem: 159.999 64<296.228 471.774>
VStem: 64.001 64<392.437 479.999> 640.001 64<392.437 479.999>
LayerCount: 2
Fore
SplineSet
64.0009765625 479.999023438 m 1
 128.000976562 479.999023438 l 1
 128.000976562 338.708984375 242.7109375 223.999023438 384.000976562 223.999023438 c 0
 525.291992188 223.999023438 640.000976562 338.708984375 640.000976562 479.999023438 c 1
 704.000976562 479.999023438 l 1
 704.000976562 303.38671875 560.614257812 159.999023438 384.000976562 159.999023438 c 0
 207.388671875 159.999023438 64.0009765625 303.38671875 64.0009765625 479.999023438 c 1
EndSplineSet
LCarets2: 3 -58 -58 -58
MultipleSubs2: "CCMP cartouches" t.pona cart.body
Ligature2: "LIGA basics" p o n a
EndChar

StartChar: t.pu
Encoding: 186 989525 87
GlifName: t.pu
Width: 768
GlyphClass: 1
Flags: W
HStem: -0.000976562 96<323.01 444.993> -0.000976562 64<176.004 310.628 457.374 592.001> 159.999 48<341.184 426.818> 351.999 48<323.261 444.741> 447.999 21G<360.002 408.002> 575.999 64<176.004 360.002 408.002 592.001>
VStem: 112.001 64.0029<63.999 575.999> 208.001 48<162.031 284.739> 276.31 46.1543<227.048 242.765> 360.002 48<447.999 575.999> 445.538 46.1523<227.048 242.765> 512.001 48<162.031 284.739> 592.001 64<63.999 575.999>
LayerCount: 2
Fore
SplineSet
112.000976562 639.999023438 m 1x7ff8
 656.000976562 639.999023438 l 1
 656.000976562 -0.0009765625 l 1
 112.000976562 -0.0009765625 l 1
 112.000976562 639.999023438 l 1x7ff8
460.7109375 435.818359375 m 1
 516.868164062 550.841796875 l 1
 560.001953125 529.783203125 l 1
 503.844726562 414.759765625 l 1
 460.7109375 435.818359375 l 1
307.291992188 435.818359375 m 1
 264.158203125 414.759765625 l 1
 208 529.783203125 l 1
 251.133789062 550.841796875 l 1
 307.291992188 435.818359375 l 1
384.000976562 399.999023438 m 0
 481.137695312 399.999023438 560.000976562 321.13671875 560.000976562 223.999023438 c 0
 560.000976562 153.042687166 517.920081064 91.8370501272 457.374059239 63.9990234375 c 1
 592.000976562 63.9990234375 l 1
 592.000976562 575.999023438 l 1
 408.001953125 575.999023438 l 1
 408.001953125 447.999023438 l 1
 360.001953125 447.999023438 l 1
 360.001953125 575.999023438 l 1
 176.00390625 575.999023438 l 1
 176.00390625 63.9990234375 l 1
 310.628315222 63.9990234375 l 1
 250.082393154 91.8370501272 208.000976562 153.042687166 208.000976562 223.999023438 c 0
 208.000976562 321.13671875 286.864257812 399.999023438 384.000976562 399.999023438 c 0
384.000976562 351.999023438 m 0
 313.356445312 351.999023438 256.000976562 294.64453125 256.000976562 223.999023438 c 0
 256.000976562 153.354492188 313.356445312 95.9990234375 384.000976562 95.9990234375 c 0xbff8
 454.646484375 95.9990234375 512.000976562 153.354492188 512.000976562 223.999023438 c 0
 512.000976562 294.64453125 454.646484375 351.999023438 384.000976562 351.999023438 c 0
322.463867188 254.415039062 m 1
 330.116210938 227.63671875 354.780273438 207.999023438 384.000976562 207.999023438 c 0
 413.22265625 207.999023438 437.88671875 227.63671875 445.538085938 254.415039062 c 1
 491.690429688 241.229492188 l 1
 478.30078125 194.365234375 435.138671875 159.999023438 384.000976562 159.999023438 c 0
 332.86328125 159.999023438 289.700195312 194.366210938 276.309570312 241.229492188 c 1
 322.463867188 254.415039062 l 1
EndSplineSet
LCarets2: 1 -58
MultipleSubs2: "CCMP cartouches" t.pu cart.body
Ligature2: "LIGA basics" p u
EndChar

StartChar: t.sama
Encoding: 187 989526 88
GlifName: t.sama
Width: 768
GlyphClass: 1
Flags: W
HStem: 160 64<128.001 640.001> 415.999 64<128.001 640.001>
LayerCount: 2
Fore
SplineSet
128.000976562 415.999023438 m 1
 128.000976562 479.999023438 l 1
 640.000976562 479.999023438 l 1
 640.000976562 415.999023438 l 1
 128.000976562 415.999023438 l 1
128.000976562 160 m 1
 128.000976562 224 l 1
 640.000976562 224 l 1
 640.000976562 160 l 1
 128.000976562 160 l 1
EndSplineSet
LCarets2: 3 -58 -58 -58
MultipleSubs2: "CCMP cartouches" t.sama cart.body
Ligature2: "LIGA basics" s a m a
EndChar

StartChar: t.seli
Encoding: 188 989527 89
GlifName: t.seli
Width: 768
GlyphClass: 1
Flags: W
HStem: 24 111.999<344.402 423.598>
VStem: 328 112<40.4016 119.597> 352 64<208 607.999>
LayerCount: 2
Fore
SplineSet
328 79.9990234375 m 0xc0
 328 110.927734375 353.072265625 135.999023438 384 135.999023438 c 0
 414.927734375 135.999023438 440 110.927734375 440 79.9990234375 c 0
 440 49.0712890625 414.927734375 24 384 24 c 0
 353.072265625 24 328 49.0712890625 328 79.9990234375 c 0xc0
352 208 m 1xa0
 352 607.999023438 l 1
 416 607.999023438 l 1
 416 208 l 1
 352 208 l 1xa0
475.833007812 193.094726562 m 1
 663.479492188 546.349609375 l 1
 720 516.326171875 l 1
 532.353515625 163.071289062 l 1
 475.833007812 193.094726562 l 1
292.166992188 193.094726562 m 1
 235.646484375 163.071289062 l 1
 48 516.326171875 l 1
 104.521484375 546.349609375 l 1
 292.166992188 193.094726562 l 1
EndSplineSet
LCarets2: 3 -58 -58 -58
MultipleSubs2: "CCMP cartouches" t.seli cart.body
Ligature2: "LIGA basics" s e l i
EndChar

StartChar: t.selo
Encoding: 189 989528 90
GlifName: t.selo
Width: 768
GlyphClass: 1
Flags: W
HStem: 415.999 64<96 192 256 512 576 672>
VStem: 32 64<127.999 415.999> 192 64<127.999 415.999> 512 64<127.999 415.999> 672 64<127.999 415.999>
LayerCount: 2
Fore
SplineSet
32 127.999023438 m 1
 32 479.999023438 l 1
 96 479.999023438 l 1
 672 479.999023438 l 1
 736 479.999023438 l 1
 736 127.999023438 l 1
 672 127.999023438 l 1
 672 415.999023438 l 1
 576 415.999023438 l 1
 576 127.999023438 l 1
 512 127.999023438 l 1
 512 415.999023438 l 1
 256 415.999023438 l 1
 256 127.999023438 l 1
 192 127.999023438 l 1
 192 415.999023438 l 1
 96 415.999023438 l 1
 96 127.999023438 l 1
 32 127.999023438 l 1
EndSplineSet
LCarets2: 3 -58 -58 -58
MultipleSubs2: "CCMP cartouches" t.selo cart.body
Ligature2: "LIGA basics" s e l o
EndChar

StartChar: t.seme
Encoding: 190 989529 91
GlifName: t.seme
Width: 768
GlyphClass: 1
Flags: W
HStem: -16.001 112<344.401 423.597> 239.999 64.002<415.999 497.664> 447.999 21G<127.999 191.999> 591.999 64<270.334 497.664>
VStem: 127.999 64<447.999 513.664> 327.999 112<0.401123 79.5969> 351.999 64<175.999 239.999> 575.999 64<381.742 514.256>
LayerCount: 2
Fore
SplineSet
327.999023438 39.9990234375 m 0xfd
 327.999023438 70.9267578125 353.071289062 95.9990234375 383.999023438 95.9990234375 c 0
 414.926757812 95.9990234375 439.999023438 70.9267578125 439.999023438 39.9990234375 c 0
 439.999023438 9.0712890625 414.926757812 -16.0009765625 383.999023438 -16.0009765625 c 0
 353.071289062 -16.0009765625 327.999023438 9.0712890625 327.999023438 39.9990234375 c 0xfd
335.999023438 655.999023438 m 2
 431.999023438 655.999023438 l 2
 547.231445312 655.999023438 639.999023438 563.231445312 639.999023438 447.999023438 c 0
 639.999023438 332.767578125 547.231445312 239.999023438 431.999023438 239.999023438 c 2
 415.999023438 239.999023438 l 1
 415.999023438 175.999023438 l 1
 351.999023438 175.999023438 l 1
 351.999023438 239.999023438 l 1
 351.999023438 304.000976562 l 1xfb
 431.999023438 304.000976562 l 2
 511.775390625 304.000976562 575.999023438 368.223632812 575.999023438 447.999023438 c 0
 575.999023438 527.774414062 511.775390625 591.999023438 431.999023438 591.999023438 c 2
 335.999023438 591.999023438 l 2
 256.223632812 591.999023438 191.999023438 527.774414062 191.999023438 447.999023438 c 1
 127.999023438 447.999023438 l 1
 127.999023438 563.231445312 220.767578125 655.999023438 335.999023438 655.999023438 c 2
EndSplineSet
LCarets2: 3 0 0 0
MultipleSubs2: "CCMP cartouches" t.seme cart.body
Ligature2: "LIGA basics" s e m e
EndChar

StartChar: t.sewi
Encoding: 191 989530 92
GlifName: t.sewi
Width: 768
GlyphClass: 1
Flags: W
HStem: -16.001 64<46.5276 107.001 212.926 298.816 405.038 489.93> -0.000976562 21G<672.001 736.001> 619.999 20G<672.001 736.001>
VStem: 128 64<68.967 287.999> 320.001 64<68.9671 415.999> 512 64.001<71.1633 543.999> 672.001 64<-0.000976562 639.999>
LayerCount: 2
Fore
SplineSet
64.0009765625 47.9990234375 m 0xbe
 99.2041857342 47.9990234375 127.807579991 76.4837625302 128 111.642081383 c 2
 128 287.999023438 l 1
 192 287.999023438 l 1
 192 111.998697917 l 2
 192.000976562 76.6533203125 220.655273438 47.9990234375 256.000976562 47.9990234375 c 0
 291.346679688 47.9990234375 320.000976562 76.6533203125 320.000976562 111.999023438 c 2
 320.000976562 415.999023438 l 1
 384.000976562 415.999023438 l 1
 384.000976562 111.642081383 l 2
 384.193396571 76.4837625302 412.796790828 47.9990234375 448 47.9990234375 c 0
 483.322265625 47.9990234375 512 76.6767578125 512 111.999023438 c 2
 512 543.999023438 l 1
 576 543.999023438 l 1
 576 111.999023438 l 1
 575.732421875 111.999023438 l 1
 575.912109375 109.321289062 576 106.72265625 576.000976562 103.999023438 c 0
 576.000976562 37.76953125 522.23046875 -16.0009765625 456.000976562 -16.0009765625 c 0
 412.77008074 -16.0009765625 374.848317001 6.90859410172 353.723822962 41.2387830532 c 1
 334.540983981 7.07951376022 297.966131397 -16.0009765625 256.000976562 -16.0009765625 c 0
 215.252253229 -16.0009765625 179.586554168 5.75974107269 159.990522877 38.2945328455 c 1
 140.382881756 5.76963939968 104.714253492 -16.0009765625 64.0009765625 -16.0009765625 c 0
 52.5166015625 -16.0009765625 41.421875 -14.470703125 30.8291015625 -11.6279296875 c 1
 47.4150390625 50.1845703125 l 1
 52.7099609375 48.763671875 58.259765625 47.9990234375 64.0009765625 47.9990234375 c 0xbe
672.000976562 -0.0009765625 m 1x7e
 672.000976562 639.999023438 l 1
 736.000976562 639.999023438 l 1
 736.000976562 -0.0009765625 l 1
 672.000976562 -0.0009765625 l 1x7e
EndSplineSet
Ligature2: "LIGA alternates" t.sewi zero one
LCarets2: 3 -58 -58 -58
MultipleSubs2: "CCMP cartouches" t.sewi cart.body
Ligature2: "LIGA basics" s e w i
EndChar

StartChar: t.sijelo
Encoding: 192 989531 93
GlifName: t.sijelo
Width: 768
GlyphClass: 1
Flags: W
HStem: 511.999 64<192.002 352.002 416.002 576>
VStem: 128.002 64.002<31.999 511.999> 352.002 64<63.999 511.999> 576.004 63.998<31.999 511.999>
LayerCount: 2
Fore
SplineSet
576.00390625 31.9990234375 m 1
 576 511.999023438 l 1
 416.001953125 511.999023438 l 1
 416.001953125 63.9990234375 l 1
 352.001953125 63.9990234375 l 1
 352.001953125 511.999023438 l 1
 192.001953125 511.999023438 l 1
 192.00390625 31.9990234375 l 1
 128.001953125 31.9990234375 l 1
 128 575.999023438 l 1
 640 575.999023438 l 1
 640.001953125 31.9990234375 l 1
 576.00390625 31.9990234375 l 1
EndSplineSet
LCarets2: 5 -58 -58 -58 -58 -58
MultipleSubs2: "CCMP cartouches" t.sijelo cart.body
Ligature2: "LIGA basics" s i j e l o
EndChar

StartChar: t.sike
Encoding: 193 989532 94
GlifName: t.sike
Width: 768
GlyphClass: 1
Flags: W
HStem: -16.001 64<291.29 476.713> 127.999 64<322.729 445.273> 447.999 64<322.729 445.273> 591.999 64<291.29 476.713>
VStem: 48.001 64.001<227.288 412.71> 192.001 64<258.727 381.271> 512.001 64<258.727 381.271> 656.002 64<227.288 412.71>
LayerCount: 2
Fore
SplineSet
384.001953125 655.999023438 m 0
 569.4453125 655.999023438 720.001953125 505.442382812 720.001953125 319.999023438 c 0
 720.001953125 134.555664062 569.4453125 -16.0009765625 384.001953125 -16.0009765625 c 0
 198.557617188 -16.0009765625 48.0009765625 134.555664062 48.0009765625 319.999023438 c 0
 48.0009765625 505.442382812 198.557617188 655.999023438 384.001953125 655.999023438 c 0
384.001953125 591.999023438 m 0
 233.880859375 591.999023438 112.001953125 470.120117188 112.001953125 319.999023438 c 0
 112.001953125 169.877929688 233.880859375 47.9990234375 384.001953125 47.9990234375 c 0
 534.122070312 47.9990234375 656.001953125 169.877929688 656.001953125 319.999023438 c 0
 656.000976562 470.120117188 534.122070312 591.999023438 384.001953125 591.999023438 c 0
384.000976562 511.999023438 m 0
 489.96875 511.999023438 576.000976562 425.966796875 576.000976562 319.999023438 c 0
 576.000976562 214.03125 489.96875 127.999023438 384.000976562 127.999023438 c 0
 278.033203125 127.999023438 192.000976562 214.03125 192.000976562 319.999023438 c 0
 192.000976562 425.966796875 278.033203125 511.999023438 384.000976562 511.999023438 c 0
384.000976562 447.999023438 m 0
 313.356445312 447.999023438 256.000976562 390.643554688 256.000976562 319.999023438 c 0
 256.000976562 249.354492188 313.356445312 191.999023438 384.000976562 191.999023438 c 0
 454.646484375 191.999023438 512.000976562 249.354492188 512.000976562 319.999023438 c 0
 512.000976562 390.643554688 454.646484375 447.999023438 384.000976562 447.999023438 c 0
EndSplineSet
LCarets2: 3 -58 -58 -58
MultipleSubs2: "CCMP cartouches" t.sike cart.body
Ligature2: "LIGA basics" s i k e
EndChar

StartChar: t.sin
Encoding: 194 989533 95
GlifName: t.sin
Width: 768
GlyphClass: 1
Flags: W
HStem: 192 64<64.002 304.002 464.002 704.002>
VStem: 352.002 64<303.999 527.999>
LayerCount: 2
Fore
SplineSet
64.001953125 192 m 1
 64.001953125 256 l 1
 304.001953125 256 l 1
 304.001953125 192 l 1
 64.001953125 192 l 1
464.001953125 192 m 1
 464.001953125 256 l 1
 704.001953125 256 l 1
 704.001953125 192 l 1
 464.001953125 192 l 1
352.001953125 527.999023438 m 1
 416.001953125 527.999023438 l 1
 416.001953125 303.999023438 l 1
 352.001953125 303.999023438 l 1
 352.001953125 527.999023438 l 1
EndSplineSet
LCarets2: 2 -58 -58
MultipleSubs2: "CCMP cartouches" t.sin cart.body
Ligature2: "LIGA basics" s i n
EndChar

StartChar: t.sina
Encoding: 195 989534 96
GlifName: t.sina
Width: 768
GlyphClass: 1
Flags: W
HStem: -16 64<329.05 438.986> 256 64<328.08 438.986>
VStem: 216.001 64.0381<98.1174 201.36> 488.038 63.959<97.031 206.969>
LayerCount: 2
Fore
SplineSet
216.053710938 159.77734375 m 2
 217.75 337.341796875 277.46875 513.926757812 384.028320312 655.990234375 c 1
 435.229492188 617.58984375 l 1
 363.799804688 522.362304688 315.15234375 410.34375 293.235351562 293.373046875 c 1
 320.314453125 310.7578125 351.817382812 320 383.997070312 320 c 0
 476.780273438 320 551.997070312 244.784179688 551.997070312 152 c 0
 551.99609375 59.2158203125 476.780273438 -16 383.997070312 -16 c 0
 291.216796875 -16 216.000976562 59.2158203125 216.000976562 152 c 2
 216.053710938 159.77734375 l 2
384.038085938 48 m 0
 441.4765625 48 488.038085938 94.5615234375 488.038085938 152 c 0
 488.038085938 209.4375 441.4765625 256 384.038085938 256 c 0
 326.600585938 256 280.0390625 209.4375 280.0390625 152 c 0
 280.0390625 94.5625 326.600585938 48 384.038085938 48 c 0
EndSplineSet
LCarets2: 3 0 0 0
MultipleSubs2: "CCMP cartouches" t.sina cart.body
Ligature2: "LIGA basics" s i n a
EndChar

StartChar: t.sinpin
Encoding: 196 989535 97
GlifName: t.sinpin
Width: 768
GlyphClass: 1
Flags: W
HStem: -0 63.998<192 384> 263.999 112<504.402 583.598> 575.998 64.002<192 384>
VStem: 384 64<64 575.998> 488 112<280.401 359.597>
LayerCount: 2
Fore
SplineSet
192 63.998046875 m 1
 384 64 l 1
 384 575.998046875 l 1
 192 575.998046875 l 1
 192 640 l 1
 448 640 l 1
 448 -0 l 1
 192 -0 l 1
 192 63.998046875 l 1
544 375.999023438 m 0
 574.928710938 375.999023438 600 350.927734375 600 319.999023438 c 0
 600 289.071289062 574.928710938 263.999023438 544 263.999023438 c 0
 513.072265625 263.999023438 488 289.071289062 488 319.999023438 c 0
 488 350.927734375 513.072265625 375.999023438 544 375.999023438 c 0
EndSplineSet
LCarets2: 5 -58 -58 -58 -58 -58
MultipleSubs2: "CCMP cartouches" t.sinpin cart.body
Ligature2: "LIGA basics" s i n p i n
EndChar

StartChar: t.sitelen
Encoding: 197 989536 98
GlifName: t.sitelen
Width: 768
GlyphClass: 1
Flags: W
HStem: 0 64<176.002 592> 256.001 127.999<223.726 288.274 351.726 416.274 479.727 544.275> 576 64<176.002 592>
VStem: 112 64.002<64 576> 208 96<271.607 368.394> 336 96<271.607 368.394> 464.001 96<271.607 368.394> 592 63.999<64 576>
LayerCount: 2
Fore
SplineSet
112 640 m 1
 655.999023438 640 l 1
 655.999023438 0 l 1
 112 0 l 1
 112 640 l 1
176.001953125 576 m 1
 176.001953125 64 l 1
 592 64 l 1
 592 576 l 1
 176.001953125 576 l 1
336 320.000976562 m 0
 336 355.346679688 357.491210938 384 384 384 c 0
 410.509765625 384 432 355.346679688 432 320.000976562 c 0
 432 284.654296875 410.509765625 256.000976562 384 256.000976562 c 0
 357.491210938 256.000976562 336 284.654296875 336 320.000976562 c 0
464.000976562 320.000976562 m 0
 464.000976562 355.346679688 485.491210938 384 512.000976562 384 c 0
 538.509765625 384 560.000976562 355.346679688 560.000976562 320.000976562 c 0
 560.000976562 284.654296875 538.509765625 256.000976562 512.000976562 256.000976562 c 0
 485.491210938 256.000976562 464.000976562 284.654296875 464.000976562 320.000976562 c 0
208 320.000976562 m 0
 208 355.346679688 229.490234375 384 256 384 c 0
 282.509765625 384 304 355.346679688 304 320.000976562 c 0
 304 284.654296875 282.509765625 256.000976562 256 256.000976562 c 0
 229.490234375 256.000976562 208 284.654296875 208 320.000976562 c 0
EndSplineSet
LCarets2: 6 -58 -58 -58 -58 -58 -58
MultipleSubs2: "CCMP cartouches" t.sitelen cart.body
Ligature2: "LIGA basics" s i t e l e n
EndChar

StartChar: t.sona
Encoding: 198 989537 99
GlifName: t.sona
Width: 768
GlyphClass: 1
Flags: W
HStem: 0 64<256 512.001> 352 64<256 512.001>
VStem: 192 64<64 352> 352 64<496.001 656.001> 512.001 63.999<64 352>
LayerCount: 2
Fore
SplineSet
352 496.000976562 m 1
 352 656.000976562 l 1
 416 656.000976562 l 1
 416 496.000976562 l 1
 352 496.000976562 l 1
473.776367188 480.865234375 m 1
 552.219726562 620.315429688 l 1
 608 588.938476562 l 1
 529.556640625 449.487304688 l 1
 473.776367188 480.865234375 l 1
294.225585938 480.865234375 m 1
 238.4453125 449.487304688 l 1
 160.001953125 588.938476562 l 1
 215.782226562 620.31640625 l 1
 294.225585938 480.865234375 l 1
192 416 m 1
 576 416 l 1
 576 0 l 1
 192 0 l 1
 192 416 l 1
256 352 m 1
 256 64 l 1
 512.000976562 64 l 1
 512.000976562 352 l 1
 256 352 l 1
EndSplineSet
LCarets2: 3 -58 -58 -58
MultipleSubs2: "CCMP cartouches" t.sona cart.body
Ligature2: "LIGA basics" s o n a
EndChar

StartChar: t.soweli
Encoding: 199 989538 100
GlifName: t.soweli
Width: 768
GlyphClass: 1
Flags: W
HStem: 0 256<64.001 128.001 192.001 256.001 320.002 384.002 448.001 508.985> 344 112<312.404 391.6> 392 111.999<456.403 535.599> 576 64<64.001 546.582>
VStem: 64.001 64<0 256> 192.001 64<0 256> 296.002 112<360.402 439.598> 320.002 64<0 256> 440.001 112<408.402 487.597> 448.001 64<0 196.965> 640.002 64<346.117 483.959>
LayerCount: 2
Fore
SplineSet
296.001953125 400 m 0xde20
 296.001953125 430.927734375 321.073242188 456 352.001953125 456 c 0
 382.9296875 456 408.001953125 430.927734375 408.001953125 400 c 0
 408.001953125 369.072265625 382.9296875 344 352.001953125 344 c 0
 321.073242188 344 296.001953125 369.072265625 296.001953125 400 c 0xde20
440.000976562 448 m 0xbca0
 440.000976562 478.927734375 465.073242188 503.999023438 496.000976562 503.999023438 c 0
 526.928710938 503.999023438 552.000976562 478.927734375 552.000976562 448 c 0
 552.000976562 417.071289062 526.928710938 392 496.000976562 392 c 0
 465.073242188 392 440.000976562 417.071289062 440.000976562 448 c 0xbca0
64.0009765625 0 m 1
 64.0009765625 256 l 1
 128.000976562 256 l 1
 128.000976562 0 l 1
 64.0009765625 0 l 1
192.000976562 0 m 1
 192.000976562 256 l 1
 256.000976562 256 l 1
 256.000976562 0 l 1
 192.000976562 0 l 1
320.001953125 0 m 1x9d20
 320.001953125 256 l 1
 384.001953125 256 l 1
 384.001953125 0 l 1
 320.001953125 0 l 1x9d20
448.000976562 0 m 1x9c60
 448.000976562 256 l 1
 480.800117467 256 l 2
 568.739225116 256.430457318 640.001953125 327.958592 640.001953125 415.999023438 c 0
 640.001953125 504.3046875 568.307617188 575.998046875 480.001953125 575.998046875 c 2
 64.0009765625 576 l 1
 64.0009765625 640 l 1
 480.001953125 640 l 2
 603.630859375 639.998046875 704.000976562 539.627929688 704.001953125 415.999023438 c 0
 704.001953125 303.233477774 620.495227649 209.817962991 512.000976562 194.270937868 c 1
 512.000976562 0 l 1
 448.000976562 0 l 1x9c60
EndSplineSet
LCarets2: 5 -58 -58 -58 -58 -58
MultipleSubs2: "CCMP cartouches" t.soweli cart.body
Ligature2: "LIGA basics" s o w e l i
EndChar

StartChar: t.suli
Encoding: 200 989539 101
GlifName: t.suli
Width: 768
GlyphClass: 1
Flags: W
HStem: -0.000976562 21G<352 416> 626.987 20G<71.9905 157.313 610.687 681.463>
VStem: 352 64<-0.000976562 156.01>
LayerCount: 2
Fore
SplineSet
86.5361328125 646.987304688 m 1
 228.088867188 544.041015625 333.793945312 396.1328125 383.999023438 223.999023438 c 1
 434.205078125 396.1328125 539.91015625 544.041015625 681.462890625 646.987304688 c 1
 681.462890625 646.987304688 719.762695312 595.608398438 719.10546875 595.229492188 c 0
 535.071289062 461.38671875 416 244.75390625 416 -0.0009765625 c 1
 416 -0.0009765625 352.657226562 -0.3798828125 352 -0.0009765625 c 0
 352 244.75390625 232.928710938 461.38671875 48.8935546875 595.229492188 c 1
 86.5361328125 646.987304688 l 1
EndSplineSet
LCarets2: 3 0 0 0
MultipleSubs2: "CCMP cartouches" t.suli cart.body
Ligature2: "LIGA basics" s u l i
EndChar

StartChar: t.suno
Encoding: 201 989540 102
GlifName: t.suno
Width: 768
GlyphClass: 1
Flags: W
HStem: 114.451 61.551<319.5 352.001 416.001 448.501> 288 64<48.001 181.695 586.307 720.001> 464 61.549<319.5 352.001 416.001 448.501>
VStem: 178.452 61.549<255.499 288 352 384.501> 352.001 64<-16 117.694 522.306 656> 528.001 61.549<255.499 288 352 384.5>
LayerCount: 2
Fore
SplineSet
352.000976562 656 m 1
 416.000976562 656 l 1
 416.000976562 525.548985742 l 1
 505.197657185 511.751509026 575.752485588 441.196680622 589.549962304 352 c 1
 720.000976562 352 l 1
 720.000976562 288 l 1
 589.549997502 288 l 1
 575.752605578 198.802699119 505.197733031 128.24835018 416.000976562 114.450990432 c 1
 416.000976562 -16 l 1
 352.000976562 -16 l 1
 352.000976562 114.450955235 l 1
 262.803599835 128.248230191 192.249206753 198.802623272 178.451931797 288 c 1
 48.0009765625 288 l 1
 48.0009765625 352 l 1
 178.451966994 352 l 1
 192.249326742 441.196756469 262.803675682 511.751629016 352.000976562 525.549020939 c 1
 352.000976562 656 l 1
384.000976562 464 m 0
 304.525390625 464 240.000976562 399.475585938 240.000976562 320 c 0
 240.000976562 240.525390625 304.525390625 176.001953125 384.000976562 176.001953125 c 0
 463.475585938 176.001953125 528 240.525390625 528.000976562 320 c 0
 528.000976562 399.475585938 463.475585938 464 384.000976562 464 c 0
EndSplineSet
LCarets2: 3 -72 -72 -72
MultipleSubs2: "CCMP cartouches" t.suno cart.body
Ligature2: "LIGA basics" s u n o
EndChar

StartChar: t.supa
Encoding: 202 989541 103
GlifName: t.supa
Width: 768
GlyphClass: 1
Flags: W
HStem: 352 64<64 192 256 512 576 704>
VStem: 192 64<160 352> 512 64<160 352>
LayerCount: 2
Fore
SplineSet
64 352 m 1
 64 416 l 1
 704 416 l 1
 704 352 l 1
 576 352 l 1
 576 160 l 1
 512 160 l 1
 512 352 l 1
 256 352 l 1
 256 160 l 1
 192 160 l 1
 192 352 l 1
 64 352 l 1
EndSplineSet
LCarets2: 3 -58 -58 -58
MultipleSubs2: "CCMP cartouches" t.supa cart.body
Ligature2: "LIGA basics" s u p a
EndChar

StartChar: t.suwi
Encoding: 203 989542 104
GlifName: t.suwi
Width: 768
GlyphClass: 1
Flags: W
HStem: 104 112<344.402 423.598>
VStem: 328 112<120.402 199.598>
LayerCount: 2
Fore
SplineSet
328 160 m 0
 328 190.927734375 353.072265625 216 384 216 c 0
 414.928710938 216 440 190.927734375 440 160 c 0
 440 129.072265625 414.928710938 104 384 104 c 0
 353.072265625 104 328 129.072265625 328 160 c 0
160 304 m 1
 80 304 l 1
 208 528 l 1
 336 304 l 1
 256 304 l 1
 208 408 l 1
 160 304 l 1
512.000976562 304 m 1
 432 304 l 1
 560.000976562 528 l 1
 688 304 l 1
 608.000976562 304 l 1
 560.000976562 408 l 1
 512.000976562 304 l 1
EndSplineSet
LCarets2: 3 -58 -58 -58
MultipleSubs2: "CCMP cartouches" t.suwi cart.body
Ligature2: "LIGA basics" s u w i
EndChar

StartChar: t.tan
Encoding: 204 989543 105
GlifName: t.tan
Width: 768
GlyphClass: 1
Flags: W
HStem: 456 64<358.768 521.234>
VStem: 160.001 64<208 319.202> 656.001 64<150.723 321.232>
LayerCount: 2
Fore
SplineSet
440.000976562 520 m 0
 594.640625 520 720.000976562 394.639648438 720.000976562 240 c 0
 720.000976562 201.36328125 712.004882812 163.145507812 696.516601562 127.75 c 1
 638.850585938 155.654296875 l 1
 650.16796875 182.333984375 656 211.018554688 656.000976562 240 c 0
 656.000976562 359.29296875 559.294921875 456 440.000976562 456 c 0
 320.70703125 456 224.000976562 359.29296875 224.000976562 240 c 2
 224.000976562 208 l 1
 304.000976562 304 l 1
 352.000976562 256 l 1
 192.000976562 96 l 1
 32.0009765625 256 l 1
 80.0009765625 304 l 1
 160.000976562 208 l 1
 160.000976562 240 l 2
 160.000976562 394.639648438 285.361328125 520 440.000976562 520 c 0
EndSplineSet
LCarets2: 2 -58 -58
MultipleSubs2: "CCMP cartouches" t.tan cart.body
Ligature2: "LIGA basics" t a n
EndChar

StartChar: t.taso
Encoding: 205 989544 106
GlifName: t.taso
Width: 768
GlyphClass: 1
Flags: W
HStem: -0 21G<416.001 480.001> 288 64<192.001 416.001> 620 20G<416.001 480.001>
VStem: 416.001 64<0 288 352 640>
LayerCount: 2
Fore
SplineSet
192.000976562 288 m 1
 192.000976562 352 l 1
 416.000976562 352 l 1
 416.000976562 640 l 1
 480.000976562 640 l 1
 480.000976562 -0 l 1
 416.000976562 -0 l 1
 416.000976562 288 l 1
 192.000976562 288 l 1
EndSplineSet
LCarets2: 3 -58 -58 -58
MultipleSubs2: "CCMP cartouches" t.taso cart.body
Ligature2: "LIGA basics" t a s o
EndChar

StartChar: t.tawa
Encoding: 206 989545 107
GlifName: t.tawa
Width: 768
GlyphClass: 1
Flags: W
HStem: 0 21G<245.144 297.334 475.557 522.858> 620 20G<302.459 407.785>
LayerCount: 2
Fore
SplineSet
403.340820312 640 m 1
 525.182617188 91.7109375 l 1
 692.936523438 169.99609375 l 1
 720.000976562 112 l 1
 480.000976562 0 l 1
 352.000976562 576 l 1
 134.692382812 142.169921875 l 1
 315.065429688 57.99609375 l 1
 288.000976562 0 l 1
 48.0009765625 112 l 1
 312.477539062 640 l 1
 403.340820312 640 l 1
EndSplineSet
LCarets2: 3 0 0 0
MultipleSubs2: "CCMP cartouches" t.tawa cart.body
Ligature2: "LIGA basics" t a w a
EndChar

StartChar: t.telo
Encoding: 207 989546 108
GlifName: t.telo
Width: 768
GlyphClass: 1
Flags: W
HStem: 55.999 64<496.052 606.968> 231.999 64<161.031 271.947> 343.999 64<496.053 606.969> 519.999 64<161.031 271.947>
VStem: 48 64<95.999 181.882 383.999 469.882> 656 63.999<170.116 255.999 458.116 543.999>
LayerCount: 2
Fore
SplineSet
48 415.999023438 m 2
 48 508.783203125 123.215820312 583.999023438 216 583.999023438 c 0
 250.643554688 583.999023438 284.439453125 573.288085938 312.759765625 553.334960938 c 2
 492.099609375 426.981445312 l 2
 509.630859375 414.62890625 530.553710938 407.999023438 552 407.999023438 c 0
 609.4375 407.999023438 656 454.561523438 656 511.999023438 c 2
 656 543.999023438 l 1
 720 543.999023438 l 1
 720 511.999023438 l 2
 720 419.21484375 644.784179688 343.999023438 552 343.999023438 c 0
 517.356445312 344 483.560546875 354.709960938 455.240234375 374.663085938 c 2
 275.900390625 501.016601562 l 2
 258.369140625 513.369140625 237.446289062 519.999023438 216 519.999023438 c 0
 158.5625 519.999023438 112 473.436523438 112 415.999023438 c 2
 112 383.999023438 l 1
 48 383.999023438 l 1
 48 415.999023438 l 2
48 127.999023438 m 2
 48 220.783203125 123.215820312 295.999023438 216 295.999023438 c 0
 250.643554688 295.999023438 284.439453125 285.288085938 312.759765625 265.334960938 c 2
 492.098632812 138.981445312 l 2
 509.630859375 126.62890625 530.552734375 119.999023438 551.999023438 119.999023438 c 0
 609.436523438 119.999023438 655.999023438 166.561523438 656 223.999023438 c 2
 656 255.999023438 l 1
 719.999023438 255.999023438 l 1
 719.999023438 223.999023438 l 2
 719.999023438 131.21484375 644.783203125 55.9990234375 551.999023438 55.9990234375 c 0
 517.35546875 56 483.559570312 66.7099609375 455.239257812 86.6630859375 c 2
 275.900390625 213.016601562 l 2
 258.369140625 225.369140625 237.446289062 231.999023438 216 231.999023438 c 0
 158.5625 231.999023438 112 185.436523438 112 127.999023438 c 2
 112 95.9990234375 l 1
 48 95.9990234375 l 1
 48 127.999023438 l 2
EndSplineSet
LCarets2: 3 -58 -58 -58
MultipleSubs2: "CCMP cartouches" t.telo cart.body
Ligature2: "LIGA basics" t e l o
EndChar

StartChar: t.tenpo
Encoding: 208 989547 109
GlifName: t.tenpo
Width: 768
GlyphClass: 1
Flags: W
HStem: -16 64<291.289 476.711> 288 64<416 544> 592 64<291.289 476.711>
VStem: 48 64<227.289 412.711> 352 64<352 560> 656 64<227.289 412.711>
CounterMasks: 1 fc
LayerCount: 2
Fore
SplineSet
384 656 m 0
 569.443359375 656 720 505.443359375 720 320 c 0
 720 134.556640625 569.443359375 -16 384 -16 c 0
 198.556640625 -16 48 134.556640625 48 320 c 0
 48 505.443359375 198.556640625 656 384 656 c 0
384 592 m 0
 233.879882812 592 112 470.12109375 112 320 c 0
 112 169.87890625 233.87890625 48 384 48 c 0
 534.12109375 48 656 169.87890625 656 320 c 0
 656 470.12109375 534.12109375 592 384 592 c 0
352 288.000976562 m 1
 352 560 l 1
 416 560 l 1
 416 352 l 1
 544 352 l 1
 544 288 l 1
 376 288 l 1
 352 288.000976562 l 1
EndSplineSet
LCarets2: 4 -58 -58 -58 -58
MultipleSubs2: "CCMP cartouches" t.tenpo cart.body
Ligature2: "LIGA basics" t e n p o
EndChar

StartChar: t.toki
Encoding: 209 989548 110
GlifName: t.toki
Width: 768
GlyphClass: 1
Flags: W
HStem: -16 63.999<313.118 454.884> 383.999 64<313.118 454.884>
VStem: 152.001 64<145.116 286.882> 352 64<496.001 656.001> 552.001 64<145.116 286.882>
LayerCount: 2
Fore
SplineSet
384.000976562 447.999023438 m 0
 512.044921875 447.999023438 616.000976562 344.043945312 616.000976562 215.999023438 c 0
 616.000976562 87.955078125 512.044921875 -16 384.000976562 -16 c 0
 255.95703125 -16 152.000976562 87.955078125 152.000976562 215.999023438 c 0
 152.000976562 344.043945312 255.956054688 447.999023438 384.000976562 447.999023438 c 0
384.000976562 383.999023438 m 0
 291.279296875 383.999023438 216.000976562 308.720703125 216.000976562 215.999023438 c 0
 216.000976562 123.27734375 291.279296875 47.9990234375 384.000976562 47.9990234375 c 0
 476.72265625 47.9990234375 552.000976562 123.27734375 552.000976562 215.999023438 c 0
 552.000976562 308.720703125 476.72265625 383.999023438 384.000976562 383.999023438 c 0
352 496.000976562 m 1
 352 656.000976562 l 1
 416 656.000976562 l 1
 416 496.000976562 l 1
 352 496.000976562 l 1
473.776367188 480.865234375 m 1
 552.220703125 620.31640625 l 1
 608.000976562 588.938476562 l 1
 529.556640625 449.48828125 l 1
 473.776367188 480.865234375 l 1
294.224609375 480.864257812 m 1
 238.444335938 449.487304688 l 1
 160.000976562 588.9375 l 1
 215.78125 620.315429688 l 1
 294.224609375 480.864257812 l 1
EndSplineSet
LCarets2: 3 -58 -58 -58
MultipleSubs2: "CCMP cartouches" t.toki cart.body
Ligature2: "LIGA basics" t o k i
EndChar

StartChar: t.tomo
Encoding: 210 989549 111
GlifName: t.tomo
Width: 768
GlyphClass: 1
Flags: W
HStem: -0.000976562 64.001<128 640.001>
VStem: 64.001 63.999<64 296> 640.001 63.999<64 296>
LayerCount: 2
Fore
SplineSet
384 656 m 1
 704 320 l 1
 704 -0.0009765625 l 1
 64.0009765625 -0.0009765625 l 1
 64.0009765625 320 l 1
 384 656 l 1
384 560 m 1
 128 296 l 1
 128 64 l 1
 640.000976562 64 l 1
 640.000976562 296 l 1
 384 560 l 1
EndSplineSet
LCarets2: 3 -58 -58 -58
MultipleSubs2: "CCMP cartouches" t.tomo cart.body
Ligature2: "LIGA basics" t o m o
EndChar

StartChar: t.tu
Encoding: 211 989550 112
GlifName: t.tu
Width: 768
GlyphClass: 1
Flags: W
HStem: -0 21G<223.999 287.999 479.999 543.999> 620 20G<223.999 287.999 479.999 543.999>
VStem: 223.999 64<0 640> 479.999 64<0 640>
LayerCount: 2
Fore
SplineSet
223.999023438 -0 m 1
 223.999023438 640 l 1
 287.999023438 640 l 1
 287.999023438 -0 l 1
 223.999023438 -0 l 1
479.999023438 -0 m 1
 479.999023438 640 l 1
 543.999023438 640 l 1
 543.999023438 -0 l 1
 479.999023438 -0 l 1
EndSplineSet
LCarets2: 1 -58
MultipleSubs2: "CCMP cartouches" t.tu cart.body
Ligature2: "LIGA basics" t u
EndChar

StartChar: t.unpa
Encoding: 212 989551 113
GlifName: t.unpa
Width: 768
GlyphClass: 1
Flags: HW
HStem: 96 192<330.34 437.658> 288 64<544 595.293> 352 192<170.341 233.906> 544 64<544 595.293>
VStem: 287.999 192<138.341 288> 640 64<395.524 500.477>
LayerCount: 2
Fore
SplineSet
224 608 m 0
 282.28515625 608 336.931640625 592.416015625 383.999023438 565.188476562 c 1
 431.067382812 592.416015625 485.713867188 608 544 608 c 0
 632.305664062 608 704 536.305664062 704 448 c 0
 704 359.693359375 632.305664062 287.999023438 544 287.999023438 c 1
 544 287.999023438 543.999023438 191.999023438 544 191.999023438 c 0
 544 103.693359375 472.305664062 32 383.999023438 32 c 0
 295.693359375 32 224 103.693359375 224 191.999023438 c 2
 224 191.999023438 224 288 224 287.999023438 c 0
 135.693359375 287.999023438 64 359.693359375 64 448 c 0
 64 536.305664062 135.693359375 608 224 608 c 0
224 544 m 0
 171.015625 544 128 500.983398438 128 448 c 0
 128 395.015625 171.015625 352 224 352 c 2
 230.399414062 352 l 1
 243.959960938 418.801757812 278.33203125 478.046875 326.451171875 522.674804688 c 1
 295.079101562 536.389648438 260.427734375 544 224 544 c 0
544 544 m 0
 507.572265625 544 472.921875 536.389648438 441.549804688 522.674804688 c 1
 489.668945312 478.046875 524.0390625 418.801757812 537.598632812 352 c 1
 544 352 l 1
 596.983398438 352 640 395.015625 640 448 c 0
 640 500.983398438 596.983398438 544 544 544 c 0
383.999023438 487.850585938 m 1
 341.471679688 453.759765625 310.059570312 406.375976562 296.064453125 352 c 1
 471.934570312 352 l 1
 457.939453125 406.375976562 426.526367188 453.759765625 383.999023438 487.850585938 c 1
287.999023438 287.999023438 m 1
 287.999023438 191.999023438 l 1
 287.999023438 139.015625 331.015625 95.9990234375 383.999023438 95.9990234375 c 0
 436.983398438 95.9990234375 479.999023438 139.015625 479.999023438 191.999023438 c 2
 479.999023438 287.999023438 l 1
 287.999023438 287.999023438 l 1
EndSplineSet
LCarets2: 3 -58 -58 -58
MultipleSubs2: "CCMP cartouches" t.unpa cart.body
Ligature2: "LIGA basics" u n p a
EndChar

StartChar: t.uta
Encoding: 213 989552 114
GlifName: t.uta
Width: 768
GlyphClass: 1
Flags: W
HStem: 48 112<344.401 423.598> 224 64<302.578 465.42> 480 64<162.296 605.702>
VStem: 327.999 112.001<64.4021 143.598>
LayerCount: 2
Fore
SplineSet
327.999023438 104 m 0
 327.999023438 134.927734375 353.071289062 160 383.999023438 160 c 0
 414.927734375 160 440 134.927734375 440 104 c 0
 440 73.072265625 414.927734375 48 383.999023438 48 c 0
 353.071289062 48 327.999023438 73.072265625 327.999023438 104 c 0
95.9990234375 544 m 1
 671.999023438 544 l 1
 671.999023438 512 l 2
 671.999023438 352.942382812 543.056640625 224 383.999023438 224 c 0
 224.940429688 224 95.9990234375 352.942382812 95.9990234375 512 c 2
 95.9990234375 544 l 1
162.295898438 480 m 1
 178.203125 369.791992188 272.6484375 288 383.999023438 288 c 0
 495.349609375 288 589.794921875 369.791992188 605.702148438 480 c 1
 162.295898438 480 l 1
EndSplineSet
LCarets2: 2 -58 -58
MultipleSubs2: "CCMP cartouches" t.uta cart.body
Ligature2: "LIGA basics" u t a
EndChar

StartChar: t.utala
Encoding: 214 989553 115
GlifName: t.utala
Width: 768
GlyphClass: 1
Flags: W
LayerCount: 2
Fore
SplineSet
587.568359375 660.700195312 m 1
 640 624 l 1
 423.061640265 314.087584633 l 1
 568.41015625 106.447265625 l 1
 663.4375 285.9453125 l 1
 720 256 l 1
 576 -16 l 1
 384.000195312 258.285435268 l 1
 192 -16.0009765625 l 1
 48.0009765625 256 l 1
 104.5625 285.9453125 l 1
 199.58984375 106.446289062 l 1
 344.938867044 314.087332795 l 1
 128 624 l 1
 180.431640625 660.701171875 l 1
 384.000341798 369.88932722 l 1
 587.568359375 660.700195312 l 1
EndSplineSet
LCarets2: 4 0 0 0 0
MultipleSubs2: "CCMP cartouches" t.utala cart.body
Ligature2: "LIGA basics" u t a l a
EndChar

StartChar: t.walo
Encoding: 215 989554 116
GlifName: t.walo
Width: 768
GlyphClass: 1
Flags: W
HStem: -0 64<152.001 616.002>
LayerCount: 2
Fore
SplineSet
250.66796875 261.333984375 m 1
 152.000976562 64 l 1
 616.001953125 64 l 1
 384.000976562 528 l 1
 250.66796875 261.333984375 l 1
658.745117188 493.255859375 m 1
 704.000976562 448 l 1
 565.334309895 309.333333333 l 1
 720.000976562 -0 l 1
 48.0009765625 -0 l 1
 202.66796875 309.333984375 l 1
 64.001953125 448 l 1
 109.255859375 493.255859375 l 1
 232.837656167 369.67335921 l 1
 384.000976562 672 l 1
 535.164212387 369.67352835 l 1
 658.745117188 493.255859375 l 1
EndSplineSet
LCarets2: 3 -58 -58 -58
MultipleSubs2: "CCMP cartouches" t.walo cart.body
Ligature2: "LIGA basics" w a l o
EndChar

StartChar: t.wan
Encoding: 216 989555 117
GlifName: t.wan
Width: 768
GlyphClass: 1
Flags: W
HStem: -0 21G<384.001 448.001> 620 20G<367.334 448.001>
VStem: 384.001 64<0 540.029>
LayerCount: 2
Fore
SplineSet
384.000976562 640 m 1
 448.000976562 640 l 1
 448.000976562 -0 l 1
 384.000976562 -0 l 1
 384.000976562 540.028741456 l 1
 273.16796875 407.028320312 l 1
 224.000976562 448 l 1
 384.000976562 640 l 1
EndSplineSet
LCarets2: 2 -58 -58
MultipleSubs2: "CCMP cartouches" t.wan cart.body
Ligature2: "LIGA basics" w a n
EndChar

StartChar: t.waso
Encoding: 217 989556 118
GlifName: t.waso
Width: 768
GlyphClass: 1
Flags: W
HStem: 127.999 64<256.001 562.461> 248 112<136.403 215.599> 296 112<280.403 359.599>
VStem: 120.001 112<264.402 343.598> 192.001 64<-32.001 127.999> 264.001 112<312.402 391.598>
LayerCount: 2
Fore
SplineSet
120.000976562 304 m 0xd4
 120.000976562 334.927734375 145.073242188 360 176.000976562 360 c 0
 206.928710938 360 232.000976562 334.927734375 232.000976562 304 c 0
 232.000976562 273.072265625 206.928710938 248 176.000976562 248 c 0
 145.073242188 248 120.000976562 273.072265625 120.000976562 304 c 0xd4
264.000976562 352 m 0
 264.000976562 382.927734375 289.073242188 408 320.000976562 408 c 0
 350.928710938 408 376.000976562 382.927734375 376.000976562 352 c 0
 376.000976562 321.072265625 350.928710938 296 320.000976562 296 c 0xa4
 289.073242188 296 264.000976562 321.072265625 264.000976562 352 c 0
256.000976562 640 m 1x8c
 308.82421875 676.133789062 l 1
 640.000976562 192 l 1
 640.000976562 191.999023438 l 1
 640.000976562 127.999023438 l 1
 256.000976562 127.999023438 l 1
 256.000976562 -32.0009765625 l 1
 192.000976562 -32.0009765625 l 1
 192.000976562 127.999023438 l 1
 192.000976562 143.999023438 l 1
 192.000976562 191.999023438 l 1
 562.460707874 191.999023438 l 1
 256.000976562 640 l 1x8c
EndSplineSet
LCarets2: 3 -58 -58 -58
MultipleSubs2: "CCMP cartouches" t.waso cart.body
Ligature2: "LIGA basics" w a s o
EndChar

StartChar: t.wawa
Encoding: 218 989557 119
GlifName: t.wawa
Width: 768
GlyphClass: 1
Flags: W
HStem: 111.999 64<326.761 441.242> 399.999 64<326.761 441.242>
VStem: 208.001 64<230.759 345.24> 496.001 64.002<230.759 345.24>
LayerCount: 2
Fore
SplineSet
192.001953125 144 m 1
 129.587890625 129.83984375 l 1
 32.0009765625 559.999023438 l 1
 94.4150390625 574.158203125 l 1
 192.001953125 144 l 1
576.000976562 144 m 1
 673.587890625 574.159179688 l 1
 736.000976562 559.999023438 l 1
 638.415039062 129.840820312 l 1
 576.000976562 144 l 1
384.000976562 463.999023438 m 0
 481.138671875 463.999023438 560.002929688 385.13671875 560.002929688 288 c 0
 560.002929688 190.862304688 481.138671875 111.999023438 384.000976562 111.999023438 c 0
 286.864257812 112 208.001953125 190.862304688 208.000976562 288 c 0
 208.001953125 385.13671875 286.864257812 463.999023438 384.000976562 463.999023438 c 0
384.000976562 399.999023438 m 0
 322.186523438 399.999023438 272.001953125 349.813476562 272.000976562 288 c 0
 272.000976562 226.185546875 322.186523438 176 384.000976562 175.999023438 c 0
 445.815429688 175.999023438 496.000976562 226.184570312 496.000976562 288 c 0
 496.000976562 349.814453125 445.815429688 399.999023438 384.000976562 399.999023438 c 0
EndSplineSet
LCarets2: 3 -58 -58 -58
MultipleSubs2: "CCMP cartouches" t.wawa cart.body
Ligature2: "LIGA basics" w a w a
EndChar

StartChar: t.weka
Encoding: 219 989558 120
GlifName: t.weka
Width: 768
GlyphClass: 1
Flags: W
HStem: -0.000976562 21G<89.2557 129.255 638.746 678.746> 619.999 20G<89.2549 129.255 638.746 678.747>
LayerCount: 2
Fore
SplineSet
109.254882812 639.999023438 m 1
 326.627929688 422.625976562 l 1
 281.375 377.373046875 l 1
 64.0009765625 594.745117188 l 1
 109.254882812 639.999023438 l 1
658.74609375 639.999023438 m 1
 704.000976562 594.745117188 l 1
 486.627929688 377.373046875 l 1
 441.372070312 422.627929688 l 1
 658.74609375 639.999023438 l 1
281.372070312 262.627929688 m 1
 326.627929688 217.372070312 l 1
 109.254882812 -0.0009765625 l 1
 64.0009765625 45.2548828125 l 1
 281.372070312 262.627929688 l 1
486.627929688 262.626953125 m 1
 704.000976562 45.2548828125 l 1
 658.74609375 -0.0009765625 l 1
 441.374023438 217.372070312 l 1
 486.627929688 262.626953125 l 1
EndSplineSet
LCarets2: 3 -58 -58 -58
MultipleSubs2: "CCMP cartouches" t.weka cart.body
Ligature2: "LIGA basics" w e k a
EndChar

StartChar: t.wile
Encoding: 220 989559 121
GlifName: t.wile
Width: 768
GlyphClass: 1
Flags: W
HStem: 47.998 64.002<172.917 291.732 475.599 595.853>
VStem: 48 64.025<171.66 365.43> 352.001 63.999<172.269 255.999> 655.951 64.0494<172.269 365.43>
LayerCount: 2
Fore
SplineSet
49.1723276717 224.145562161 m 1
 48.4534612688 224.104829847 48.0444655429 224.056375859 48.0014326951 223.999202522 c 1
 49.1723276717 224.145562161 l 1
352.000976562 231.999023438 m 2
 352 255.999023438 l 1
 416 255.999023438 l 1
 416 231.999023438 l 1
 415.818359379 231.999023438 l 1
 415.818359379 165.72505817 469.545247391 112 535.818359375 112 c 0
 602.092773438 112 655.818359375 165.725585938 655.818359375 232 c 1
 655.950569693 231.983473962 l 1
 654.46894791 351.597354717 619.749285796 463.985630851 561.171875 559.244140625 c 1
 561.576171875 558.560546875 616.1171875 592.068359375 616.1171875 592.068359375 c 1
 681.719726562 485.106445312 720 358.559570312 720 223.997070312 c 1
 719.961202834 224.062668151 719.44337413 224.116858007 718.530278147 224.161129765 c 1
 719.819335938 224 l 1
 719.819335938 126.796875 641.021484375 47.998046875 543.819335938 47.998046875 c 0
 472.900797336 47.998046875 411.779445214 89.9429175183 383.909945049 150.377614065 c 1
 356.040146439 89.9430930043 294.918686954 47.998046875 224 47.998046875 c 0
 126.798499865 47.998046875 48.0010511062 126.795823885 48.0000024376 223.997078533 c 0
 48.0000000169 358.560794835 86.280590837 485.106962817 151.8828125 592.068359375 c 1
 151.8828125 592.068359375 206.423828125 558.560546875 206.828125 559.244140625 c 1
 147.858117759 463.345627016 113.066570305 350.086397717 112.025043787 229.571585017 c 0
 113.31784074 164.41862741 166.537628555 111.999023406 232.000976562 111.999023438 c 0
 298.275390625 111.999023438 352.000976562 165.725585938 352.000976562 231.999023438 c 2
EndSplineSet
LCarets2: 3 -58 -58 -58
MultipleSubs2: "CCMP cartouches" t.wile cart.body
Ligature2: "LIGA basics" w i l e
EndChar

StartChar: i
Encoding: 73 105 122
GlifName: glyph122
Width: 384
VWidth: 691
Flags: W
HStem: 0 21G<192 256> 384 64<64 192> 503.999 112<184.402 263.598>
VStem: 168 112<520.401 599.597> 192 64<0 384>
LayerCount: 2
Fore
SplineSet
224 615.999023438 m 0xf0
 254.927734375 615.999023438 280 590.927734375 280 559.999023438 c 0
 280 529.071289062 254.927734375 503.999023438 224 503.999023438 c 0
 193.072265625 503.999023438 168 529.071289062 168 559.999023438 c 0
 168 590.927734375 193.072265625 615.999023438 224 615.999023438 c 0xf0
64 384 m 1
 64 448 l 1
 256 448 l 1
 256 399.999023438 l 1
 256 384 l 1
 256 0 l 1
 192 0 l 1
 192 384 l 1xe8
 64 384 l 1
EndSplineSet
MultipleSubs2: "CCMP cartouches" i cart.hwbody
EndChar

StartChar: j
Encoding: 74 106 123
GlifName: glyph123
Width: 384
VWidth: -76
Flags: W
HStem: -71.998 63.998<137.964 228.694> 384 64<176.001 256> 503.999 112<248.403 327.599>
VStem: 232.001 112<520.401 599.597> 256.001 63.999<20.4008 384>
LayerCount: 2
Fore
SplineSet
288.000976562 615.999023438 m 0xf0
 318.928710938 615.999023438 344.000976562 590.927734375 344.000976562 559.999023438 c 0
 344.000976562 529.071289062 318.928710938 503.999023438 288.000976562 503.999023438 c 0
 257.072265625 503.999023438 232.000976562 529.071289062 232.000976562 559.999023438 c 0
 232.000976562 590.927734375 257.072265625 615.999023438 288.000976562 615.999023438 c 0xf0
176.000976562 384 m 1
 176.000976562 448 l 1
 320.000976562 448 l 1
 320.000976562 384 l 1
 320 63.9999934176 l 2
 320 -11.0595703125 259.060546875 -71.998046875 184.000976562 -71.998046875 c 0
 132.014648438 -71.998046875 86.8857421875 -42.9072265625 64.0009765625 0.001953125 c 1
 64.0009765625 0.001953125 115.64453125 41.3408203125 115.663085938 41.3291015625 c 0
 125.166992188 12.6787109375 152.177734375 -8 184.000976562 -8 c 0
 223.737630222 -8 255.999919422 24.2606616527 256.000976537 63.998046875 c 2xe8
 256 384 l 1
 176.000976562 384 l 1
EndSplineSet
MultipleSubs2: "CCMP cartouches" j cart.hwbody
EndChar

StartChar: o
Encoding: 79 111 124
GlifName: glyph124
Width: 384
VWidth: -76
Flags: W
HStem: -8 64<139.414 244.584> 383.999 64.001<139.414 244.584>
VStem: 31.999 64<100.577 339.422> 287.999 64<100.577 339.422>
LayerCount: 2
Fore
SplineSet
191.999023438 448 m 0
 280.639648438 448 351.999023438 376.639648438 351.999023438 287.999023438 c 2
 351.999023438 152 l 2
 351.999023438 63.359375 280.639648438 -8 191.999023438 -8 c 0
 103.359375 -8 31.9990234375 63.359375 31.9990234375 152 c 2
 31.9990234375 287.999023438 l 2
 31.9990234375 376.639648438 103.359375 448 191.999023438 448 c 0
191.999023438 383.999023438 m 0
 138.815429688 383.999023438 95.9990234375 341.18359375 95.9990234375 287.999023438 c 2
 95.9990234375 152 l 2
 95.9990234375 98.8154296875 138.815429688 56 191.999023438 56 c 0
 245.18359375 56 287.999023438 98.8154296875 287.999023438 152 c 2
 287.999023438 287.999023438 l 2
 287.999023438 341.18359375 245.18359375 383.999023438 191.999023438 383.999023438 c 0
EndSplineSet
MultipleSubs2: "CCMP cartouches" o cart.hwbody
EndChar

StartChar: a
Encoding: 65 97 125
GlifName: glyph125
Width: 384
VWidth: -76
Flags: W
HStem: -8 55.999<138.581 245.72> -0.00195312 21G<288 352> 239.999 56<138.581 245.72> 384 64<128.601 238.948>
VStem: 32 64<91.0497 196.949> 288 64<-0.00195312 33.1883 90.3403 197.658 254.811 279.999 280 333.858>
LayerCount: 2
Fore
SplineSet
288 254.810574349 m 1xbc
 288 279.999023438 l 1
 352 279.999023438 l 1
 352 -0.001953125 l 1
 288 -0.001953125 l 1x7c
 288 33.1883415157 l 1
 260.802761348 7.65076960758 224.214808103 -8 184 -8 c 0
 100.109375 -8 32 60.1083984375 32 143.999023438 c 0
 32 227.890625 100.109375 295.999023438 184 295.999023438 c 0
 224.214808103 295.999023438 260.802761348 280.34825383 288 254.810574349 c 1xbc
184 448 m 0
 276.721679688 448 352 372.720703125 352 280 c 1
 288 280 l 1
 288 337.3984375 241.399414062 383.999023438 184 384 c 0
 137.765625 383.999023438 98.5615234375 353.7734375 85.05078125 312.013671875 c 1
 85.05078125 312.013671875 31.9091796875 351.405273438 32 351.5546875 c 0
 58.8603515625 408.61328125 116.8046875 448 184 448 c 0
192 239.999023438 m 0
 139.015625 239.999023438 96 196.983398438 96 143.999023438 c 0
 96 91.015625 139.015625 47.9990234375 192 47.9990234375 c 0xbc
 244.983398438 47.9990234375 288 91.015625 288 143.999023438 c 0
 288 196.983398438 244.983398438 239.999023438 192 239.999023438 c 0
EndSplineSet
MultipleSubs2: "CCMP cartouches" a cart.hwbody
EndChar

StartChar: A
Encoding: 33 65 126
Width: 384
VWidth: 691
Flags: W
HStem: -0.000976562 21G<31.999 100.169 283.829 351.999> 191.999 64<139.147 244.851> 619.999 20G<134.399 249.599>
LayerCount: 2
Fore
SplineSet
139.147460938 255.999023438 m 1
 244.850585938 255.999023438 l 1
 191.999023438 575.999023438 l 1
 139.147460938 255.999023438 l 1
137.702148438 639.999023438 m 1
 246.295898438 639.999023438 l 1
 351.999023438 -0.0009765625 l 1
 287.131835938 -0.0009765625 l 1
 255.420898438 191.999023438 l 1
 128.577148438 191.999023438 l 1
 96.8662109375 -0.0009765625 l 1
 31.9990234375 -0.0009765625 l 1
 137.702148438 639.999023438 l 1
EndSplineSet
MultipleSubs2: "CCMP cartouches" A cart.hwbody
EndChar

StartChar: B
Encoding: 34 66 127
Width: 384
VWidth: 691
Flags: W
HStem: -0.000976562 64<96 254.165> 287.999 64<96 255.865> 576 64<96 254.165>
VStem: 32 64<63.999 287.999 351.999 576> 288.001 63.999<97.8347 255.116 384.883 542.163>
LayerCount: 2
Fore
SplineSet
32 -0 m 1
 32 640 l 1
 89.3603515625 640 l 1
 96 640 l 1
 208 640 l 1
 208 639.999023438 l 1
 287.4765625 639.999023438 352 575.474609375 352 495.999023438 c 2
 352 447.999023438 l 2
 352 392.272500856 320.344974093 343.938767959 274.035113011 319.999023438 c 1
 320.344974093 296.059278916 352 247.725546019 352 191.999023438 c 2
 352 143.999023438 l 2
 352 64.5234375 287.4765625 -0.0009765625 208 -0.0009765625 c 2
 89.3603515625 -0.0009765625 l 1
 89.3603515625 -0 l 1
 32 -0 l 1
288.000976562 143.999023438 m 1
 288 207.999023438 l 2
 288 252.181640625 252.182617188 287.999023438 208 287.999023438 c 2
 96 287.999023438 l 1
 96 63.9990234375 l 1
 208 63.9990234375 l 2
 252.153320312 63.9990234375 288 99.845703125 288 143.999023438 c 1
 288.000976562 143.999023438 l 1
288.000976562 495.999023438 m 1
 288 495.999023438 l 1
 288 540.15234375 252.153320312 575.999023438 208 575.999023438 c 1
 208 576 l 1
 96 576 l 1
 96 351.999023438 l 1
 208 351.999023438 l 2
 252.182617188 351.999023438 288 387.81640625 288 431.999023438 c 2
 288.000976562 495.999023438 l 1
EndSplineSet
MultipleSubs2: "CCMP cartouches" B cart.hwbody
EndChar

StartChar: C
Encoding: 35 67 128
Width: 384
VWidth: 700
Flags: W
HStem: -8.00098 64<150.76 266.26> 583.999 64<150.759 266.26>
VStem: 31.999 64<111.576 167.999 168 528.422>
LayerCount: 2
Fore
SplineSet
207.999023438 647.999023438 m 0
 267.556640625 647.999023438 320.146484375 618.51953125 351.999023438 573.192382812 c 1
 306.524414062 525.258789062 l 1
 287.5859375 560.293945312 250.587890625 583.999023438 207.999023438 583.999023438 c 0
 146.185546875 583.999023438 95.9990234375 533.813476562 95.9990234375 471.999023438 c 1
 95.9990234375 471.999023438 32 472 31.9990234375 471.999023438 c 1
 95.9990234375 471.999023438 l 1
 95.9990234375 168 l 1
 31.9990234375 168 l 1
 31.9990234375 471.999023438 l 2
 31.9990234375 569.135742188 110.862304688 647.999023438 207.999023438 647.999023438 c 0
208 -8.0009765625 m 0
 110.86328125 -8.0009765625 32 70.8623046875 32 167.999023438 c 1
 96 167.999023438 l 1
 96 106.184570312 146.185546875 55.9990234375 208 55.9990234375 c 0
 250.587890625 56 287.5859375 79.705078125 306.524414062 114.739257812 c 0
 306.594726562 114.856445312 352 66.8056640625 352 66.8056640625 c 1
 320.146484375 21.478515625 267.556640625 -8.0009765625 208 -8.0009765625 c 0
EndSplineSet
MultipleSubs2: "CCMP cartouches" C cart.hwbody
EndChar

StartChar: D
Encoding: 36 68 129
Width: 384
VWidth: 691
Flags: W
HStem: -0.000976562 64<96 254.165> 575.999 64.001<96 254.165>
VStem: 32 64<63.999 575.999> 288 64.001<97.8347 143.999 144 495.999 496 542.164>
LayerCount: 2
Fore
SplineSet
288 144 m 1
 288 495.999023438 l 1
 352.000976562 495.999023438 l 1
 352.000976562 144 l 1
 288 144 l 1
32 -0 m 1
 32 640 l 1
 96 640 l 1
 208 640 l 2
 287.4765625 640 352 575.475585938 352 496 c 1
 288 496 l 1
 288 540.15234375 252.153320312 575.999023438 208 575.999023438 c 2
 96 575.999023438 l 1
 96 63.9990234375 l 1
 208 63.9990234375 l 1
 208 64 l 1
 252.153320312 64 288 99.8466796875 288 143.999023438 c 1
 352 143.999023438 l 1
 352 64.5234375 287.4765625 -0.0009765625 208 -0.0009765625 c 2
 96 -0.0009765625 l 1
 96 -0 l 1
 32 -0 l 1
EndSplineSet
MultipleSubs2: "CCMP cartouches" D cart.hwbody
EndChar

StartChar: E
Encoding: 37 69 130
Width: 384
VWidth: 691
Flags: W
HStem: -0.000976562 64<96.001 352.001> 319.999 64<96.001 288.001> 576 64<96.001 352.001>
VStem: 32.001 64<63.999 319.999 383.999 576>
LayerCount: 2
Fore
SplineSet
96.0009765625 63.9990234375 m 1
 352.000976562 63.9990234375 l 1
 352.000976562 -0.0009765625 l 1
 96.0009765625 -0.0009765625 l 1
 32.0009765625 -0.0009765625 l 1
 32.0009765625 576 l 1
 32.0009765625 640 l 1
 352.000976562 640 l 1
 352.000976562 576 l 1
 96.0009765625 576 l 1
 96.0009765625 383.999023438 l 1
 288.000976562 383.999023438 l 1
 288.000976562 319.999023438 l 1
 96.0009765625 319.999023438 l 1
 96.0009765625 63.9990234375 l 1
EndSplineSet
MultipleSubs2: "CCMP cartouches" E cart.hwbody
EndChar

StartChar: F
Encoding: 38 70 131
Width: 384
VWidth: 691
Flags: W
HStem: -0.000976562 21G<31.999 95.999> 287.999 64<95.999 288> 576 64<95.999 351.999>
VStem: 31.999 64<-0.000976562 287.999 351.999 576>
LayerCount: 2
Fore
SplineSet
95.9990234375 351.999023438 m 1
 288 351.999023438 l 1
 288 287.999023438 l 1
 95.9990234375 287.999023438 l 1
 95.9990234375 -0.0009765625 l 1
 31.9990234375 -0.0009765625 l 1
 31.9990234375 576 l 1
 31.9990234375 640 l 1
 351.999023438 640 l 1
 351.999023438 576 l 1
 95.9990234375 576 l 1
 95.9990234375 351.999023438 l 1
EndSplineSet
MultipleSubs2: "CCMP cartouches" F cart.hwbody
EndChar

StartChar: G
Encoding: 39 71 132
Width: 384
VWidth: 700
Flags: W
HStem: -8.00098 64<139.186 242.18> -0.000976562 21G<288 352> 287.999 64<160 288> 583.999 64<150.76 266.261>
VStem: 32 64<100.029 528.422> 288 64<-0.000976562 45.525 98.3406 287.999>
LayerCount: 2
Fore
SplineSet
160 287.999023438 m 1xbc
 160 351.999023438 l 1
 288 351.999023438 l 1
 336 351.999023438 l 1
 352 351.999023438 l 1
 352 -0.0009765625 l 1
 288 -0.0009765625 l 1x7c
 288 45.5249749807 l 1
 261.591781897 12.8839106996 221.215545149 -8.0009765625 176 -8.0009765625 c 0
 96.5244140625 -8.0009765625 32 56.5234375 32 135.999023438 c 2
 32 471.999023438 l 1
 96 471.999023438 l 1
 96 471.999023438 32.0009765625 472 32 471.999023438 c 1
 32 569.135742188 110.86328125 647.999023438 208.000976562 647.999023438 c 0
 267.557617188 647.999023438 320.147460938 618.51953125 352.000976562 573.192382812 c 1
 306.525390625 525.258789062 l 1
 287.586914062 560.293945312 250.588867188 583.999023438 208.000976562 583.999023438 c 0
 146.186523438 583.999023438 96 533.813476562 96 471.999023438 c 2
 96 151.999023438 l 2
 96 99.015625 139.016601562 56 192 55.9990234375 c 0
 244.983398438 56 288 99.015625 288 151.999023438 c 2
 288 287.999023438 l 1
 160 287.999023438 l 1xbc
EndSplineSet
MultipleSubs2: "CCMP cartouches" G cart.hwbody
EndChar

StartChar: H
Encoding: 40 72 133
Width: 384
VWidth: 691
Flags: W
HStem: -0 21G<31.999 95.999 288 352> 287.999 64<95.999 288> 620 20G<31.999 95.999 288 352>
VStem: 31.999 64<0 287.999 351.999 640> 288 64<0 287.999 351.999 640>
LayerCount: 2
Fore
SplineSet
31.9990234375 -0 m 1
 31.9990234375 640 l 1
 95.9990234375 640 l 1
 95.9990234375 351.999023438 l 1
 288 351.999023438 l 1
 288 640 l 1
 352 640 l 1
 352 -0 l 1
 288 -0 l 1
 288 287.999023438 l 1
 95.9990234375 287.999023438 l 1
 95.9990234375 -0 l 1
 31.9990234375 -0 l 1
EndSplineSet
MultipleSubs2: "CCMP cartouches" H cart.hwbody
EndChar

StartChar: I
Encoding: 41 73 134
Width: 384
VWidth: 691
Flags: W
HStem: -0.000976562 64<63.999 160 224 319.999> 576 64<63.999 160 224 319.999>
VStem: 160 64<63.999 576>
LayerCount: 2
Fore
SplineSet
63.9990234375 -0.0009765625 m 1
 63.9990234375 63.9990234375 l 1
 160 63.9990234375 l 1
 160 576 l 1
 63.9990234375 576 l 1
 63.9990234375 640 l 1
 319.999023438 640 l 1
 319.999023438 576 l 1
 224 576 l 1
 224 63.9990234375 l 1
 319.999023438 63.9990234375 l 1
 319.999023438 -0.0009765625 l 1
 63.9990234375 -0.0009765625 l 1
EndSplineSet
MultipleSubs2: "CCMP cartouches" I cart.hwbody
EndChar

StartChar: J
Encoding: 42 74 135
Width: 384
VWidth: 691
Flags: W
HStem: -8.00098 64<117.738 233.239> 620 20G<288 352>
VStem: 288 64<111.576 167.999 168 640>
LayerCount: 2
Fore
SplineSet
175.998046875 -8.0009765625 m 0
 116.44140625 -8.0009765625 63.8515625 21.478515625 31.998046875 66.8056640625 c 1
 77.4736328125 114.739257812 l 1
 96.412109375 79.705078125 133.41015625 56 175.998046875 55.9990234375 c 0
 237.8125 55.9990234375 287.999023438 106.184570312 287.999023438 167.999023438 c 1
 287.999023438 167.999023438 351.998046875 167.999023438 351.999023438 167.999023438 c 1
 351.999023438 70.8623046875 273.135742188 -8.0009765625 175.998046875 -8.0009765625 c 0
352 168 m 1
 288 168 l 1
 288 640 l 1
 352 640 l 1
 352 168 l 1
EndSplineSet
MultipleSubs2: "CCMP cartouches" J cart.hwbody
EndChar

StartChar: K
Encoding: 43 75 136
Width: 384
VWidth: 691
Flags: W
HStem: -0.000976562 21G<32 96 261.747 352> 619.999 20G<32 96 261.747 352>
VStem: 32 64<-0.000976562 255.999 371.378 640>
LayerCount: 2
Fore
SplineSet
275.080078125 639.999023438 m 1
 352 639.999023438 l 1
 138.666666667 319.999023438 l 1
 352 -0.0009765625 l 1
 275.080078125 -0.0009765625 l 1
 100.206975413 262.309486557 l 1
 96 255.999023438 l 1
 96 -0.0009765625 l 1
 32 -0.0009765625 l 1
 32 640 l 1
 96 640 l 1
 96 371.378077736 l 1
 275.080078125 639.999023438 l 1
EndSplineSet
MultipleSubs2: "CCMP cartouches" K cart.hwbody
EndChar

StartChar: L
Encoding: 44 76 137
Width: 384
VWidth: 691
Flags: W
HStem: -0.000976562 64<96 352> 620 20G<32 96>
VStem: 32 64<63.999 640>
LayerCount: 2
Fore
SplineSet
32 -0 m 1
 32 640 l 1
 96 640 l 1
 96 63.9990234375 l 1
 352 63.9990234375 l 1
 352 -0.0009765625 l 1
 64 -0.0009765625 l 1
 32 -0 l 1
EndSplineSet
MultipleSubs2: "CCMP cartouches" L cart.hwbody
EndChar

StartChar: M
Encoding: 45 77 138
Width: 384
VWidth: 691
Flags: W
HStem: -0.000976562 21G<16 80 304 368> 619.999 20G<16 138.191 245.809 368>
VStem: 16 64<-0.000976562 575.999> 304 64<-0.000976562 575.999>
LayerCount: 2
Fore
SplineSet
16 639.999023438 m 1
 70.5390625 639.999023438 l 1
 135.234375 639.999023438 l 1
 143.3125 585.358398438 l 1
 192 255.999023438 l 1
 240.6875 585.358398438 l 1
 248.765625 639.999023438 l 1
 313.4609375 639.999023438 l 1
 368 639.999023438 l 1
 368 -0.0009765625 l 1
 304 -0.0009765625 l 1
 304 575.999023438 l 1
 255.3125 246.639648438 l 1
 247.234375 191.999023438 l 1
 136.765625 191.999023438 l 1
 128.6875 246.639648438 l 1
 80 575.999023438 l 1
 80 -0.0009765625 l 1
 16 -0.0009765625 l 1
 16 639.999023438 l 1
EndSplineSet
MultipleSubs2: "CCMP cartouches" M cart.hwbody
EndChar

StartChar: N
Encoding: 46 78 139
Width: 384
VWidth: 691
Flags: W
HStem: -0.000976562 21G<32 96 232.924 352> 619.999 20G<32 151.078 288 352>
VStem: 32 64<-0.000976562 576.001> 288 64<64.0049 639.999>
LayerCount: 2
Fore
SplineSet
32 639.999023438 m 1
 80.240234375 639.999023438 l 1
 146.15234375 639.999023438 l 1
 288 64.0048828125 l 1
 288 639.999023438 l 1
 352 639.999023438 l 1
 352 -0.0009765625 l 1
 303.76171875 -0.0009765625 l 1
 237.849609375 -0.0009765625 l 1
 96 576.000976562 l 1
 96 -0.0009765625 l 1
 32 -0.0009765625 l 1
 32 639.999023438 l 1
EndSplineSet
MultipleSubs2: "CCMP cartouches" N cart.hwbody
EndChar

StartChar: O
Encoding: 47 79 140
Width: 384
VWidth: 691
Flags: W
HStem: -8.00098 64<139.414 244.584> 583.999 64<139.414 244.584>
VStem: 31.999 64<100.576 539.422> 287.999 64.001<100.576 539.422>
LayerCount: 2
Fore
SplineSet
191.999023438 647.999023438 m 0
 280.639648438 647.999023438 352 576.639648438 352 487.999023438 c 2
 352 151.999023438 l 2
 352 63.359375 280.639648438 -8.0009765625 191.999023438 -8.0009765625 c 0
 103.359375 -8.0009765625 31.9990234375 63.359375 31.9990234375 151.999023438 c 2
 31.9990234375 487.999023438 l 2
 31.9990234375 576.639648438 103.359375 647.999023438 191.999023438 647.999023438 c 0
191.999023438 583.999023438 m 0
 138.815429688 583.999023438 95.9990234375 541.182617188 95.9990234375 487.999023438 c 2
 95.9990234375 151.999023438 l 2
 95.9990234375 98.8154296875 138.815429688 55.9990234375 191.999023438 55.9990234375 c 0
 245.18359375 55.9990234375 287.999023438 98.8154296875 287.999023438 151.999023438 c 2
 287.999023438 487.999023438 l 2
 287.999023438 541.182617188 245.18359375 583.999023438 191.999023438 583.999023438 c 0
EndSplineSet
MultipleSubs2: "CCMP cartouches" O cart.hwbody
EndChar

StartChar: P
Encoding: 48 80 141
Width: 384
VWidth: 691
Flags: W
HStem: -0 21G<32 96> 255.999 64<96 254.164> 576 64<96 254.164>
VStem: 32 64<0 255.999 319.999 576 639.999 639.999> 288 64<353.835 495.999 496 542.164>
LayerCount: 2
Fore
SplineSet
32 639.999023438 m 1
 32 639.999023438 32 640 64 640 c 0
 96 640 96 640 96 639.999023438 c 1
 96 640 l 1
 208 640 l 2
 287.475585938 640 352 575.475585938 352 496 c 1
 287.999023438 496 l 1
 287.999023438 540.15234375 252.15234375 575.999023438 208 575.999023438 c 1
 208 576 l 1
 96 576 l 1
 96 319.999023438 l 1
 208 319.999023438 l 2
 252.15234375 320 287.999023438 355.846679688 287.999023438 399.999023438 c 1
 288 399.999023438 l 1
 288 495.999023438 l 1
 352 495.999023438 l 1
 352 399.999023438 l 2
 352 320.5234375 287.475585938 255.999023438 208 255.999023438 c 2
 96 255.999023438 l 1
 96 -0 l 1
 96 -0 96 -0 64 -0 c 0
 32 -0 32 -0 32 -0 c 1
 32 639.999023438 l 1
EndSplineSet
MultipleSubs2: "CCMP cartouches" P cart.hwbody
EndChar

StartChar: Q
Encoding: 49 81 142
Width: 384
VWidth: 700
Flags: W
HStem: 31.999 64.001<139.415 217.81> 583.999 64<139.415 244.585>
VStem: 32.001 63.999<140.577 539.422> 288 64.001<138.133 539.422>
LayerCount: 2
Fore
SplineSet
192 647.999023438 m 0
 280.640625 647.999023438 352.000976562 576.639648438 352.000976562 487.999023438 c 2
 352.000976562 192 l 2
 352.000976562 145.43244365 332.305873429 103.634157071 300.756988072 74.4464611706 c 1
 336 -0.0009765625 l 1
 278.154296875 -27.38671875 l 1
 245.701583504 41.165958867 l 1
 228.930070503 35.2281957204 210.856015528 31.9990234375 192 31.9990234375 c 0
 103.360351562 31.9990234375 32.0009765625 103.359375 32.0009765625 192 c 2
 32.0009765625 487.999023438 l 2
 32.0009765625 576.639648438 103.360351562 647.999023438 192 647.999023438 c 0
192 583.999023438 m 0
 138.81640625 583.999023438 96 541.182617188 96 487.999023438 c 2
 96 192 l 2
 96 138.815429688 138.81640625 96 192 96 c 0
 201.039993063 96 209.780409691 97.2369871599 218.061914451 99.5516260484 c 1
 144 255.999023438 l 1
 201.84765625 283.3828125 l 1
 271.0003274 137.304515047 l 1
 281.726891145 152.804004587 288 171.642384226 288 192 c 2
 288 487.999023438 l 2
 288 541.182617188 245.184570312 583.999023438 192 583.999023438 c 0
EndSplineSet
MultipleSubs2: "CCMP cartouches" Q cart.hwbody
EndChar

StartChar: R
Encoding: 50 82 143
Width: 384
VWidth: 691
Flags: W
HStem: -0.000976562 21G<32 96 271.722 352> 255.999 64<96 160> 576 64<96 207.999 208 254.164>
VStem: 32 64<0 255.999 319.999 576 639.999 639.999> 288 64<352.147 495.999 496 542.164>
LayerCount: 2
Fore
SplineSet
208 640 m 1
 287.475585938 640 352 575.475585938 352 496 c 1
 288 496 l 1
 287.999023438 540.15234375 252.153320312 575.999023438 208 575.999023438 c 1
 208 640 l 1
32 639.999023438 m 1
 32 639.999023438 32 640 64 640 c 0
 96 640 96 640 96 639.999023438 c 1
 96 640 l 1
 207.999023438 640 l 1
 207.999023438 576 l 1
 96 576 l 1
 96 319.999023438 l 1
 208 319.999023438 l 2
 252.153320312 320 287.999023438 355.846679688 288 399.999023438 c 2
 288 495.999023438 l 1
 352 495.999023438 l 1
 352 399.999023438 l 2
 352 328.00866264 299.05739668 268.285812882 230.016392372 257.674676494 c 1
 352 -0.0009765625 l 1
 281.189453125 -0.0009765625 l 1
 160 255.999023438 l 1
 96 255.999023438 l 1
 96 -0 l 1
 96 -0 96 -0 64 -0 c 0
 32 -0 32 -0 32 -0 c 1
 32 639.999023438 l 1
EndSplineSet
MultipleSubs2: "CCMP cartouches" R cart.hwbody
EndChar

StartChar: S
Encoding: 51 83 144
Width: 384
VWidth: 691
Flags: W
HStem: 0 64.001<134.929 192 192.001 243.294> 160.001 31.999<288 352> 288 64<140.706 243.294> 576 64<139.524 249.562>
VStem: 32 64<396.707 531.294> 288 64<108.707 243.294>
LayerCount: 2
Fore
SplineSet
192.000976562 0 m 1
 192.000976562 64.0009765625 l 1
 244.984375 64.0009765625 288 107.016601562 288 160.000976562 c 1
 288 160.000976562 352 160 352 160.000976562 c 0
 288 160.000976562 l 1
 288 192 l 1
 352 192 l 1
 352 192.000976562 288 192 288 192 c 1
 288 244.984375 244.984375 288 192 288 c 0
 103.693359375 288 32 359.694335938 32 448 c 2
 32 480 l 2
 32 568.306640625 103.693359375 640 192 640 c 0
 263.034179688 640 324.205078125 597.975585938 352 537.322265625 c 1
 352 537.322265625 299.083984375 496.892578125 299.0625 496.890625 c 0
 284.997070312 542.674804688 242.370117188 576 192 576 c 0
 139.016601562 576 96 532.983398438 96 480 c 2
 96 448 l 2
 96 395.016601562 139.016601562 352.000976562 192 352 c 0
 280.306640625 352.000976562 352 280.306640625 352 192 c 2
 352 160.000976562 l 0
 352 71.6943359375 280.306640625 0 192.000976562 0 c 1
192 0 m 1
 120.965820312 0 59.794921875 42.025390625 32 102.677734375 c 1
 32 102.677734375 84.916015625 143.107421875 84.9375 143.109375 c 0
 99.0029296875 97.3251953125 141.629882812 64.0009765625 192 64.0009765625 c 1
 192 0 l 1
EndSplineSet
MultipleSubs2: "CCMP cartouches" S cart.hwbody
EndChar

StartChar: T
Encoding: 52 84 145
Width: 384
VWidth: 691
Flags: W
HStem: -0.000976562 21G<160 224> 576 64<32 160 224 352>
VStem: 160 64<-0.000976562 576>
LayerCount: 2
Fore
SplineSet
32 576 m 1
 32 640 l 1
 352 640 l 1
 352 576 l 1
 224 576 l 1
 224 -0.0009765625 l 1
 160 -0.0009765625 l 1
 160 576 l 1
 32 576 l 1
EndSplineSet
MultipleSubs2: "CCMP cartouches" T cart.hwbody
EndChar

StartChar: U
Encoding: 53 85 146
Width: 384
VWidth: 691
Flags: W
HStem: -8.00098 64<139.415 244.585> 619.999 20G<32 96 288 352>
VStem: 32 64<100.576 639.999> 288 64<100.576 639.999>
LayerCount: 2
Fore
SplineSet
32 639.999023438 m 1
 96 639.999023438 l 1
 96 151.999023438 l 2
 96 98.8154296875 138.81640625 55.9990234375 192 55.9990234375 c 0
 245.18359375 55.9990234375 288 98.8154296875 288 151.999023438 c 2
 288 639.999023438 l 1
 352 639.999023438 l 1
 352 151.999023438 l 2
 352 63.359375 280.639648438 -8.0009765625 192 -8.0009765625 c 0
 103.360351562 -8.0009765625 32 63.359375 32 151.999023438 c 2
 32 639.999023438 l 1
EndSplineSet
MultipleSubs2: "CCMP cartouches" U cart.hwbody
EndChar

StartChar: V
Encoding: 54 86 147
Width: 384
VWidth: 691
Flags: W
HStem: -0.000976562 21G<134.4 249.6> 619.999 20G<32 100.17 283.83 352.001>
LayerCount: 2
Fore
SplineSet
137.703125 -0.0009765625 m 1
 32 639.999023438 l 1
 96.8671875 639.999023438 l 1
 192 63.9990234375 l 1
 287.1328125 639.999023438 l 1
 352.000976562 639.999023438 l 1
 246.296875 -0.0009765625 l 1
 137.703125 -0.0009765625 l 1
EndSplineSet
MultipleSubs2: "CCMP cartouches" V cart.hwbody
EndChar

StartChar: W
Encoding: 55 87 148
Width: 384
VWidth: 691
Flags: W
HStem: -0.000976562 21G<70.25 162.222 221.778 313.75> 427.999 20G<157.551 226.449> 619.999 20G<16 81.5592 302.441 368>
VStem: 16 64.1562<578.559 639.999> 303.844 64.1562<578.559 639.999>
LayerCount: 2
Fore
SplineSet
16 639.999023438 m 1
 80.15625 639.999023438 l 1
 120 71.9990234375 l 1
 159.66015625 447.999023438 l 1
 224.33984375 447.999023438 l 1
 264 71.9990234375 l 1
 303.84375 639.999023438 l 1
 368 639.999023438 l 1
 312 -0.0009765625 l 1
 224 -0.0009765625 l 1
 192 287.999023438 l 1
 160 -0.0009765625 l 1
 72 -0.0009765625 l 1
 16 639.999023438 l 1
EndSplineSet
MultipleSubs2: "CCMP cartouches" W cart.hwbody
EndChar

StartChar: X
Encoding: 56 88 149
Width: 384
VWidth: 691
Flags: W
HStem: -0.000976562 21G<32.001 108.608 275.394 352.001> 619.999 20G<32.001 108.608 275.394 352.001>
LayerCount: 2
Fore
SplineSet
32.0009765625 639.999023438 m 1
 100.756835938 639.999023438 l 1
 192.000976562 407.569335938 l 1
 283.245117188 639.999023438 l 1
 352.000976562 639.999023438 l 1
 226.377929688 319.999023438 l 1
 352.000976562 -0.0009765625 l 1
 283.245117188 -0.0009765625 l 1
 192.000976562 232.428710938 l 1
 100.756835938 -0.0009765625 l 1
 32.0009765625 -0.0009765625 l 1
 157.624023438 319.999023438 l 1
 32.0009765625 639.999023438 l 1
EndSplineSet
MultipleSubs2: "CCMP cartouches" X cart.hwbody
EndChar

StartChar: Y
Encoding: 57 89 150
Width: 384
VWidth: 691
Flags: W
HStem: -0.000976562 21G<160 224> 620 20G<32 105.245 278.754 352>
VStem: 160 64<-0.000976562 256>
LayerCount: 2
Fore
SplineSet
32 640 m 1
 99.4609375 640 l 1
 192.000976562 320.000976562 l 1
 284.537109375 640 l 1
 352 640 l 1
 224 256 l 1
 224 -0.0009765625 l 1
 160 -0.0009765625 l 1
 160 256 l 1
 32 640 l 1
EndSplineSet
MultipleSubs2: "CCMP cartouches" Y cart.hwbody
EndChar

StartChar: Z
Encoding: 58 90 151
Width: 384
VWidth: 691
Flags: W
HStem: -0.000976562 64.001<95.999 351.999> 575.999 64.001<31.999 287.999>
LayerCount: 2
Fore
SplineSet
31.9990234375 640 m 1
 320.999023438 640 l 1
 351.999023438 640 l 1
 351.999023438 560.47265625 l 1
 95.9990234375 64 l 1
 351.999023438 64 l 1
 351.999023438 -0.0009765625 l 1
 62.9970703125 -0.0009765625 l 1
 31.9990234375 -0.0009765625 l 1
 31.9990234375 79.5263671875 l 1
 287.999023438 575.999023438 l 1
 31.9990234375 575.999023438 l 1
 31.9990234375 640 l 1
EndSplineSet
MultipleSubs2: "CCMP cartouches" Z cart.hwbody
EndChar

StartChar: b
Encoding: 66 98 152
Width: 384
VWidth: 691
Flags: W
HStem: -8 72<140.764 244.909> -0.000976562 21G<32 96> 384 64<140.764 244.909> 619.999 20G<32 96>
VStem: 32 64<-0.000976562 45.2825 106.253 341.747 394.717 639.999> 288 64<106.908 340.07>
LayerCount: 2
Fore
SplineSet
96 288 m 2xbc
 96 160 l 2
 96 106.815429688 138.81640625 64 192 64 c 0
 245.18359375 64 288 106.815429688 288 160 c 2
 288 288 l 2
 288 341.18359375 245.18359375 384 192 384 c 0
 138.81640625 384 96 341.18359375 96 288 c 2xbc
208 448 m 0
 287.776367188 448 352 383.775390625 352 304 c 2
 352 136 l 2
 352 56.2236328125 287.776367188 -8 208 -8 c 0xbc
 162.668434873 -8 122.358165027 12.7375963433 96 45.2825170389 c 1
 96 -0.0009765625 l 1
 32 -0.0009765625 l 1x7c
 32 639.999023438 l 1
 96 639.999023438 l 1
 96 394.717074522 l 1
 122.358165027 427.262088328 162.668434873 448 208 448 c 0
EndSplineSet
MultipleSubs2: "CCMP cartouches" b cart.hwbody
EndChar

StartChar: c
Encoding: 67 99 153
Width: 384
VWidth: 700
Flags: W
HStem: -8 64<150.76 266.261> 383.999 64.001<150.76 266.26>
VStem: 32 64<111.577 168 168.002 328.423>
LayerCount: 2
Fore
SplineSet
208 448 m 0
 267.556640625 448 320.147460938 418.520507812 352 373.192382812 c 1
 306.525390625 325.259765625 l 1
 287.586914062 360.293945312 250.587890625 383.999023438 208 383.999023438 c 0
 146.185546875 383.999023438 96 333.813476562 96 271.999023438 c 2
 96 168.001953125 l 1
 32 168.001953125 l 1
 32 271.999023438 l 2
 32.0000000027 369.137247311 110.863606768 448 208 448 c 0
208.000976562 -8 m 0
 110.86328125 -8 32.0009765625 70.8623046875 32.0009765625 168 c 1
 32.0009765625 167.999023438 96 168 96 168 c 1
 96 106.185546875 146.186523438 56 208.000976562 56 c 0
 250.588867188 56 287.586914062 79.705078125 306.525390625 114.739257812 c 0
 306.595703125 114.856445312 352.000976562 66.806640625 352.000976562 66.806640625 c 1
 320.147460938 21.478515625 267.557617188 -8 208.000976562 -8 c 0
EndSplineSet
MultipleSubs2: "CCMP cartouches" c cart.hwbody
EndChar

StartChar: d
Encoding: 68 100 154
Width: 384
VWidth: 691
Flags: W
HStem: -8 72<139.092 243.175> -0.000976562 21G<288 352> 384 64<139.092 243.175> 619.999 20G<288 352>
VStem: 32 64.001<106.908 340.07> 288 64<-0.000976562 45.2829 106.042 341.958 394.718 639.999>
LayerCount: 2
Fore
SplineSet
352 -0.0009765625 m 1x7c
 288 -0.0009765625 l 1x7c
 288 45.282925478 l 1
 261.641834973 12.737911672 221.331565127 -8 176 -8 c 0xbc
 96.2236328125 -8 32 56.224609375 32 136 c 2
 32 304 l 2
 32 383.776367188 96.224609375 448 176 448 c 0
 221.331942135 448 261.641997751 427.262566433 288 394.717866145 c 1
 288 639.999023438 l 1
 352 639.999023438 l 1
 352 -0.0009765625 l 1x7c
192.000976562 384 m 0
 138.81640625 384 96.0009765625 341.184570312 96.0009765625 288 c 2
 96.0009765625 160 l 2
 96.0009765625 106.81640625 138.81640625 64 192.000976562 64 c 0xbc
 245.037875982 64 287.764699884 106.580534193 288 159.56015431 c 2
 288 288.439853726 l 2
 287.764699884 341.42043699 245.037875982 384 192.000976562 384 c 0
EndSplineSet
MultipleSubs2: "CCMP cartouches" d cart.hwbody
EndChar

StartChar: e
Encoding: 69 101 155
Width: 384
VWidth: 691
Flags: W
HStem: -8 64<150.76 266.26> 208 64<95.998 288> 383.999 64.001<139.523 244.476>
VStem: 32 63.998<111.577 208 272 339.293> 288 64<272 339.293>
LayerCount: 2
Fore
SplineSet
352 255.999023438 m 1
 352 208 l 1
 95.998046875 208 l 1
 95.998046875 167.999999993 l 2
 95.9990234375 106.185546875 146.185546875 56 208 56 c 0
 250.587890625 56 287.5859375 79.705078125 306.524414062 114.739257812 c 0
 306.594726562 114.856445312 352 66.806640625 352 66.806640625 c 1
 320.146484375 21.478515625 267.556640625 -8 208 -8 c 0
 110.86328125 -8 32 70.8623046875 32 168 c 2
 32 287.999023438 l 1
 95.998046875 287.999023438 l 1
 95.998046875 272 l 1
 288 272 l 1
 288 287.999023438 l 2
 288 340.983398438 244.983398438 383.999023438 192 383.999023438 c 0
 139.015625 383.999023438 96 340.983398438 96 287.999023438 c 1
 96 287.999023438 32 288 32 287.999023438 c 1
 32 376.305664062 103.693359375 448 192 448 c 0
 280.306640625 448 352 376.305664062 352 287.999023438 c 2
 352 272 l 1
 352 255.999023438 l 1
EndSplineSet
MultipleSubs2: "CCMP cartouches" e cart.hwbody
EndChar

StartChar: f
Encoding: 70 102 156
Width: 384
VWidth: 691
Flags: W
HStem: -0.000976562 21G<96 160> 384 64<32 96 160 288> 583.999 63.998<187.306 278.037>
VStem: 96 64<-0.000976562 384 448 555.598>
LayerCount: 2
Fore
SplineSet
232 647.997070312 m 0
 283.986328125 647.997070312 329.115234375 618.90625 352 575.997070312 c 1
 352 575.997070312 300.35546875 534.658203125 300.336914062 534.668945312 c 0
 290.833007812 563.3203125 263.822265625 583.999023438 232 583.999023438 c 0
 192.26171875 583.999023438 160 551.737304688 160 511.999023438 c 2
 160 448 l 1
 288 448 l 1
 288 384 l 1
 160 384 l 1
 160 -0.0009765625 l 1
 96 -0.0009765625 l 1
 96 384 l 1
 32 384 l 1
 32 448 l 1
 96 448 l 1
 96 511.999023438 l 2
 96.0009765625 587.05859375 156.939453125 647.997070312 232 647.997070312 c 0
EndSplineSet
MultipleSubs2: "CCMP cartouches" f cart.hwbody
EndChar

StartChar: g
Encoding: 71 103 157
Width: 384
VWidth: 700
Flags: W
HStem: -72 64<117.74 233.24> 64 72<139.091 243.236> 384 64<139.091 243.237>
VStem: 32 64<178.908 340.07> 288 64<47.5768 117.283 178.253 341.747 394.717 448>
LayerCount: 2
Fore
SplineSet
176 -72 m 0
 116.443359375 -72 63.8525390625 -42.5205078125 32 2.806640625 c 1
 77.474609375 50.740234375 l 1
 96.4130859375 15.705078125 133.411132812 -8 176 -8 c 0
 237.813476562 -8 288 42.185546875 288 104 c 2
 288 117.282517039 l 1
 261.641834973 84.7375963433 221.331565127 64 176 64 c 0
 96.2236328125 64 32 128.223632812 32 208 c 2
 32 304 l 2
 32 383.775390625 96.2236328125 448 176 448 c 0
 221.331942135 448 261.641997751 427.262251107 288 394.717457707 c 1
 288 448 l 1
 352 448 l 1
 352 104 l 2
 351.999999997 6.86275268337 273.136393229 -72 176 -72 c 0
192 384 m 0
 138.81640625 384 96 341.18359375 96 288 c 2
 96 232 l 2
 96 178.815429688 138.81640625 136 192 136 c 0
 245.184570312 136 288 178.815429688 288 232 c 2
 288 288 l 2
 288 341.18359375 245.184570312 384 192 384 c 0
EndSplineSet
MultipleSubs2: "CCMP cartouches" g cart.hwbody
EndChar

StartChar: h
Encoding: 72 104 158
Width: 384
VWidth: 691
Flags: W
HStem: -0 21G<32 96 288 352> 384.001 64<140.79 244.908> 620 20G<32 96>
VStem: 32 64<0 341.841 394.718 639.999> 288 64<-0.000976562 340.071>
LayerCount: 2
Fore
SplineSet
32 640 m 1
 96 639.999023438 l 1
 96 394.717773438 l 1
 122.357421875 427.262695312 162.66796875 448.000976562 208 448.000976562 c 0
 287.775390625 448.000976562 352 383.77734375 352 304.000976562 c 2
 352 -0.0009765625 l 1
 288 -0.0009765625 l 1
 288 288.000976562 l 2
 288 341.185546875 245.18359375 384.000976562 192 384.000976562 c 0
 138.879882812 384.000976562 96.103515625 341.2890625 96 288.194335938 c 0
 96 288.129882812 96 288.065429688 96 288.001953125 c 2
 96 -0 l 1
 32 -0 l 1
 32 640 l 1
EndSplineSet
MultipleSubs2: "CCMP cartouches" h cart.hwbody
EndChar

StartChar: k
Encoding: 75 107 159
Width: 384
VWidth: 691
Flags: W
HStem: -0.000976562 21G<32.001 96.001 254.04 352.001> 428 20G<254.04 352.001> 620 20G<32.001 96.001>
VStem: 32.001 64<-0.000976562 127.999 230.449 640>
LayerCount: 2
Fore
SplineSet
32.0009765625 640 m 1
 96.0009765625 640 l 1
 96.0009765625 230.44921875 l 1
 270.040039062 448 l 1
 352.000976562 448 l 1
 172.801757812 223.999023438 l 1
 352.000976562 -0.0009765625 l 1
 270.040039062 -0.0009765625 l 1
 131.821289062 172.772460938 l 1
 96.0009765625 127.999023438 l 1
 96.0009765625 -0.0009765625 l 1
 32.0009765625 -0.0009765625 l 1
 32.0009765625 640 l 1
EndSplineSet
MultipleSubs2: "CCMP cartouches" k cart.hwbody
EndChar

StartChar: l
Encoding: 76 108 160
Width: 384
VWidth: 691
Flags: W
HStem: -0.000976562 64.001<241.836 352> 575.999 64<32 144>
VStem: 144 64<97.8347 143.999 144 575.999>
LayerCount: 2
Fore
SplineSet
144 143.999023438 m 1
 208 143.999023438 l 1
 208 99.8466796875 243.84765625 64 288 64 c 2
 352 63.9990234375 l 1
 352 -0.0009765625 l 1
 288 -0.0009765625 l 2
 208.524414062 -0.0009765625 144 64.5234375 144 143.999023438 c 1
32 575.999023438 m 1
 32 639.999023438 l 1
 144 639.999023438 l 1
 184 639.999023438 l 1
 208 639.999023438 l 1
 208 144 l 1
 144 144 l 1
 144 575.999023438 l 1
 32 575.999023438 l 1
EndSplineSet
MultipleSubs2: "CCMP cartouches" l cart.hwbody
EndChar

StartChar: m
Encoding: 77 109 161
Width: 384
VWidth: 691
Flags: W
HStem: -0.000976562 21G<16.001 80.001 160 224 304 368> 383.999 64.001<87.67 152.501 231.369 296.297>
VStem: 16.001 64<-0.000976562 376.112 431.958 447.999> 160 64<0 376.615> 304 64<0 351.949 352 375.98>
LayerCount: 2
Fore
SplineSet
272 448 m 0
 324.981445312 448 367.997070312 404.983398438 367.997070312 352 c 1
 368 352.076171875 l 1
 368 349.356445312 367.88671875 346.662109375 367.665039062 344 c 1
 368 344 l 1
 368 0 l 1
 304 0 l 1
 304 344 l 2
 303.999023438 366.076171875 286.075195312 383.999023438 263.999023438 383.999023438 c 0
 241.921875 383.999023438 223.999023438 366.076171875 223.999023438 344 c 2
 224 0 l 1
 160 0 l 1
 160 344 l 2
 160 366.076171875 142.076171875 383.999023438 120 383.999023438 c 0
 98.017959638 383.999023438 80.1529278161 366.22869001 80.0009765625 344.282166935 c 2
 80.0009765625 -0.0009765625 l 1
 16.0009765625 -0.0009765625 l 1
 16.0009765625 447.999023438 l 1
 80.0009765625 447.999023438 l 1
 80.0009765625 431.95764455 l 1
 93.3894297819 442.028589807 110.033178611 448 128.060546875 448 c 0
 156.622042965 448 181.710466168 433.010948591 195.882327015 410.477126456 c 1
 213.440109432 433.289207568 241.015835011 448 272 448 c 0
EndSplineSet
MultipleSubs2: "CCMP cartouches" m cart.hwbody
EndChar

StartChar: n
Encoding: 78 110 162
Width: 384
VWidth: 691
Flags: W
HStem: 0 21G<32 96 288 352> 384.002 64<140.791 244.909>
VStem: 32 64<0 341.841 394.718 447.999> 288 64<0 340.072>
LayerCount: 2
Fore
SplineSet
32 448 m 1
 96 447.999023438 l 1
 96 394.717773438 l 1
 122.358398438 427.263671875 162.66796875 448.001953125 208 448.001953125 c 0
 287.776367188 448.001953125 352 383.77734375 352 304.001953125 c 2
 352 -0 l 1
 288 -0 l 1
 288 288.001953125 l 2
 288 341.185546875 245.184570312 384.001953125 192 384.001953125 c 0
 138.880859375 384.001953125 96.1025390625 341.2890625 96 288.194335938 c 2
 96 288.001953125 l 1
 96 0 l 1
 32 0 l 1
 32 448 l 1
EndSplineSet
MultipleSubs2: "CCMP cartouches" n cart.hwbody
EndChar

StartChar: p
Encoding: 80 112 163
Width: 384
VWidth: 691
Flags: W
HStem: 64 64<140.763 244.908> 384 72<140.763 244.908> 427.999 20G<31.999 95.999>
VStem: 31.999 64<-64 117.283 170.253 341.747 402.716 447.999> 288 64<171.93 341.092>
LayerCount: 2
Fore
SplineSet
31.9990234375 447.999023438 m 1xb8
 95.9990234375 447.999023438 l 1xb8
 95.9990234375 402.716251911 l 1
 122.357006587 435.261738879 162.667498012 456 208 456 c 0xd8
 287.775390625 456 352 391.775390625 352 312 c 2
 352 208 l 2
 352 128.223632812 287.775390625 64 208 64 c 0
 162.667498012 64 122.357006587 84.7379457874 95.9990234375 117.283339648 c 1
 95.9990234375 -64 l 1
 31.9990234375 -64 l 1
 31.9990234375 447.999023438 l 1xb8
192 128 m 0
 245.18359375 128 288 170.815429688 288 224 c 2
 288 288 l 2
 288 341.18359375 245.18359375 384 192 384 c 0xd8
 138.815429688 384 96 341.18359375 96 288 c 2
 96 224 l 2
 96 170.815429688 138.815429688 128 192 128 c 0
EndSplineSet
MultipleSubs2: "CCMP cartouches" p cart.hwbody
EndChar

StartChar: q
Encoding: 81 113 164
Width: 384
VWidth: 700
Flags: W
HStem: 64.001 64<139.09 243.236> 384.001 72<139.09 243.236> 428 20G<288 352>
VStem: 31.999 64<171.931 341.093> 288 64<-63.999 117.285 170.254 341.748 402.717 448>
LayerCount: 2
Fore
SplineSet
175.999023438 64.0009765625 m 0xb8
 96.22265625 64.0009765625 31.9990234375 128.224609375 31.9990234375 208.000976562 c 2
 31.9990234375 312.000976562 l 2
 31.9990234375 391.776367188 96.22265625 456.000976562 175.999023438 456.000976562 c 0xd8
 221.331148409 456.000976562 261.641854073 435.262552661 288 402.716845288 c 1
 288 448 l 1
 352 448 l 1
 352 -63.9990234375 l 1
 288 -63.9990234375 l 1
 288 117.284699395 l 1
 261.641854073 84.739085127 221.331148409 64.0009765625 175.999023438 64.0009765625 c 0xb8
191.999023438 128.000976562 m 0
 245.182617188 128.000976562 287.999023438 170.81640625 287.999023438 224.000976562 c 2
 287.999023438 288.000976562 l 2
 287.999023438 341.185546875 245.182617188 384.000976562 191.999023438 384.000976562 c 0
 138.815429688 384.000976562 95.9990234375 341.185546875 95.9990234375 288.000976562 c 2
 95.9990234375 224.000976562 l 2
 95.9990234375 170.81640625 138.815429688 128.000976562 191.999023438 128.000976562 c 0
EndSplineSet
MultipleSubs2: "CCMP cartouches" q cart.hwbody
EndChar

StartChar: r
Encoding: 82 114 165
Width: 384
VWidth: 691
Flags: W
HStem: -0 21G<31.999 95.999> 384.003 63.998<148.2 256.533>
VStem: 31.999 64<0 336.04 389.26 448>
LayerCount: 2
Fore
SplineSet
215.999023438 448.000976562 m 0
 275.55859375 448.000976562 327.075195312 413.818359375 352 363.883789062 c 1
 297.479492188 316.245117188 l 1
 282.766601562 355.8203125 244.670898438 384.002929688 199.999023438 384.002929688 c 0
 142.600585938 384.002929688 95.9990234375 337.400390625 95.9990234375 280.000976562 c 2
 95.9990234375 -0 l 1
 31.9990234375 -0 l 1
 31.9990234375 448 l 1
 95.9990234375 448 l 1
 95.9990234375 389.260472759 l 1
 123.821241277 424.99701554 167.244906574 448.000976562 215.999023438 448.000976562 c 0
EndSplineSet
MultipleSubs2: "CCMP cartouches" r cart.hwbody
EndChar

StartChar: s
Encoding: 83 115 166
Width: 384
VWidth: 691
Flags: W
HStem: 0 64.001<112.746 223.998 223.999 265.034> 192.001 64<118.964 265.034> 384 64.001<118.964 271.252>
VStem: 31.999 64<277.972 362.029> 287.999 64<85.9721 170.03>
LayerCount: 2
Fore
SplineSet
223.998046875 64 m 1
 223.998046875 0 l 1
 159.998046875 0 l 2
 104.234787457 0.000976565732609 55.9178291229 31.6223412209 31.9990234375 78.0302734375 c 1
 31.9990234375 78.0302734375 85.4853515625 114.850585938 85.5166015625 114.807617188 c 0
 97.1796875 85.0517578125 126.129882812 64.0009765625 159.999023438 64.0009765625 c 2
 223.998046875 64 l 1
223.999023438 0.0009765625 m 1
 223.999023438 0.0009765625 224 64.0009765625 223.999023438 64.0009765625 c 1
 259.321289062 64.0009765625 287.999023438 92.6787109375 287.999023438 128.000976562 c 0
 287.999023438 163.323242188 259.321289062 192.000976562 223.999023438 192.000976562 c 2
 159.999023438 192.000976562 l 2
 89.3544921875 192 31.9990234375 249.35546875 31.9990234375 320.000976562 c 0
 31.9990234375 390.645507812 89.3544921875 448.000976562 159.999023438 448.000976562 c 2
 223.999023438 448 l 2
 279.763671875 448.000976562 328.081054688 416.37890625 351.999023438 369.970703125 c 1
 351.999023438 369.970703125 298.512695312 333.150390625 298.481445312 333.193359375 c 0
 286.819335938 362.94921875 257.868164062 384 223.999023438 384 c 2
 159.999023438 384 l 2
 124.676757812 384 95.9990234375 355.323242188 95.9990234375 320.000976562 c 0
 95.9990234375 284.677734375 124.676757812 256.000976562 159.999023438 256.000976562 c 2
 223.999023438 256.000976562 l 2
 294.64453125 256.000976562 351.999023438 198.646484375 351.999023438 128.000976562 c 0
 351.999023438 57.35546875 294.64453125 0.0009765625 223.999023438 0.0009765625 c 1
EndSplineSet
MultipleSubs2: "CCMP cartouches" s cart.hwbody
EndChar

StartChar: t
Encoding: 84 116 167
Width: 384
VWidth: 691
Flags: W
HStem: -7.99902 63.998<187.306 278.036> 384 64<31.998 95.998 159.998 287.998>
VStem: 95.999 63.999<84.3999 384 448 576>
LayerCount: 2
Fore
SplineSet
95.998046875 576 m 1
 159.998046875 576 l 1
 159.998046875 448 l 1
 287.998046875 448 l 1
 287.998046875 384 l 1
 159.998046875 384 l 1
 159.998046875 127.999023438 l 2
 159.999023438 88.2607421875 192.26171875 55.9990234375 231.999023438 55.9990234375 c 0
 263.822265625 55.9990234375 290.83203125 76.677734375 300.336914062 105.329101562 c 0
 300.354492188 105.33984375 351.999023438 64.0009765625 351.999023438 64.0009765625 c 1
 329.114257812 21.091796875 283.985351562 -7.9990234375 231.999023438 -7.9990234375 c 0
 156.939453125 -7.9990234375 96 52.939453125 95.9990234375 127.999023438 c 2
 95.998046875 384 l 1
 31.998046875 384 l 1
 31.998046875 448 l 1
 95.998046875 448 l 1
 95.998046875 576 l 1
EndSplineSet
MultipleSubs2: "CCMP cartouches" t cart.hwbody
EndChar

StartChar: u
Encoding: 85 117 168
Width: 384
VWidth: 691
Flags: W
HStem: -0.00195312 64<139.091 243.209> 428 20G<31.9999 96 288 352>
VStem: 31.999 64.001<107.928 448> 288 64<0.000976562 53.2812 106.158 447.999>
LayerCount: 2
Fore
SplineSet
352 -0 m 1
 288 0.0009765625 l 1
 288 53.28125 l 1
 261.641601562 20.736328125 221.331054688 -0.001953125 175.999023438 -0.001953125 c 0
 96.2236328125 -0.001953125 31.9990234375 64.2216796875 31.9990234375 143.998046875 c 2
 32 448 l 1
 96 448 l 1
 96 159.998046875 l 2
 96 106.813476562 138.815429688 63.998046875 192 63.998046875 c 0
 245.119140625 63.998046875 287.897460938 106.709960938 288 159.8046875 c 2
 288 159.997070312 l 1
 288 447.999023438 l 1
 352 447.999023438 l 1
 352 -0 l 1
EndSplineSet
MultipleSubs2: "CCMP cartouches" u cart.hwbody
EndChar

StartChar: v
Encoding: 86 118 169
Width: 384
VWidth: 691
Flags: W
HStem: -0.000976562 21G<136.89 248.354> 428 20G<31.999 102.793 282.45 352.999>
LayerCount: 2
Fore
SplineSet
31.9990234375 448 m 1
 97.8916015625 448 l 1
 192.622070312 61.458984375 l 1
 287.3515625 448 l 1
 348.918945312 448 l 1
 352.999023438 447 l 1
 243.453125 -0.0009765625 l 1
 141.791015625 -0.0009765625 l 1
 31.9990234375 448 l 1
EndSplineSet
MultipleSubs2: "CCMP cartouches" v cart.hwbody
EndChar

StartChar: w
Encoding: 87 119 170
Width: 384
VWidth: 691
Flags: W
HStem: -0 21G<59.999 164.21 219.788 319.999> 428 20G<15.999 79.999 303.999 367.999>
VStem: 15.999 64<260.546 448> 167.999 48<257.894 288> 303.999 64<260.546 448>
LayerCount: 2
Fore
SplineSet
15.9990234375 448 m 1
 79.9990234375 448 l 1
 79.9990234375 316.974609375 96.6318359375 191.21484375 127.999023438 64 c 1
 167.999023438 288 l 1
 215.999023438 288 l 1
 255.999023438 64 l 1
 287.366210938 191.21484375 303.999023438 316.974609375 303.999023438 448 c 1
 367.999023438 448 l 1
 367.999023438 445.333984375 l 2
 367.76171875 294.854492188 343.999023438 168 295.999023438 -0 c 1
 223.999023438 -0 l 1
 191.999023438 152 l 1
 159.999023438 -0 l 1
 87.9990234375 -0 l 1
 31.9990234375 168 16.2373046875 294.854492188 15.9990234375 445.333984375 c 2
 15.9990234375 448 l 1
EndSplineSet
MultipleSubs2: "CCMP cartouches" w cart.hwbody
EndChar

StartChar: x
Encoding: 88 120 171
Width: 384
VWidth: 691
Flags: W
HStem: -0.000976562 21G<31.999 116.1 267.898 351.999> 428 20G<31.999 116.1 267.898 351.999>
LayerCount: 2
Fore
SplineSet
31.9990234375 448 m 1
 105.077148438 448 l 1
 191.998046875 290.291992188 l 1
 278.920898438 448 l 1
 351.999023438 448 l 1
 228.538085938 224 l 1
 351.999023438 -0.0009765625 l 1
 278.920898438 -0.0009765625 l 1
 191.998046875 157.70703125 l 1
 105.077148438 -0.0009765625 l 1
 31.9990234375 -0.0009765625 l 1
 155.459960938 224 l 1
 31.9990234375 448 l 1
EndSplineSet
MultipleSubs2: "CCMP cartouches" x cart.hwbody
EndChar

StartChar: y
Encoding: 89 121 172
Width: 384
VWidth: 691
Flags: W
HStem: -72 64.001<70.896 140.146> 428.001 20G<31.999 105.043 278.955 351.999>
LayerCount: 2
Fore
SplineSet
31.9990234375 448.000976562 m 1
 98.9189453125 448.000976562 l 1
 191.999023438 144 l 1
 285.079101562 448.000976562 l 1
 351.999023438 448.000976562 l 1
 225.674804688 62.5947265625 l 1
 203.223632812 -5.8994140625 l 2
 190.298828125 -45.333984375 153.498046875 -72 111.999023438 -72 c 0
 79.822265625 -72 49.7861328125 -55.8798828125 31.9990234375 -29.0654296875 c 1
 82.1357421875 12.5048828125 l 1
 86.8916015625 0.1513671875 98.76171875 -7.9990234375 111.999023438 -7.9990234375 c 0
 125.83203125 -7.9990234375 138.099609375 0.888671875 142.407226562 14.0341796875 c 2
 158.323242188 62.5947265625 l 1
 31.9990234375 448.000976562 l 1
EndSplineSet
MultipleSubs2: "CCMP cartouches" y cart.hwbody
EndChar

StartChar: z
Encoding: 90 122 173
Width: 384
VWidth: 691
Flags: W
HStem: 0 64.001<95.999 351.999> 384 64.001<31.999 287.999>
LayerCount: 2
Fore
SplineSet
31.9990234375 448.000976562 m 1
 343.317382812 448.000976562 l 1
 351.999023438 448.000976562 l 1
 351.999023438 360.173828125 l 1
 95.9990234375 64.0009765625 l 1
 351.999023438 64.0009765625 l 1
 351.999023438 0 l 1
 40.6806640625 0 l 1
 31.9990234375 0 l 1
 31.9990234375 87.8271484375 l 1
 287.999023438 384 l 1
 31.9990234375 384 l 1
 31.9990234375 448.000976562 l 1
EndSplineSet
MultipleSubs2: "CCMP cartouches" z cart.hwbody
EndChar

StartChar: zero
Encoding: 16 48 174
Width: 384
VWidth: 700
Flags: W
HStem: -8 64<139.416 244.586> 263.999 112<152.403 231.598> 583.999 64.001<139.416 244.586>
VStem: 32.001 64<100.577 539.422> 136.001 111.999<280.401 359.597> 288.001 64<100.577 539.422>
LayerCount: 2
Fore
SplineSet
192.000976562 375.999023438 m 0
 222.928710938 375.999023438 248 350.927734375 248 319.999023438 c 0
 248 289.071289062 222.928710938 263.999023438 192.000976562 263.999023438 c 0
 161.072265625 263.999023438 136.000976562 289.071289062 136.000976562 319.999023438 c 0
 136.000976562 350.927734375 161.072265625 375.999023438 192.000976562 375.999023438 c 0
192.000976562 648 m 0
 280.640625 648 352.000976562 576.639648438 352.000976562 487.999023438 c 2
 352.000976562 152 l 2
 352.000976562 63.359375 280.640625 -8 192.000976562 -8 c 0
 103.360351562 -8 32.0009765625 63.359375 32.0009765625 152 c 2
 32.0009765625 487.999023438 l 2
 32.0009765625 576.639648438 103.360351562 648 192.000976562 648 c 0
192.000976562 583.999023438 m 0
 138.81640625 583.999023438 96.0009765625 541.18359375 96.0009765625 487.999023438 c 2
 96.0009765625 152 l 2
 96.0009765625 98.8154296875 138.81640625 56 192.000976562 56 c 0
 245.184570312 56 288.000976562 98.8154296875 288.000976562 152 c 2
 288.000976562 487.999023438 l 2
 288.000976562 541.18359375 245.184570312 583.999023438 192.000976562 583.999023438 c 0
EndSplineSet
MultipleSubs2: "CCMP cartouches" zero cart.hwbody
EndChar

StartChar: one
Encoding: 17 49 175
Width: 384
VWidth: 691
Flags: W
HStem: -0.000976562 64<32 160 224 352> 480 64<64 139.032> 619.999 20G<160 224>
VStem: 160 64<63.999 480 564.968 639.999>
LayerCount: 2
Fore
SplineSet
32 -0.0009765625 m 1
 32 63.9990234375 l 1
 160 63.9990234375 l 1
 160 480 l 1
 64 480 l 1
 64 544 l 1
 95.9990234375 544 l 2
 131.345703125 544 160 572.653320312 160 607.999023438 c 2
 160 639.999023438 l 1
 224 639.999023438 l 1
 224 63.9990234375 l 1
 352 63.9990234375 l 1
 352 -0.0009765625 l 1
 224 -0.0009765625 l 1
 160 -0.0009765625 l 1
 32 -0.0009765625 l 1
EndSplineSet
MultipleSubs2: "CCMP cartouches" one cart.hwbody
EndChar

StartChar: two
Encoding: 18 50 176
Width: 384
VWidth: 700
Flags: W
HStem: -0.000976562 64.001<96 352.001> 583.999 64<139.505 244.496>
VStem: 32 64<487.999 539.316> 288 64<433.751 540.495>
LayerCount: 2
Fore
SplineSet
192 647.999023438 m 0
 280.366210938 647.999023438 352 576.365234375 352 487.999023438 c 0
 352 455.78125 342.2734375 424.313476562 324.09375 397.71484375 c 2
 96 64 l 1
 352.000976562 63.9990234375 l 1
 352.000976562 -0.0009765625 l 1
 32.0009765625 -0.0009765625 l 1
 32.0009765625 45.2258724123 l 1
 32 83.78125 l 1
 271.255859375 433.827148438 l 2
 282.1640625 449.787109375 288 468.66796875 288 487.999023438 c 0
 288 541.018554688 245.01953125 583.999023438 192 583.999023438 c 0
 138.981445312 583.999023438 96 541.018554688 96 487.999023438 c 1
 32 487.999023438 l 1
 32 576.365234375 103.634765625 647.999023438 192 647.999023438 c 0
EndSplineSet
MultipleSubs2: "CCMP cartouches" two cart.hwbody
EndChar

